FiraSans-Italic.ufo
<glyph name="dollar" format="2">
  <advance width="525"/>
  <unicode hex="0024"/>
  <outline>
    <contour>
      <point x="263" y="2" type="line"/>
      <point x="183" y="-7" type="line"/>
      <point x="162" y="-155" type="line"/>
      <point x="241" y="-155" type="line"/>
    </contour>
    <contour>
      <point x="379" y="824" type="line"/>
      <point x="300" y="824" type="line"/>
      <point x="277" y="662" type="line"/>
      <point x="356" y="664" type="line"/>
    </contour>
    <contour>
      <point x="313" y="680" type="curve" smooth="yes"/>
      <point x="182" y="680"/>
      <point x="84" y="611"/>
      <point x="84" y="494" type="curve" smooth="yes"/>
      <point x="84" y="405"/>
      <point x="146" y="352"/>
      <point x="258" y="314" type="curve" smooth="yes"/>
      <point x="352" y="282"/>
      <point x="382" y="249"/>
      <point x="382" y="195" type="curve" smooth="yes"/>
      <point x="382" y="101"/>
      <point x="305" y="64"/>
      <point x="224" y="64" type="curve" smooth="yes"/>
      <point x="149" y="64"/>
      <point x="96" y="88"/>
      <point x="57" y="131" type="curve"/>
      <point x="-1" y="77" type="line"/>
      <point x="47" y="22"/>
      <point x="117" y="-12"/>
      <point x="214" y="-12" type="curve" smooth="yes"/>
      <point x="399" y="-12"/>
      <point x="477" y="92"/>
      <point x="477" y="201" type="curve" smooth="yes"/>
      <point x="477" y="307"/>
      <point x="398" y="357"/>
      <point x="303" y="387" type="curve" smooth="yes"/>
      <point x="205" y="418"/>
      <point x="177" y="448"/>
      <point x="177" y="500" type="curve" smooth="yes"/>
      <point x="177" y="576"/>
      <point x="242" y="604"/>
      <point x="313" y="604" type="curve" smooth="yes"/>
      <point x="362" y="604"/>
      <point x="407" y="589"/>
      <point x="456" y="546" type="curve"/>
      <point x="511" y="600" type="line"/>
      <point x="456" y="651"/>
      <point x="400" y="680"/>
    </contour>
  </outline>
</glyph>
<glyph name="ampersand" format="2">
  <advance width="723"/>
  <unicode hex="0026"/>
  <outline>
    <contour>
      <point x="347" y="701" type="curve" smooth="yes"/>
      <point x="224" y="701"/>
      <point x="157" y="624"/>
      <point x="157" y="534" type="curve" smooth="yes"/>
      <point x="157" y="476.531"/>
      <point x="186.956" y="430.712"/>
      <point x="231.687" y="379.843" type="curve"/>
      <point x="108" y="306"/>
      <point x="76" y="243"/>
      <point x="76" y="162" type="curve" smooth="yes"/>
      <point x="76" y="65"/>
      <point x="149" y="-12"/>
      <point x="273" y="-12" type="curve" smooth="yes"/>
      <point x="363" y="-12"/>
      <point x="435.188" y="19.989"/>
      <point x="499.227" y="82.22" type="curve"/>
      <point x="582" y="-12" type="line"/>
      <point x="652" y="40" type="line"/>
      <point x="556.863" y="144.028" type="line"/>
      <point x="595.845" y="194.741"/>
      <point x="634.22" y="257.809"/>
      <point x="666" y="325" type="curve"/>
      <point x="584" y="355" type="line"/>
      <point x="565" y="304.333"/>
      <point x="535.358" y="247.118"/>
      <point x="505.444" y="199.648" type="curve"/>
      <point x="352.691" y="366.828" type="line"/>
      <point x="440.932" y="414.403"/>
      <point x="522" y="461.697"/>
      <point x="522" y="557" type="curve" smooth="yes"/>
      <point x="522" y="641"/>
      <point x="452" y="701"/>
    </contour>
    <contour>
      <point x="277.994" y="326.476" type="curve"/>
      <point x="449.615" y="135.968" type="line"/>
      <point x="399.173" y="88.824"/>
      <point x="346.369" y="61"/>
      <point x="281" y="61" type="curve" smooth="yes"/>
      <point x="210" y="61"/>
      <point x="169" y="100"/>
      <point x="169" y="164" type="curve" smooth="yes"/>
      <point x="169" y="215"/>
      <point x="180.342" y="268.008"/>
    </contour>
    <contour>
      <point x="347" y="633" type="curve" smooth="yes"/>
      <point x="398" y="633"/>
      <point x="433" y="605"/>
      <point x="433" y="557" type="curve" smooth="yes"/>
      <point x="433" y="495.644"/>
      <point x="379.064" y="459.125"/>
      <point x="302.836" y="417.177" type="curve"/>
      <point x="266.328" y="455.575"/>
      <point x="246" y="492.442"/>
      <point x="246" y="534" type="curve" smooth="yes"/>
      <point x="246" y="592"/>
      <point x="282" y="633"/>
    </contour>
  </outline>
</glyph>
<glyph name="parenleft" format="2">
  <advance width="318"/>
  <unicode hex="0028"/>
  <outline>
    <contour>
      <point x="303" y="847" type="line"/>
      <point x="138" y="651"/>
      <point x="42" y="502"/>
      <point x="42" y="240" type="curve" smooth="yes"/>
      <point x="42" y="73"/>
      <point x="103" y="-32"/>
      <point x="167" y="-143" type="curve"/>
      <point x="227" y="-109" type="line"/>
      <point x="172" y="-5"/>
      <point x="135" y="84"/>
      <point x="135" y="229" type="curve" smooth="yes"/>
      <point x="135" y="459"/>
      <point x="206" y="617"/>
      <point x="357" y="803" type="curve"/>
    </contour>
  </outline>
</glyph>
<glyph name="parenright" format="2">
  <advance width="318"/>
  <unicode hex="0029"/>
  <outline>
    <contour>
      <point x="175" y="843" type="curve"/>
      <point x="115" y="809" type="line"/>
      <point x="170" y="706"/>
      <point x="208" y="617"/>
      <point x="208" y="473" type="curve" smooth="yes"/>
      <point x="208" y="243"/>
      <point x="136" y="83"/>
      <point x="-15" y="-103" type="curve"/>
      <point x="39" y="-147" type="line"/>
      <point x="204" y="49"/>
      <point x="300" y="198"/>
      <point x="300" y="460" type="curve" smooth="yes"/>
      <point x="300" y="627"/>
      <point x="239" y="732"/>
    </contour>
  </outline>
</glyph>
<glyph name="zero" format="2">
  <advance width="552"/>
  <unicode hex="0030"/>
  <outline>
    <contour>
      <point x="333" y="679" type="curve" smooth="yes"/>
      <point x="452" y="679"/>
      <point x="515" y="593"/>
      <point x="515" y="438" type="curve" smooth="yes"/>
      <point x="515" y="256"/>
      <point x="450" y="-12"/>
      <point x="238" y="-12" type="curve" smooth="yes"/>
      <point x="119" y="-12"/>
      <point x="56" y="74"/>
      <point x="56" y="229" type="curve" smooth="yes"/>
      <point x="56" y="411"/>
      <point x="120" y="679"/>
    </contour>
    <contour>
      <point x="330" y="606" type="curve" smooth="yes"/>
      <point x="198" y="606"/>
      <point x="149" y="377"/>
      <point x="149" y="212" type="curve" smooth="yes"/>
      <point x="149" y="104"/>
      <point x="182" y="61"/>
      <point x="242" y="61" type="curve" smooth="yes"/>
      <point x="374" y="61"/>
      <point x="423" y="291"/>
      <point x="423" y="455" type="curve" smooth="yes"/>
      <point x="423" y="563"/>
      <point x="390" y="606"/>
    </contour>
  </outline>
</glyph>
<glyph name="six" format="2">
  <advance width="526"/>
  <unicode hex="0036"/>
  <outline>
    <contour>
      <point x="358" y="679" type="curve" smooth="yes"/>
      <point x="159" y="679"/>
      <point x="54" y="447"/>
      <point x="54" y="221" type="curve" smooth="yes"/>
      <point x="54" y="80"/>
      <point x="107" y="-12"/>
      <point x="242" y="-12" type="curve" smooth="yes"/>
      <point x="412" y="-12"/>
      <point x="484" y="150"/>
      <point x="484" y="262" type="curve" smooth="yes"/>
      <point x="484" y="380"/>
      <point x="413" y="440"/>
      <point x="325" y="440" type="curve" smooth="yes"/>
      <point x="259" y="440"/>
      <point x="199" y="410"/>
      <point x="142" y="337" type="curve"/>
      <point x="136" y="256" type="line"/>
      <point x="178" y="320"/>
      <point x="240" y="367"/>
      <point x="307" y="367" type="curve" smooth="yes"/>
      <point x="358" y="367"/>
      <point x="393" y="340"/>
      <point x="393" y="263" type="curve" smooth="yes"/>
      <point x="393" y="189"/>
      <point x="360" y="61"/>
      <point x="245" y="61" type="curve" smooth="yes"/>
      <point x="174" y="61"/>
      <point x="144" y="105"/>
      <point x="144" y="210" type="curve" smooth="yes"/>
      <point x="144" y="238"/>
      <point x="145" y="260"/>
      <point x="149" y="297" type="curve"/>
      <point x="152" y="326" type="line"/>
      <point x="174" y="492"/>
      <point x="252" y="606"/>
      <point x="355" y="606" type="curve" smooth="yes"/>
      <point x="389" y="606"/>
      <point x="423" y="596"/>
      <point x="450" y="577" type="curve"/>
      <point x="491" y="637" type="line"/>
      <point x="456" y="663"/>
      <point x="413" y="679"/>
    </contour>
  </outline>
</glyph>
<glyph name="less" format="2">
  <advance width="496"/>
  <unicode hex="003C"/>
  <outline>
    <contour>
      <point x="451" y="551" type="line"/>
      <point x="65" y="380" type="line"/>
      <point x="52" y="286" type="line"/>
      <point x="392" y="115" type="line"/>
      <point x="435" y="189" type="line"/>
      <point x="131" y="331" type="line"/>
      <point x="479" y="472" type="line"/>
    </contour>
  </outline>
</glyph>
<glyph name="at" format="2">
  <advance width="1014"/>
  <unicode hex="0040"/>
  <outline>
    <contour>
      <point x="570" y="701" type="curve" smooth="yes"/>
      <point x="197" y="701"/>
      <point x="62" y="398"/>
      <point x="62" y="185" type="curve" smooth="yes"/>
      <point x="62" y="-48"/>
      <point x="228" y="-213"/>
      <point x="469" y="-213" type="curve" smooth="yes"/>
      <point x="557" y="-213"/>
      <point x="619" y="-198"/>
      <point x="688" y="-175" type="curve"/>
      <point x="669" y="-102" type="line"/>
      <point x="614" y="-121"/>
      <point x="549" y="-137"/>
      <point x="473" y="-137" type="curve" smooth="yes"/>
      <point x="270" y="-137"/>
      <point x="154" y="3"/>
      <point x="154" y="183" type="curve" smooth="yes"/>
      <point x="154" y="365"/>
      <point x="255" y="625"/>
      <point x="568" y="625" type="curve" smooth="yes"/>
      <point x="758" y="625"/>
      <point x="862" y="527"/>
      <point x="862" y="357" type="curve" smooth="yes"/>
      <point x="862" y="251"/>
      <point x="827" y="80"/>
      <point x="715" y="80" type="curve" smooth="yes"/>
      <point x="663" y="80"/>
      <point x="659" y="120"/>
      <point x="665.405" y="167.619" type="curve" smooth="yes"/>
      <point x="704" y="450" type="line"/>
      <point x="654" y="479"/>
      <point x="605" y="492"/>
      <point x="551" y="492" type="curve" smooth="yes"/>
      <point x="365" y="492"/>
      <point x="299" y="320"/>
      <point x="299" y="186" type="curve" smooth="yes"/>
      <point x="299" y="77"/>
      <point x="360" y="11"/>
      <point x="450" y="11" type="curve" smooth="yes"/>
      <point x="526" y="11"/>
      <point x="571.832" y="60.154"/>
      <point x="599.878" y="109.613" type="curve"/>
      <point x="605" y="64"/>
      <point x="635.484" y="9"/>
      <point x="716" y="9" type="curve" smooth="yes"/>
      <point x="896" y="9"/>
      <point x="952" y="223"/>
      <point x="952" y="351" type="curve" smooth="yes"/>
      <point x="952" y="548"/>
      <point x="820" y="701"/>
    </contour>
    <contour>
      <point x="463" y="78" type="curve" smooth="yes"/>
      <point x="411" y="78"/>
      <point x="387" y="113"/>
      <point x="387" y="181" type="curve" smooth="yes"/>
      <point x="387" y="287"/>
      <point x="420" y="426"/>
      <point x="553" y="426" type="curve" smooth="yes"/>
      <point x="581" y="426"/>
      <point x="600" y="421"/>
      <point x="619" y="413" type="curve"/>
      <point x="584.426" y="172.708" type="line"/>
      <point x="572.719" y="146.646"/>
      <point x="534.713" y="78"/>
    </contour>
  </outline>
</glyph>
<glyph name="A" format="2">
  <advance width="567"/>
  <unicode hex="0041"/>
  <anchor x="246" y="0" name="bottom"/>
  <anchor x="495" y="0" name="ogonek"/>
  <anchor x="344" y="689" name="top"/>
  <anchor x="227" y="689" name="topleft"/>
  <outline>
    <contour>
      <point x="403" y="689" type="line"/>
      <point x="284" y="689" type="line"/>
      <point x="-32" y="0" type="line"/>
      <point x="65" y="0" type="line"/>
      <point x="332" y="610" type="line"/>
      <point x="427" y="0" type="line"/>
      <point x="524" y="0" type="line"/>
    </contour>
    <contour>
      <point x="400" y="250" type="line"/>
      <point x="158" y="250" type="line"/>
      <point x="124" y="173" type="line"/>
      <point x="412" y="173" type="line"/>
    </contour>
  </outline>
</glyph>
<glyph name="E" format="2">
  <advance width="529"/>
  <unicode hex="0045"/>
  <anchor x="251" y="0" name="bottom"/>
  <anchor x="409" y="0" name="ogonek"/>
  <anchor x="347" y="689" name="top"/>
  <anchor x="139" y="689" name="topleft"/>
  <outline>
    <contour>
      <point x="528" y="689" type="line"/>
      <point x="159" y="689" type="line"/>
      <point x="62" y="0" type="line"/>
      <point x="439" y="0" type="line"/>
      <point x="450" y="76" type="line"/>
      <point x="167" y="76" type="line"/>
      <point x="200" y="312" type="line"/>
      <point x="430" y="312" type="line"/>
      <point x="440" y="388" type="line"/>
      <point x="210" y="388" type="line"/>
      <point x="242" y="613" type="line"/>
      <point x="507" y="613" type="line"/>
    </contour>
  </outline>
</glyph>
<glyph name="F" format="2">
  <advance width="485"/>
  <unicode hex="0046"/>
  <anchor x="109" y="0" name="bottom"/>
  <anchor x="340" y="689" name="top"/>
  <outline>
    <contour>
      <point x="521" y="689" type="line"/>
      <point x="159" y="689" type="line"/>
      <point x="62" y="0" type="line"/>
      <point x="156" y="0" type="line"/>
      <point x="199" y="303" type="line"/>
      <point x="422" y="303" type="line"/>
      <point x="432" y="378" type="line"/>
      <point x="209" y="378" type="line"/>
      <point x="242" y="613" type="line"/>
      <point x="500" y="613" type="line"/>
    </contour>
  </outline>
</glyph>
<glyph name="H" format="2">
  <advance width="674"/>
  <unicode hex="0048"/>
  <anchor x="308" y="0" name="bottom"/>
  <anchor x="548" y="0" name="bottomright"/>
  <anchor x="348" y="345" name="center"/>
  <anchor x="397" y="689" name="top"/>
  <anchor x="139" y="689" name="topleft"/>
  <outline>
    <contour>
      <point x="62" y="0" type="line"/>
      <point x="156" y="0" type="line"/>
      <point x="201" y="323" type="line"/>
      <point x="489" y="323" type="line"/>
      <point x="444" y="0" type="line"/>
      <point x="538" y="0" type="line"/>
      <point x="635" y="689" type="line"/>
      <point x="541" y="689" type="line"/>
      <point x="500" y="401" type="line"/>
      <point x="212" y="401" type="line"/>
      <point x="253" y="689" type="line"/>
      <point x="159" y="689" type="line"/>
    </contour>
  </outline>
</glyph>
<glyph name="I" format="2">
  <advance width="292"/>
  <unicode hex="0049"/>
  <anchor x="108" y="0" name="bottom"/>
  <anchor x="144" y="0" name="ogonek"/>
  <anchor x="206" y="689" name="top"/>
  <anchor x="139" y="689" name="topleft"/>
  <outline>
    <contour>
      <point x="253" y="689" type="line"/>
      <point x="159" y="689" type="line"/>
      <point x="62" y="0" type="line"/>
      <point x="156" y="0" type="line"/>
    </contour>
  </outline>
</glyph>
<glyph name="K" format="2">
  <advance width="583"/>
  <unicode hex="004B"/>
  <anchor x="275" y="0" name="bottom"/>
  <anchor x="385" y="689" name="top"/>
  <outline>
    <contour>
      <point x="434" y="0" type="line"/>
      <point x="546" y="0" type="line"/>
      <point x="319" y="365" type="line"/>
      <point x="626" y="689" type="line"/>
      <point x="515" y="689" type="line"/>
      <point x="213" y="368" type="line"/>
    </contour>
    <contour>
      <point x="62" y="0" type="line"/>
      <point x="157" y="0" type="line"/>
      <point x="254" y="689" type="line"/>
      <point x="159" y="689" type="line"/>
    </contour>
  </outline>
</glyph>
<glyph name="L" format="2">
  <advance width="492"/>
  <unicode hex="004C"/>
  <anchor x="244" y="0" name="bottom"/>
  <anchor x="404" y="390" name="center"/>
  <anchor x="206" y="689" name="top"/>
  <anchor x="278" y="689" name="topright"/>
  <outline>
    <contour>
      <point x="253" y="689" type="line"/>
      <point x="159" y="689" type="line"/>
      <point x="62" y="0" type="line"/>
      <point x="426" y="0" type="line"/>
      <point x="448" y="83" type="line"/>
      <point x="168" y="83" type="line"/>
    </contour>
  </outline>
</glyph>
<glyph name="M" format="2">
  <advance width="772"/>
  <unicode hex="004D"/>
  <anchor x="358" y="0" name="bottom"/>
  <anchor x="683" y="0" name="bottomright"/>
  <anchor x="439" y="689" name="top"/>
  <outline>
    <contour>
      <point x="713" y="689" type="line"/>
      <point x="580" y="689" type="line"/>
      <point x="376" y="190" type="line"/>
      <point x="298" y="689" type="line"/>
      <point x="179" y="689" type="line"/>
      <point x="25" y="0" type="line"/>
      <point x="115" y="0" type="line"/>
      <point x="179" y="301" type="line" smooth="yes"/>
      <point x="201" y="402"/>
      <point x="223" y="514"/>
      <point x="232" y="590" type="curve"/>
      <point x="315" y="78" type="line"/>
      <point x="405" y="78" type="line"/>
      <point x="623" y="591" type="line"/>
      <point x="616" y="528"/>
      <point x="608" y="422"/>
      <point x="602" y="314" type="curve" smooth="yes"/>
      <point x="582" y="0" type="line"/>
      <point x="673" y="0" type="line"/>
    </contour>
  </outline>
</glyph>
<glyph name="N" format="2">
  <advance width="677"/>
  <unicode hex="004E"/>
  <anchor x="303" y="0" name="bottom"/>
  <anchor x="410" y="689" name="top"/>
  <outline>
    <contour>
      <point x="638" y="689" type="line"/>
      <point x="549" y="689" type="line"/>
      <point x="496" y="316" type="line" smooth="yes"/>
      <point x="485" y="232"/>
      <point x="481" y="172"/>
      <point x="481" y="81" type="curve"/>
      <point x="283" y="689" type="line"/>
      <point x="159" y="689" type="line"/>
      <point x="62" y="0" type="line"/>
      <point x="151" y="0" type="line"/>
      <point x="195" y="313" type="line" smooth="yes"/>
      <point x="213" y="441"/>
      <point x="220" y="523"/>
      <point x="221" y="607" type="curve"/>
      <point x="418" y="0" type="line"/>
      <point x="541" y="0" type="line"/>
    </contour>
  </outline>
</glyph>
<glyph name="O" format="2">
  <advance width="686"/>
  <unicode hex="004F"/>
  <anchor x="303" y="0" name="bottom"/>
  <anchor x="407" y="689" name="top"/>
  <anchor x="169" y="689" name="topleft"/>
  <anchor x="603" y="689" name="topright"/>
  <outline>
    <contour>
      <point x="402" y="701" type="curve" smooth="yes"/>
      <point x="147" y="701"/>
      <point x="61" y="441"/>
      <point x="61" y="265" type="curve" smooth="yes"/>
      <point x="61" y="85"/>
      <point x="158" y="-12"/>
      <point x="308" y="-12" type="curve" smooth="yes"/>
      <point x="562" y="-12"/>
      <point x="648" y="239"/>
      <point x="648" y="421" type="curve" smooth="yes"/>
      <point x="648" y="603"/>
      <point x="552" y="701"/>
    </contour>
    <contour>
      <point x="398" y="623" type="curve" smooth="yes"/>
      <point x="494" y="623"/>
      <point x="550" y="566"/>
      <point x="550" y="428" type="curve" smooth="yes"/>
      <point x="550" y="288"/>
      <point x="500" y="66"/>
      <point x="311" y="66" type="curve" smooth="yes"/>
      <point x="219" y="66"/>
      <point x="159" y="120"/>
      <point x="159" y="262" type="curve" smooth="yes"/>
      <point x="159" y="403"/>
      <point x="211" y="623"/>
    </contour>
  </outline>
</glyph>
<glyph name="S" format="2">
  <advance width="539"/>
  <unicode hex="0053"/>
  <anchor x="227" y="0" name="bottom"/>
  <anchor x="333" y="689" name="top"/>
  <outline>
    <contour>
      <point x="324" y="701" type="curve" smooth="yes"/>
      <point x="169" y="701"/>
      <point x="87" y="597"/>
      <point x="87" y="506" type="curve" smooth="yes"/>
      <point x="87" y="408"/>
      <point x="150" y="365"/>
      <point x="267" y="324" type="curve" smooth="yes"/>
      <point x="362" y="291"/>
      <point x="394" y="264"/>
      <point x="394" y="204" type="curve" smooth="yes"/>
      <point x="394" y="119"/>
      <point x="326" y="66"/>
      <point x="224" y="66" type="curve" smooth="yes"/>
      <point x="151" y="66"/>
      <point x="100" y="91"/>
      <point x="59" y="136" type="curve"/>
      <point x="-1" y="80" type="line"/>
      <point x="48" y="24"/>
      <point x="121" y="-12"/>
      <point x="222" y="-12" type="curve" smooth="yes"/>
      <point x="411" y="-12"/>
      <point x="492" y="103"/>
      <point x="492" y="209" type="curve" smooth="yes"/>
      <point x="492" y="327"/>
      <point x="408" y="368"/>
      <point x="312" y="398" type="curve" smooth="yes"/>
      <point x="211" y="432"/>
      <point x="183" y="459"/>
      <point x="183" y="511" type="curve" smooth="yes"/>
      <point x="183" y="583"/>
      <point x="246" y="623"/>
      <point x="324" y="623" type="curve" smooth="yes"/>
      <point x="379" y="623"/>
      <point x="424" y="607"/>
      <point x="468" y="563" type="curve"/>
      <point x="527" y="618" type="line"/>
      <point x="476" y="671"/>
      <point x="414" y="701"/>
    </contour>
  </outline>
</glyph>
<glyph name="T" format="2">
  <advance width="511"/>
  <unicode hex="0054"/>
  <anchor x="219" y="0" name="bottom"/>
  <anchor x="275" y="0" name="bottomright"/>
  <anchor x="267" y="345" name="center"/>
  <anchor x="314" y="689" name="top"/>
  <outline>
    <contour>
      <point x="562" y="689" type="line"/>
      <point x="74" y="689" type="line"/>
      <point x="62" y="608" type="line"/>
      <point x="256" y="608" type="line"/>
      <point x="171" y="0" type="line"/>
      <point x="265" y="0" type="line"/>
      <point x="350" y="608" type="line"/>
      <point x="540" y="608" type="line"/>
    </contour>
  </outline>
</glyph>
<glyph name="V" format="2">
  <advance width="550.167"/>
  <unicode hex="0056"/>
  <anchor x="238.051" y="0" name="bottom"/>
  <anchor x="334.884" y="689" name="top"/>
  <outline>
    <contour>
      <point x="604" y="689" type="line"/>
      <point x="506" y="689" type="line"/>
      <point x="251" y="103" type="line"/>
      <point x="163" y="689" type="line"/>
      <point x="65" y="689" type="line"/>
      <point x="188" y="0" type="line"/>
      <point x="289" y="0" type="line"/>
    </contour>
  </outline>
</glyph>
<glyph name="X" format="2">
  <advance width="534"/>
  <unicode hex="0058"/>
  <anchor x="229.967" y="0" name="bottom"/>
  <anchor x="454" y="0" name="bottomright"/>
  <anchor x="326.8" y="689" name="top"/>
  <outline>
    <contour>
      <point x="186" y="689" type="line"/>
      <point x="83" y="689" type="line"/>
      <point x="226" y="367" type="line"/>
      <point x="276" y="305" type="line"/>
      <point x="389" y="0" type="line"/>
      <point x="492" y="0" type="line"/>
      <point x="335" y="372" type="line"/>
      <point x="285" y="430" type="line"/>
    </contour>
    <contour>
      <point x="567" y="689" type="line"/>
      <point x="463" y="689" type="line"/>
      <point x="285" y="430" type="line"/>
      <point x="223" y="367" type="line"/>
      <point x="-33" y="0" type="line"/>
      <point x="72" y="0" type="line"/>
      <point x="276" y="305" type="line"/>
      <point x="338" y="372" type="line"/>
    </contour>
  </outline>
</glyph>
<glyph name="Y" format="2">
  <advance width="544"/>
  <unicode hex="0059"/>
  <anchor x="235" y="0" name="bottom"/>
  <anchor x="335" y="689" name="top"/>
  <anchor x="66" y="689" name="topleft"/>
  <outline>
    <contour>
      <point x="600" y="689" type="line"/>
      <point x="497" y="689" type="line"/>
      <point x="282" y="348" type="line"/>
      <point x="164" y="689" type="line"/>
      <point x="65" y="689" type="line"/>
      <point x="225" y="264" type="line"/>
      <point x="187" y="0" type="line"/>
      <point x="283" y="0" type="line"/>
      <point x="320" y="265" type="line"/>
    </contour>
  </outline>
</glyph>
<glyph name="Z" format="2">
  <advance width="516"/>
  <unicode hex="005A"/>
  <anchor x="208" y="0" name="bottom"/>
  <anchor x="329" y="689" name="top"/>
  <outline>
    <contour>
      <point x="-8" y="0" type="line"/>
      <point x="424" y="0" type="line"/>
      <point x="446" y="81" type="line"/>
      <point x="111" y="80" type="line"/>
      <point x="522" y="612" type="line"/>
      <point x="532" y="689" type="line"/>
      <point x="125" y="689" type="line"/>
      <point x="114" y="609" type="line"/>
      <point x="416" y="609" type="line"/>
      <point x="2" y="76" type="line"/>
    </contour>
  </outline>
</glyph>
<glyph name="asciicircum" format="2">
  <advance width="534"/>
  <unicode hex="005E"/>
  <outline>
    <contour>
      <point x="389" y="840" type="line"/>
      <point x="308" y="840" type="line"/>
      <point x="76" y="527" type="line"/>
      <point x="174" y="527" type="line"/>
      <point x="339" y="760" type="line"/>
      <point x="436" y="527" type="line"/>
      <point x="532" y="527" type="line"/>
    </contour>
  </outline>
</glyph>
<glyph name="a" format="2">
  <advance width="569"/>
  <unicode hex="0061"/>
  <anchor x="276" y="0" name="bottom"/>
  <anchor x="476" y="-12" name="ogonek"/>
  <anchor x="338" y="527" name="top"/>
  <outline>
    <contour>
      <point x="331" y="539" type="curve" smooth="yes"/>
      <point x="126" y="539"/>
      <point x="50" y="334"/>
      <point x="50" y="190" type="curve" smooth="yes"/>
      <point x="50" y="69"/>
      <point x="110" y="-12"/>
      <point x="218" y="-12" type="curve" smooth="yes"/>
      <point x="280" y="-12"/>
      <point x="334" y="23"/>
      <point x="375" y="76" type="curve"/>
      <point x="382" y="19"/>
      <point x="415" y="-5"/>
      <point x="468" y="-12" type="curve"/>
      <point x="494" y="51" type="line"/>
      <point x="461" y="64"/>
      <point x="457" y="83"/>
      <point x="462" y="120" type="curve" smooth="yes"/>
      <point x="516" y="494" type="line"/>
      <point x="456" y="523"/>
      <point x="399" y="539"/>
    </contour>
    <contour>
      <point x="333" y="466" type="curve" smooth="yes"/>
      <point x="368" y="466"/>
      <point x="391" y="461"/>
      <point x="419" y="449" type="curve"/>
      <point x="378" y="158" type="line"/>
      <point x="337" y="103"/>
      <point x="296" y="61"/>
      <point x="237" y="61" type="curve" smooth="yes"/>
      <point x="181" y="61"/>
      <point x="148" y="101"/>
      <point x="148" y="189" type="curve" smooth="yes"/>
      <point x="148" y="307"/>
      <point x="199" y="466"/>
    </contour>
  </outline>
</glyph>
<glyph name="b" format="2">
  <advance width="579"/>
  <unicode hex="0062"/>
  <anchor x="252" y="0" name="bottom"/>
  <anchor x="368" y="739" name="top"/>
  <outline>
    <contour>
      <point x="367" y="539" type="curve" smooth="yes"/>
      <point x="310.267" y="539"/>
      <point x="261.904" y="515.933"/>
      <point x="214.956" y="474.696" type="curve"/>
      <point x="253" y="750" type="line"/>
      <point x="161" y="739" type="line"/>
      <point x="60" y="23" type="line"/>
      <point x="136" y="-2"/>
      <point x="186" y="-12"/>
      <point x="246" y="-12" type="curve" smooth="yes"/>
      <point x="454" y="-12"/>
      <point x="528" y="184"/>
      <point x="528" y="332" type="curve" smooth="yes"/>
      <point x="528" y="465"/>
      <point x="465" y="539"/>
    </contour>
    <contour>
      <point x="341" y="466" type="curve" smooth="yes"/>
      <point x="394" y="466"/>
      <point x="433" y="433"/>
      <point x="433" y="339" type="curve" smooth="yes"/>
      <point x="433" y="221"/>
      <point x="384" y="61"/>
      <point x="253" y="61" type="curve" smooth="yes"/>
      <point x="216" y="61"/>
      <point x="193" y="65"/>
      <point x="160" y="77" type="curve"/>
      <point x="203.315" y="390.455" type="line"/>
      <point x="241.225" y="429.53"/>
      <point x="284.034" y="466"/>
    </contour>
  </outline>
</glyph>
<glyph name="d" format="2">
  <advance width="587"/>
  <unicode hex="0064"/>
  <anchor x="252" y="0" name="bottom"/>
  <anchor x="295" y="264" name="center"/>
  <anchor x="341" y="739" name="top"/>
  <anchor x="570" y="739" name="topright"/>
  <outline>
    <contour>
      <point x="470" y="748" type="line"/>
      <point x="431" y="473" type="line"/>
      <point x="402" y="510"/>
      <point x="358" y="539"/>
      <point x="296" y="539" type="curve" smooth="yes"/>
      <point x="116" y="539"/>
      <point x="51" y="333"/>
      <point x="51" y="197" type="curve" smooth="yes"/>
      <point x="51" y="70"/>
      <point x="109" y="-12"/>
      <point x="218" y="-12" type="curve" smooth="yes"/>
      <point x="286" y="-12"/>
      <point x="340" y="26"/>
      <point x="377" y="87" type="curve"/>
      <point x="376" y="0" type="line"/>
      <point x="456" y="0" type="line"/>
      <point x="560" y="738" type="line"/>
    </contour>
    <contour>
      <point x="313" y="466" type="curve" smooth="yes"/>
      <point x="362" y="466"/>
      <point x="395" y="443"/>
      <point x="422" y="402" type="curve"/>
      <point x="391" y="183" type="line"/>
      <point x="344" y="109"/>
      <point x="301" y="61"/>
      <point x="236" y="61" type="curve" smooth="yes"/>
      <point x="181" y="61"/>
      <point x="148" y="101"/>
      <point x="148" y="190" type="curve" smooth="yes"/>
      <point x="148" y="295"/>
      <point x="185" y="466"/>
    </contour>
  </outline>
</glyph>
<glyph name="l" format="2">
  <advance width="288"/>
  <unicode hex="006C"/>
  <anchor x="159" y="0" name="bottom"/>
  <anchor x="311" y="380" name="center"/>
  <anchor x="202" y="739" name="top"/>
  <anchor x="257" y="739" name="topright"/>
  <outline>
    <contour>
      <point x="249" y="750" type="line"/>
      <point x="157" y="739" type="line"/>
      <point x="69" y="118" type="line" smooth="yes"/>
      <point x="57" y="31"/>
      <point x="94" y="-12"/>
      <point x="164" y="-12" type="curve" smooth="yes"/>
      <point x="187" y="-12"/>
      <point x="210" y="-7"/>
      <point x="237" y="5" type="curve"/>
      <point x="218" y="72" type="line"/>
      <point x="206" y="67"/>
      <point x="194" y="64"/>
      <point x="182" y="64" type="curve" smooth="yes"/>
      <point x="160" y="64"/>
      <point x="155" y="75"/>
      <point x="158" y="103" type="curve" smooth="yes"/>
    </contour>
  </outline>
</glyph>
<glyph name="n" format="2">
  <advance width="580"/>
  <unicode hex="006E"/>
  <anchor x="256" y="0" name="bottom"/>
  <anchor x="327" y="527" name="top"/>
  <anchor x="121" y="527" name="topleft"/>
  <outline>
    <contour>
      <point x="384" y="539" type="curve" smooth="yes"/>
      <point x="308" y="539"/>
      <point x="250" y="493"/>
      <point x="201" y="424" type="curve"/>
      <point x="209" y="527" type="line"/>
      <point x="131" y="527" type="line"/>
      <point x="57" y="0" type="line"/>
      <point x="148" y="0" type="line"/>
      <point x="192" y="316" type="line"/>
      <point x="234" y="391"/>
      <point x="292" y="462"/>
      <point x="359" y="462" type="curve" smooth="yes"/>
      <point x="399" y="462"/>
      <point x="425" y="442"/>
      <point x="415" y="368" type="curve" smooth="yes"/>
      <point x="363" y="0" type="line"/>
      <point x="454" y="0" type="line"/>
      <point x="506" y="370" type="line" smooth="yes"/>
      <point x="521" y="475"/>
      <point x="472" y="539"/>
    </contour>
  </outline>
</glyph>
<glyph name="p" format="2">
  <advance width="579"/>
  <unicode hex="0070"/>
  <anchor x="227" y="-202" name="bottom"/>
  <anchor x="331" y="527" name="top"/>
  <outline>
    <contour>
      <point x="27" y="-216" type="line"/>
      <point x="118" y="-204" type="line"/>
      <point x="148" y="5" type="line"/>
      <point x="181" y="-6"/>
      <point x="212" y="-12"/>
      <point x="248" y="-12" type="curve" smooth="yes"/>
      <point x="454" y="-12"/>
      <point x="528" y="184"/>
      <point x="528" y="332" type="curve" smooth="yes"/>
      <point x="528" y="465"/>
      <point x="465" y="539"/>
      <point x="367" y="539" type="curve"/>
      <point x="313" y="539"/>
      <point x="262" y="521"/>
      <point x="207" y="461" type="curve"/>
      <point x="209" y="527" type="line"/>
      <point x="131" y="527" type="line"/>
    </contour>
    <contour>
      <point x="253" y="61" type="curve" smooth="yes"/>
      <point x="216" y="61"/>
      <point x="193" y="65"/>
      <point x="160" y="77" type="curve"/>
      <point x="203" y="390" type="line"/>
      <point x="241" y="430"/>
      <point x="284" y="466"/>
      <point x="341" y="466" type="curve"/>
      <point x="394" y="466"/>
      <point x="433" y="433"/>
      <point x="433" y="339" type="curve" smooth="yes"/>
      <point x="433" y="221"/>
      <point x="384" y="61"/>
    </contour>
  </outline>
</glyph>
<glyph name="q" format="2">
  <advance width="576"/>
  <unicode hex="0071"/>
  <anchor x="205" y="-202" name="bottom"/>
  <anchor x="330" y="527" name="top"/>
  <outline>
    <contour>
      <point x="331" y="539" type="curve"/>
      <point x="126" y="539"/>
      <point x="50" y="334"/>
      <point x="50" y="190" type="curve" smooth="yes"/>
      <point x="50" y="69"/>
      <point x="111" y="-12"/>
      <point x="218" y="-12" type="curve" smooth="yes"/>
      <point x="280" y="-12"/>
      <point x="334" y="23"/>
      <point x="366" y="64" type="curve"/>
      <point x="327" y="-216" type="line"/>
      <point x="418" y="-204" type="line"/>
      <point x="519" y="494" type="line"/>
      <point x="449" y="528"/>
      <point x="394" y="539"/>
    </contour>
    <contour>
      <point x="333" y="466" type="curve"/>
      <point x="368" y="466"/>
      <point x="391" y="461"/>
      <point x="420" y="449" type="curve"/>
      <point x="378" y="158" type="line"/>
      <point x="337" y="103"/>
      <point x="296" y="61"/>
      <point x="237" y="61" type="curve" smooth="yes"/>
      <point x="181" y="61"/>
      <point x="148" y="101"/>
      <point x="148" y="189" type="curve" smooth="yes"/>
      <point x="148" y="307"/>
      <point x="199" y="466"/>
    </contour>
  </outline>
</glyph>
<glyph name="r" format="2">
  <advance width="381"/>
  <unicode hex="0072"/>
  <anchor x="103" y="0" name="bottom"/>
  <anchor x="273" y="527" name="top"/>
  <outline>
    <contour>
      <point x="356" y="539" type="curve" smooth="yes"/>
      <point x="297.603" y="539"/>
      <point x="243.369" y="500.701"/>
      <point x="203.173" y="418.786" type="curve"/>
      <point x="209" y="527" type="line"/>
      <point x="131" y="527" type="line"/>
      <point x="57" y="0" type="line"/>
      <point x="148" y="0" type="line"/>
      <point x="187.782" y="279.399" type="line"/>
      <point x="224.704" y="385.959"/>
      <point x="271.217" y="448"/>
      <point x="339" y="448" type="curve" smooth="yes"/>
      <point x="356" y="448"/>
      <point x="367" y="447"/>
      <point x="382" y="443" type="curve"/>
      <point x="409" y="532" type="line"/>
      <point x="393" y="536"/>
      <point x="375" y="539"/>
    </contour>
  </outline>
</glyph>
<glyph name="t" format="2">
  <advance width="355"/>
  <unicode hex="0074"/>
  <anchor x="204" y="0" name="bottom"/>
  <anchor x="177" y="264" name="center"/>
  <anchor x="208" y="649" name="top"/>
  <anchor x="277" y="745" name="topright"/>
  <outline>
    <contour>
      <point x="245" y="657" type="line"/>
      <point x="173" y="649" type="line"/>
      <point x="132" y="497" type="line"/>
      <point x="82" y="141" type="line" smooth="yes"/>
      <point x="68" y="43"/>
      <point x="116" y="-12"/>
      <point x="207" y="-12" type="curve" smooth="yes"/>
      <point x="247" y="-12"/>
      <point x="286" y="-1"/>
      <point x="324" y="23" type="curve"/>
      <point x="294" y="87" type="line"/>
      <point x="266" y="73"/>
      <point x="244" y="65"/>
      <point x="218" y="65" type="curve" smooth="yes"/>
      <point x="179" y="65"/>
      <point x="165" y="86"/>
      <point x="173" y="139" type="curve" smooth="yes"/>
    </contour>
    <contour>
      <point x="351" y="527" type="line"/>
      <point x="45" y="527" type="line"/>
      <point x="35" y="456" type="line"/>
      <point x="331" y="456" type="line"/>
    </contour>
  </outline>
</glyph>
<glyph name="u" format="2">
  <advance width="576"/>
  <unicode hex="0075"/>
  <anchor x="251" y="0" name="bottom"/>
  <anchor x="455" y="0" name="bottomright"/>
  <anchor x="454" y="0" name="ogonek"/>
  <anchor x="323" y="527" name="top"/>
  <anchor x="529" y="527" name="topright"/>
  <outline>
    <contour>
      <point x="200" y="-12" type="curve" smooth="yes"/>
      <point x="273.19" y="-12"/>
      <point x="325.153" y="30.457"/>
      <point x="374.33" y="96.925" type="curve"/>
      <point x="367" y="0" type="line"/>
      <point x="445" y="0" type="line"/>
      <point x="519" y="527" type="line"/>
      <point x="428" y="527" type="line"/>
      <point x="380.121" y="184.48" type="line"/>
      <point x="339.214" y="123.289"/>
      <point x="286.109" y="60"/>
      <point x="220" y="60" type="curve" smooth="yes"/>
      <point x="173" y="60"/>
      <point x="155" y="84"/>
      <point x="165" y="156" type="curve" smooth="yes"/>
      <point x="217" y="527" type="line"/>
      <point x="126" y="527" type="line"/>
      <point x="73" y="152" type="line" smooth="yes"/>
      <point x="59" y="49"/>
      <point x="106" y="-12"/>
    </contour>
  </outline>
</glyph>
<glyph name="v" format="2">
  <advance width="486"/>
  <unicode hex="0076"/>
  <anchor x="208" y="0" name="bottom"/>
  <anchor x="280" y="527" name="top"/>
  <outline>
    <contour>
      <point x="514" y="527" type="line"/>
      <point x="414" y="527" type="line"/>
      <point x="218" y="83" type="line"/>
      <point x="146" y="527" type="line"/>
      <point x="47" y="527" type="line"/>
      <point x="153" y="0" type="line"/>
      <point x="262" y="0" type="line"/>
    </contour>
  </outline>
</glyph>
<glyph name="w" format="2">
  <advance width="711"/>
  <unicode hex="0077"/>
  <anchor x="318" y="0" name="bottom"/>
  <anchor x="393" y="527" name="top"/>
  <outline>
    <contour>
      <point x="728" y="527" type="line"/>
      <point x="640" y="527" type="line"/>
      <point x="480" y="64" type="line"/>
      <point x="447" y="527" type="line"/>
      <point x="344" y="527" type="line"/>
      <point x="177" y="64" type="line"/>
      <point x="148" y="527" type="line"/>
      <point x="58" y="527" type="line"/>
      <point x="106" y="0" type="line"/>
      <point x="227" y="0" type="line"/>
      <point x="384" y="444" type="line"/>
      <point x="412" y="0" type="line"/>
      <point x="537" y="0" type="line"/>
    </contour>
  </outline>
</glyph>
<glyph name="z" format="2">
  <advance width="431"/>
  <unicode hex="007A"/>
  <anchor x="171" y="0" name="bottom"/>
  <anchor x="260" y="527" name="top"/>
  <outline>
    <contour>
      <point x="436" y="527" type="line"/>
      <point x="84" y="527" type="line"/>
      <point x="73" y="449" type="line"/>
      <point x="313" y="449" type="line"/>
      <point x="-4" y="69" type="line"/>
      <point x="-13" y="0" type="line"/>
      <point x="355" y="0" type="line"/>
      <point x="376" y="77" type="line"/>
      <point x="109" y="77" type="line"/>
      <point x="427" y="457" type="line"/>
    </contour>
  </outline>
</glyph>
<glyph name="sterling" format="2">
  <advance width="519"/>
  <unicode hex="00A3"/>
  <outline>
    <contour>
      <point x="202" y="201" type="curve"/>
      <point x="243" y="491" type="line"/>
      <point x="253" y="563"/>
      <point x="298" y="604"/>
      <point x="364" y="604" type="curve" smooth="yes"/>
      <point x="411" y="604"/>
      <point x="441" y="589"/>
      <point x="468" y="551" type="curve"/>
      <point x="530" y="594" type="line"/>
      <point x="490" y="651"/>
      <point x="436" y="679"/>
      <point x="361" y="679" type="curve" smooth="yes"/>
      <point x="243" y="679"/>
      <point x="169" y="603"/>
      <point x="153" y="496" type="curve"/>
      <point x="112" y="208" type="line"/>
      <point x="101" y="126"/>
      <point x="82" y="99"/>
      <point x="10" y="74" type="curve"/>
      <point x="2" y="0" type="line"/>
      <point x="419" y="0" type="line"/>
      <point x="441" y="76" type="line"/>
      <point x="126" y="76" type="line"/>
      <point x="177" y="103"/>
      <point x="193" y="136"/>
    </contour>
    <contour>
      <point x="63" y="322" type="line"/>
      <point x="424" y="322" type="line"/>
      <point x="433" y="382" type="line"/>
      <point x="72" y="382" type="line"/>
    </contour>
  </outline>
</glyph>
<glyph name="section" format="2">
  <advance width="527"/>
  <unicode hex="00A7"/>
  <outline>
    <contour>
      <point x="325" y="677" type="curve" smooth="yes"/>
      <point x="221" y="677"/>
      <point x="130" y="625"/>
      <point x="130" y="525" type="curve" smooth="yes"/>
      <point x="130" y="454"/>
      <point x="186" y="412"/>
      <point x="284" y="378" type="curve" smooth="yes"/>
      <point x="357" y="353"/>
      <point x="375" y="329"/>
      <point x="375" y="293" type="curve" smooth="yes"/>
      <point x="375" y="257"/>
      <point x="357" y="232"/>
      <point x="306" y="196" type="curve"/>
      <point x="358" y="164" type="line"/>
      <point x="428" y="202"/>
      <point x="463" y="245"/>
      <point x="463" y="306" type="curve" smooth="yes"/>
      <point x="463" y="367"/>
      <point x="419" y="411"/>
      <point x="325" y="443" type="curve" smooth="yes"/>
      <point x="243" y="471"/>
      <point x="220" y="492"/>
      <point x="220" y="533" type="curve" smooth="yes"/>
      <point x="220" y="572"/>
      <point x="245" y="606"/>
      <point x="325" y="606" type="curve" smooth="yes"/>
      <point x="377" y="606"/>
      <point x="415" y="593"/>
      <point x="457" y="566" type="curve"/>
      <point x="497" y="621" type="line"/>
      <point x="455" y="653"/>
      <point x="401" y="677"/>
    </contour>
    <contour>
      <point x="190" y="444" type="line"/>
      <point x="112" y="409"/>
      <point x="75" y="359"/>
      <point x="75" y="297" type="curve" smooth="yes"/>
      <point x="75" y="233"/>
      <point x="113" y="195"/>
      <point x="212" y="162" type="curve" smooth="yes"/>
      <point x="296" y="134"/>
      <point x="319" y="119"/>
      <point x="319" y="75" type="curve" smooth="yes"/>
      <point x="319" y="36"/>
      <point x="293" y="1"/>
      <point x="209" y="1" type="curve" smooth="yes"/>
      <point x="162" y="1"/>
      <point x="118" y="12"/>
      <point x="78" y="40" type="curve"/>
      <point x="38" y="-20" type="line"/>
      <point x="79" y="-49"/>
      <point x="136" y="-71"/>
      <point x="204" y="-71" type="curve" smooth="yes"/>
      <point x="352" y="-71"/>
      <point x="410" y="7"/>
      <point x="410" y="79" type="curve" smooth="yes"/>
      <point x="410" y="159"/>
      <point x="353" y="195"/>
      <point x="242" y="230" type="curve" smooth="yes"/>
      <point x="181" y="249"/>
      <point x="165" y="272"/>
      <point x="165" y="309" type="curve" smooth="yes"/>
      <point x="165" y="347"/>
      <point x="178" y="373"/>
      <point x="231" y="410" type="curve"/>
    </contour>
  </outline>
</glyph>
<glyph name="copyright" format="2">
  <advance width="810"/>
  <unicode hex="00A9"/>
  <outline>
    <contour>
      <point x="430" y="748" type="curve" smooth="yes"/>
      <point x="256" y="748"/>
      <point x="116" y="618"/>
      <point x="116" y="434" type="curve" smooth="yes"/>
      <point x="116" y="251"/>
      <point x="256" y="121"/>
      <point x="430" y="121" type="curve" smooth="yes"/>
      <point x="603" y="121"/>
      <point x="742" y="251"/>
      <point x="742" y="434" type="curve" smooth="yes"/>
      <point x="742" y="618"/>
      <point x="603" y="748"/>
    </contour>
    <contour>
      <point x="432" y="625" type="curve" smooth="yes"/>
      <point x="344" y="625"/>
      <point x="269" y="559"/>
      <point x="269" y="435" type="curve" smooth="yes"/>
      <point x="269" y="312"/>
      <point x="337" y="245"/>
      <point x="433" y="245" type="curve" smooth="yes"/>
      <point x="488" y="245"/>
      <point x="524" y="266"/>
      <point x="552" y="291" type="curve"/>
      <point x="520" y="339" type="line"/>
      <point x="495" y="320"/>
      <point x="471" y="308"/>
      <point x="436" y="308" type="curve" smooth="yes"/>
      <point x="382" y="308"/>
      <point x="345" y="348"/>
      <point x="345" y="435" type="curve" smooth="yes"/>
      <point x="345" y="528"/>
      <point x="385" y="565"/>
      <point x="436" y="565" type="curve" smooth="yes"/>
      <point x="464" y="565"/>
      <point x="489" y="556"/>
      <point x="514" y="538" type="curve"/>
      <point x="549" y="585" type="line"/>
      <point x="516" y="610"/>
      <point x="483" y="625"/>
    </contour>
    <contour>
      <point x="430" y="696" type="curve" smooth="yes"/>
      <point x="574" y="696"/>
      <point x="682" y="589"/>
      <point x="682" y="434" type="curve" smooth="yes"/>
      <point x="682" y="280"/>
      <point x="574" y="174"/>
      <point x="430" y="174" type="curve" smooth="yes"/>
      <point x="285" y="174"/>
      <point x="177" y="280"/>
      <point x="177" y="434" type="curve" smooth="yes"/>
      <point x="177" y="589"/>
      <point x="285" y="696"/>
    </contour>
  </outline>
</glyph>
<glyph name="logicalnot" format="2">
  <advance width="494"/>
  <unicode hex="00AC"/>
  <outline>
    <contour>
      <point x="447" y="361" type="line"/>
      <point x="75" y="361" type="line"/>
      <point x="64" y="284" type="line"/>
      <point x="349" y="284" type="line"/>
      <point x="329" y="141" type="line"/>
      <point x="416" y="141" type="line"/>
    </contour>
  </outline>
</glyph>
<glyph name="registered" format="2">
  <advance width="641"/>
  <unicode hex="00AE"/>
  <outline>
    <contour>
      <point x="352" y="750" type="curve" smooth="yes"/>
      <point x="211" y="750"/>
      <point x="100" y="635"/>
      <point x="100" y="493" type="curve" smooth="yes"/>
      <point x="100" y="351"/>
      <point x="211" y="238"/>
      <point x="352" y="238" type="curve" smooth="yes"/>
      <point x="497" y="238"/>
      <point x="607" y="351"/>
      <point x="607" y="493" type="curve" smooth="yes"/>
      <point x="607" y="635"/>
      <point x="497" y="750"/>
    </contour>
    <contour>
      <point x="388" y="486" type="line"/>
      <point x="336" y="476" type="line"/>
      <point x="403" y="359" type="line"/>
      <point x="470" y="359" type="line"/>
    </contour>
    <contour>
      <point x="352" y="701" type="curve" smooth="yes"/>
      <point x="470" y="701"/>
      <point x="552" y="613"/>
      <point x="552" y="493" type="curve" smooth="yes"/>
      <point x="552" y="373"/>
      <point x="470" y="287"/>
      <point x="352" y="287" type="curve" smooth="yes"/>
      <point x="238" y="287"/>
      <point x="155" y="373"/>
      <point x="155" y="493" type="curve" smooth="yes"/>
      <point x="155" y="613"/>
      <point x="238" y="701"/>
    </contour>
    <contour>
      <point x="339" y="635" type="curve" smooth="yes"/>
      <point x="261" y="635" type="line"/>
      <point x="261" y="359" type="line"/>
      <point x="318" y="359" type="line"/>
      <point x="318" y="591" type="line"/>
      <point x="346" y="591" type="line" smooth="yes"/>
      <point x="384" y="591"/>
      <point x="402" y="579"/>
      <point x="402" y="551" type="curve" smooth="yes"/>
      <point x="402" y="521"/>
      <point x="381" y="509"/>
      <point x="348" y="509" type="curve" smooth="yes"/>
      <point x="307" y="509" type="line"/>
      <point x="307" y="465" type="line"/>
      <point x="354" y="465" type="line"/>
      <point x="382" y="471" type="line"/>
      <point x="426" y="479"/>
      <point x="461" y="506"/>
      <point x="461" y="551" type="curve" smooth="yes"/>
      <point x="461" y="607"/>
      <point x="421" y="635"/>
    </contour>
  </outline>
</glyph>
<glyph name="degree" format="2">
  <advance width="517"/>
  <unicode hex="00B0"/>
  <outline>
    <contour>
      <point x="235" y="381" type="curve"/>
      <point x="337" y="381"/>
      <point x="414" y="461"/>
      <point x="414" y="563" type="curve" smooth="yes"/>
      <point x="414" y="651"/>
      <point x="353" y="701"/>
      <point x="271" y="701" type="curve"/>
      <point x="169" y="701"/>
      <point x="92" y="621"/>
      <point x="92" y="519" type="curve" smooth="yes"/>
      <point x="92" y="431"/>
      <point x="153" y="381"/>
    </contour>
    <contour>
      <point x="237" y="444" type="curve"/>
      <point x="194" y="444"/>
      <point x="167" y="467"/>
      <point x="167" y="518" type="curve" smooth="yes"/>
      <point x="167" y="588"/>
      <point x="205" y="638"/>
      <point x="269" y="638" type="curve"/>
      <point x="312" y="638"/>
      <point x="339" y="615"/>
      <point x="339" y="564" type="curve" smooth="yes"/>
      <point x="339" y="494"/>
      <point x="301" y="444"/>
    </contour>
  </outline>
</glyph>
<glyph name="paragraph" format="2">
  <advance width="728"/>
  <unicode hex="00B6"/>
  <outline>
    <contour>
      <point x="649" y="689" type="line"/>
      <point x="391" y="689" type="line"/>
      <point x="364" y="642" type="line"/>
      <point x="244" y="-215" type="line"/>
      <point x="326" y="-202" type="line"/>
      <point x="439" y="615" type="line"/>
      <point x="558" y="615" type="line"/>
      <point x="442" y="-215" type="line"/>
      <point x="524" y="-202" type="line"/>
    </contour>
    <contour>
      <point x="391" y="689" type="line"/>
      <point x="231" y="689"/>
      <point x="118" y="604"/>
      <point x="118" y="454" type="curve" smooth="yes"/>
      <point x="118" y="354"/>
      <point x="185" y="282"/>
      <point x="338" y="282" type="curve"/>
    </contour>
  </outline>
</glyph>
<glyph name="ordmasculine" format="2">
  <advance width="494"/>
  <unicode hex="00BA"/>
  <outline>
    <contour>
      <point x="304" y="689" type="curve" smooth="yes"/>
      <point x="169" y="689"/>
      <point x="83" y="582"/>
      <point x="83" y="441" type="curve" smooth="yes"/>
      <point x="83" y="336"/>
      <point x="142" y="271"/>
      <point x="252" y="271" type="curve" smooth="yes"/>
      <point x="387" y="271"/>
      <point x="472" y="378"/>
      <point x="472" y="519" type="curve" smooth="yes"/>
      <point x="472" y="624"/>
      <point x="413" y="689"/>
    </contour>
    <contour>
      <point x="302" y="620" type="curve" smooth="yes"/>
      <point x="353" y="620"/>
      <point x="379" y="589"/>
      <point x="379" y="525" type="curve" smooth="yes"/>
      <point x="379" y="431"/>
      <point x="344" y="340"/>
      <point x="254" y="340" type="curve" smooth="yes"/>
      <point x="203" y="340"/>
      <point x="176" y="372"/>
      <point x="176" y="436" type="curve" smooth="yes"/>
      <point x="176" y="530"/>
      <point x="211" y="620"/>
    </contour>
    <component base="minus" xOffset="-41" yOffset="-294"/>
  </outline>
</glyph>
<glyph name="Eth" format="2">
  <advance width="649"/>
  <unicode hex="00D0"/>
  <anchor x="261" y="0" name="bottom"/>
  <anchor x="341" y="345" name="center"/>
  <anchor x="370" y="689" name="top"/>
  <outline>
    <contour>
      <point x="378" y="388" type="line"/>
      <point x="129" y="388" type="line"/>
      <point x="38" y="388" type="line"/>
      <point x="29" y="318" type="line"/>
      <point x="369" y="318" type="line"/>
    </contour>
    <component base="D" xOffset="10"/>
  </outline>
</glyph>
<glyph name="multiply" format="2">
  <advance width="495"/>
  <unicode hex="00D7"/>
  <outline>
    <contour>
      <point x="397" y="486" type="line"/>
      <point x="258" y="362" type="line"/>
      <point x="156" y="486" type="line"/>
      <point x="93" y="431" type="line"/>
      <point x="197" y="306" type="line"/>
      <point x="61" y="186" type="line"/>
      <point x="111" y="129" type="line"/>
      <point x="250" y="252" type="line"/>
      <point x="352" y="129" type="line"/>
      <point x="415" y="184" type="line"/>
      <point x="311" y="308" type="line"/>
      <point x="447" y="429" type="line"/>
    </contour>
  </outline>
</glyph>
<glyph name="Thorn" format="2">
  <advance width="575"/>
  <unicode hex="00DE"/>
  <anchor x="250.467" y="0" name="bottom"/>
  <anchor x="347.3" y="689" name="top"/>
  <outline>
    <contour>
      <point x="319" y="571" type="curve" smooth="yes"/>
      <point x="202" y="571" type="line"/>
      <point x="217" y="497" type="line"/>
      <point x="313" y="497" type="line" smooth="yes"/>
      <point x="403" y="497"/>
      <point x="459" y="470"/>
      <point x="459" y="385" type="curve" smooth="yes"/>
      <point x="459" y="294"/>
      <point x="417" y="202"/>
      <point x="264" y="202" type="curve" smooth="yes"/>
      <point x="168" y="202" type="line"/>
      <point x="158" y="127" type="line"/>
      <point x="262" y="127" type="line" smooth="yes"/>
      <point x="490" y="127"/>
      <point x="559" y="265"/>
      <point x="559" y="385" type="curve" smooth="yes"/>
      <point x="559" y="513"/>
      <point x="469" y="571"/>
    </contour>
    <contour>
      <point x="253" y="689" type="line"/>
      <point x="159" y="689" type="line"/>
      <point x="62" y="0" type="line"/>
      <point x="156" y="0" type="line"/>
    </contour>
  </outline>
</glyph>
<glyph name="ae" format="2">
  <advance width="817"/>
  <unicode hex="00E6"/>
  <anchor x="373" y="0" name="bottom"/>
  <anchor x="455" y="527" name="top"/>
  <outline>
    <contour>
      <point x="285" y="539" type="curve" smooth="yes"/>
      <point x="222" y="539"/>
      <point x="168" y="527"/>
      <point x="114" y="507" type="curve"/>
      <point x="132" y="438" type="line"/>
      <point x="185" y="455"/>
      <point x="220" y="464"/>
      <point x="271" y="464" type="curve" smooth="yes"/>
      <point x="337" y="464"/>
      <point x="382" y="431"/>
      <point x="385" y="384" type="curve"/>
      <point x="381" y="372"/>
      <point x="374" y="352"/>
      <point x="365" y="308" type="curve"/>
      <point x="284" y="308" type="line" smooth="yes"/>
      <point x="91" y="308"/>
      <point x="28" y="220"/>
      <point x="28" y="127" type="curve" smooth="yes"/>
      <point x="28" y="44"/>
      <point x="86" y="-12"/>
      <point x="185" y="-12" type="curve" smooth="yes"/>
      <point x="259" y="-12"/>
      <point x="321" y="12"/>
      <point x="379" y="81" type="curve"/>
      <point x="410" y="22"/>
      <point x="470" y="-12"/>
      <point x="553" y="-12" type="curve" smooth="yes"/>
      <point x="623" y="-12"/>
      <point x="685" y="11"/>
      <point x="742" y="52" type="curve"/>
      <point x="703" y="114" type="line"/>
      <point x="655" y="80"/>
      <point x="611" y="65"/>
      <point x="562" y="65" type="curve" smooth="yes"/>
      <point x="494" y="65"/>
      <point x="444" y="101"/>
      <point x="443" y="200" type="curve"/>
      <point x="629" y="219"/>
      <point x="790" y="255"/>
      <point x="790" y="405" type="curve" smooth="yes"/>
      <point x="790" y="475"/>
      <point x="735" y="539"/>
      <point x="623" y="539" type="curve" smooth="yes"/>
      <point x="541" y="539"/>
      <point x="480" y="502"/>
      <point x="443" y="456" type="curve"/>
      <point x="420" y="506"/>
      <point x="373" y="539"/>
    </contour>
    <contour>
      <point x="356" y="245" type="line"/>
      <point x="354" y="230"/>
      <point x="354" y="167"/>
      <point x="357" y="151" type="curve"/>
      <point x="309" y="87"/>
      <point x="261" y="57"/>
      <point x="201" y="57" type="curve" smooth="yes"/>
      <point x="153" y="57"/>
      <point x="128" y="79"/>
      <point x="128" y="126" type="curve" smooth="yes"/>
      <point x="128" y="213"/>
      <point x="187" y="245"/>
      <point x="292" y="245" type="curve" smooth="yes"/>
    </contour>
    <contour>
      <point x="622" y="466" type="curve" smooth="yes"/>
      <point x="679" y="466"/>
      <point x="694" y="427"/>
      <point x="694" y="402" type="curve" smooth="yes"/>
      <point x="694" y="311"/>
      <point x="602" y="287"/>
      <point x="449" y="270" type="curve"/>
      <point x="464" y="364"/>
      <point x="513" y="466"/>
    </contour>
  </outline>
</glyph>
<glyph name="eth" format="2">
  <advance width="574"/>
  <unicode hex="00F0"/>
  <anchor x="244" y="0" name="bottom"/>
  <anchor x="336" y="739" name="top"/>
  <outline>
    <contour>
      <point x="196" y="749" type="curve"/>
      <point x="171" y="680" type="line"/>
      <point x="221" y="670"/>
      <point x="259" y="658"/>
      <point x="310" y="631" type="curve"/>
      <point x="388" y="570"/>
      <point x="419" y="499"/>
      <point x="422" y="400" type="curve"/>
      <point x="419" y="350" type="line"/>
      <point x="413" y="204"/>
      <point x="365" y="61"/>
      <point x="242" y="61" type="curve" smooth="yes"/>
      <point x="180" y="61"/>
      <point x="142" y="103"/>
      <point x="142" y="188" type="curve" smooth="yes"/>
      <point x="142" y="279"/>
      <point x="172" y="403"/>
      <point x="293" y="403" type="curve" smooth="yes"/>
      <point x="358" y="403"/>
      <point x="399" y="373"/>
      <point x="425" y="313" type="curve"/>
      <point x="432" y="398" type="line"/>
      <point x="402" y="446"/>
      <point x="353" y="475"/>
      <point x="281" y="475" type="curve" smooth="yes"/>
      <point x="118" y="475"/>
      <point x="49" y="311"/>
      <point x="49" y="190" type="curve" smooth="yes"/>
      <point x="49" y="61"/>
      <point x="130" y="-12"/>
      <point x="240" y="-12" type="curve" smooth="yes"/>
      <point x="426" y="-12"/>
      <point x="512" y="161"/>
      <point x="512" y="377" type="curve" smooth="yes"/>
      <point x="512" y="513"/>
      <point x="468" y="612"/>
      <point x="357" y="686" type="curve"/>
      <point x="310" y="719"/>
      <point x="259" y="736"/>
    </contour>
    <contour>
      <point x="418" y="776" type="line"/>
      <point x="310" y="676" type="line"/>
      <point x="298" y="665" type="line"/>
      <point x="192" y="571" type="line"/>
      <point x="252" y="539" type="line"/>
      <point x="353" y="626" type="line"/>
      <point x="362" y="633" type="line"/>
      <point x="466" y="729" type="line"/>
    </contour>
  </outline>
</glyph>
<glyph name="oslash" format="2">
  <advance width="578"/>
  <unicode hex="00F8"/>
  <anchor x="261" y="0" name="bottom"/>
  <anchor x="326" y="527" name="top"/>
  <outline>
    <contour>
      <point x="254" y="-12" type="curve" smooth="yes"/>
      <point x="461" y="-12"/>
      <point x="526" y="194"/>
      <point x="526" y="321" type="curve" smooth="yes"/>
      <point x="526" y="455"/>
      <point x="456" y="539"/>
      <point x="325" y="539" type="curve" smooth="yes"/>
      <point x="119" y="539"/>
      <point x="52" y="336"/>
      <point x="52" y="206" type="curve" smooth="yes"/>
      <point x="52" y="72"/>
      <point x="123" y="-12"/>
    </contour>
    <contour>
      <point x="257" y="62" type="curve" smooth="yes"/>
      <point x="186" y="62"/>
      <point x="148" y="94"/>
      <point x="148" y="196" type="curve" smooth="yes"/>
      <point x="148" y="297"/>
      <point x="185" y="465"/>
      <point x="322" y="465" type="curve" smooth="yes"/>
      <point x="392" y="465"/>
      <point x="430" y="433"/>
      <point x="430" y="331" type="curve" smooth="yes"/>
      <point x="430" y="230"/>
      <point x="394" y="62"/>
    </contour>
    <contour>
      <point x="136" y="27" type="line"/>
      <point x="73" y="-108" type="line"/>
      <point x="146" y="-130" type="line"/>
      <point x="201" y="-7" type="line"/>
      <point x="221" y="53" type="line"/>
      <point x="406" y="446" type="line"/>
      <point x="447" y="508" type="line"/>
      <point x="506" y="634" type="line"/>
      <point x="433" y="656" type="line"/>
      <point x="378" y="534" type="line"/>
      <point x="357" y="472" type="line"/>
      <point x="172" y="77" type="line"/>
    </contour>
  </outline>
</glyph>
<glyph name="thorn" format="2">
  <advance width="584"/>
  <unicode hex="00FE"/>
  <anchor x="358.827" y="739" name="top"/>
  <outline>
    <contour>
      <point x="368" y="539" type="curve" smooth="yes"/>
      <point x="310.128" y="539"/>
      <point x="262.212" y="516.101"/>
      <point x="214.317" y="474.277" type="curve"/>
      <point x="253" y="750" type="line"/>
      <point x="161" y="739" type="line"/>
      <point x="26" y="-217" type="line"/>
      <point x="119" y="-204" type="line"/>
      <point x="148" y="8" type="line"/>
      <point x="179" y="-5"/>
      <point x="211.862" y="-12"/>
      <point x="246" y="-12" type="curve" smooth="yes"/>
      <point x="454" y="-12"/>
      <point x="528" y="184"/>
      <point x="528" y="332" type="curve" smooth="yes"/>
      <point x="528" y="465"/>
      <point x="468" y="539"/>
    </contour>
    <contour>
      <point x="253" y="61" type="curve" smooth="yes"/>
      <point x="216" y="61"/>
      <point x="193" y="66"/>
      <point x="160" y="78" type="curve"/>
      <point x="203" y="390" type="line"/>
      <point x="241" y="430"/>
      <point x="284" y="466"/>
      <point x="339" y="466" type="curve" smooth="yes"/>
      <point x="394" y="466"/>
      <point x="433" y="433"/>
      <point x="433" y="339" type="curve" smooth="yes"/>
      <point x="433" y="221"/>
      <point x="384" y="61"/>
    </contour>
  </outline>
</glyph>
<glyph name="dcroat" format="2">
  <advance width="595"/>
  <unicode hex="0111"/>
  <anchor x="252" y="0" name="bottom"/>
  <anchor x="295" y="264" name="center"/>
  <anchor x="341" y="739" name="top"/>
  <anchor x="570" y="739" name="topright"/>
  <outline>
    <contour>
      <point x="629" y="676" type="line"/>
      <point x="299" y="676" type="line"/>
      <point x="299" y="606" type="line"/>
      <point x="541" y="606" type="line"/>
      <point x="619" y="606" type="line"/>
    </contour>
    <component base="d"/>
  </outline>
</glyph>
<glyph name="hbar" format="2">
  <advance width="589"/>
  <unicode hex="0127"/>
  <anchor x="264" y="0" name="bottom"/>
  <anchor x="297" y="264" name="center"/>
  <anchor x="364" y="739" name="top"/>
  <outline>
    <contour>
      <point x="403" y="676" type="line"/>
      <point x="82" y="676" type="line"/>
      <point x="72" y="606" type="line"/>
      <point x="151" y="606" type="line"/>
      <point x="384" y="606" type="line"/>
    </contour>
    <component base="h" xOffset="8"/>
  </outline>
</glyph>
<glyph name="dotlessi" format="2">
  <advance width="279"/>
  <unicode hex="0131"/>
  <anchor x="102" y="0" name="bottom"/>
  <anchor x="127" y="0" name="ogonek"/>
  <anchor x="176" y="527" name="top"/>
  <outline>
    <contour>
      <point x="222" y="527" type="line"/>
      <point x="131" y="527" type="line"/>
      <point x="57" y="0" type="line"/>
      <point x="148" y="0" type="line"/>
    </contour>
  </outline>
</glyph>
<glyph name="kgreenlandic" format="2">
  <advance width="508"/>
  <unicode hex="0138"/>
  <anchor x="216.967" y="0" name="bottom"/>
  <anchor x="291.033" y="527" name="top"/>
  <outline>
    <contour>
      <point x="520" y="527" type="line"/>
      <point x="411" y="527" type="line"/>
      <point x="190" y="278" type="line"/>
      <point x="362" y="0" type="line"/>
      <point x="466" y="0" type="line"/>
      <point x="293" y="278" type="line"/>
    </contour>
    <contour>
      <point x="222" y="527" type="line"/>
      <point x="131" y="527" type="line"/>
      <point x="57" y="0" type="line"/>
      <point x="148" y="0" type="line"/>
    </contour>
  </outline>
</glyph>
<glyph name="Lslash" format="2">
  <advance width="502"/>
  <unicode hex="0141"/>
  <anchor x="254" y="0" name="bottom"/>
  <anchor x="414" y="390" name="center"/>
  <anchor x="216" y="689" name="top"/>
  <anchor x="288" y="689" name="topright"/>
  <outline>
    <contour>
      <point x="108" y="254" type="line"/>
      <point x="427" y="438" type="line"/>
      <point x="397" y="498" type="line"/>
      <point x="22" y="282" type="line"/>
      <point x="52" y="222" type="line"/>
    </contour>
    <component base="L" xOffset="10"/>
  </outline>
</glyph>
<glyph name="lslash" format="2">
  <advance width="296"/>
  <unicode hex="0142"/>
  <anchor x="159" y="0" name="bottom"/>
  <anchor x="311" y="380" name="center"/>
  <anchor x="202" y="739" name="top"/>
  <anchor x="257" y="739" name="topright"/>
  <outline>
    <contour>
      <point x="286" y="491" type="line"/>
      <point x="24" y="341" type="line"/>
      <point x="46" y="275" type="line"/>
      <point x="308" y="425" type="line"/>
    </contour>
    <component base="l"/>
  </outline>
</glyph>
<glyph name="Tbar" format="2">
  <advance width="511"/>
  <unicode hex="0166"/>
  <anchor x="219" y="0" name="bottom"/>
  <anchor x="275" y="0" name="bottomright"/>
  <anchor x="267" y="345" name="center"/>
  <anchor x="314" y="689" name="top"/>
  <outline>
    <contour>
      <point x="440" y="389" type="line"/>
      <point x="319" y="389" type="line"/>
      <point x="104" y="389" type="line"/>
      <point x="95" y="319" type="line"/>
      <point x="216" y="319" type="line"/>
      <point x="431" y="319" type="line"/>
    </contour>
    <component base="T"/>
  </outline>
</glyph>
<glyph name="tbar" format="2">
  <advance width="355"/>
  <unicode hex="0167"/>
  <anchor x="204" y="0" name="bottom"/>
  <anchor x="177" y="264" name="center"/>
  <anchor x="208" y="649" name="top"/>
  <anchor x="277" y="745" name="topright"/>
  <outline>
    <contour>
      <point x="320" y="357" type="line"/>
      <point x="115" y="357" type="line"/>
      <point x="35" y="357" type="line"/>
      <point x="25" y="286" type="line"/>
      <point x="300" y="286" type="line"/>
    </contour>
    <component base="t"/>
  </outline>
</glyph>
<glyph name="bstroke" format="2">
  <advance width="588"/>
  <unicode hex="0180"/>
  <anchor x="261" y="0" name="bottom"/>
  <anchor x="377" y="739" name="top"/>
  <outline>
    <contour>
      <point x="403" y="676" type="line"/>
      <point x="82" y="676" type="line"/>
      <point x="72" y="606" type="line"/>
      <point x="151" y="606" type="line"/>
      <point x="384" y="606" type="line"/>
    </contour>
    <component base="b" xOffset="9"/>
  </outline>
</glyph>
<glyph name="Iotaafrican" format="2">
  <advance width="355"/>
  <unicode hex="0196"/>
  <anchor x="141" y="0" name="bottom"/>
  <anchor x="197" y="689" name="top"/>
  <outline>
    <contour>
      <point x="244" y="689" type="line"/>
      <point x="150" y="689" type="line"/>
      <point x="80" y="201" type="line"/>
      <point x="174" y="201" type="line"/>
    </contour>
    <component base="hookHELPERright.case" xOffset="86" yOffset="201"/>
  </outline>
</glyph>
<glyph name="lambdastroke" format="2">
  <advance width="488"/>
  <unicode hex="019B"/>
  <anchor x="206.967" y="0" name="bottom"/>
  <anchor x="310.827" y="739" name="top"/>
  <outline>
    <contour>
      <point x="174" y="537" type="line"/>
      <point x="271" y="620" type="line"/>
      <point x="310" y="655" type="line"/>
      <point x="389" y="729" type="line"/>
      <point x="341" y="776" type="line"/>
      <point x="249" y="690" type="line"/>
      <point x="212" y="657" type="line"/>
      <point x="116" y="569" type="line"/>
    </contour>
    <contour>
      <point x="148" y="752" type="curve"/>
      <point x="130" y="688" type="line"/>
      <point x="234" y="664"/>
      <point x="260" y="622"/>
      <point x="268" y="499" type="curve"/>
      <point x="230" y="506" type="line"/>
      <point x="-17" y="10" type="line"/>
      <point x="69" y="-12" type="line"/>
      <point x="274" y="421" type="line"/>
      <point x="287" y="174"/>
      <point x="321" y="83"/>
      <point x="378" y="-11" type="curve"/>
      <point x="464" y="20" type="line"/>
      <point x="405" y="106"/>
      <point x="377" y="197"/>
      <point x="357" y="434" type="curve" smooth="yes"/>
      <point x="338" y="659"/>
      <point x="291" y="722"/>
    </contour>
  </outline>
</glyph>
<glyph name="Mturned" format="2">
  <advance width="923"/>
  <unicode hex="019C"/>
  <anchor x="424.467" y="0" name="bottom"/>
  <anchor x="521.3" y="689" name="top"/>
  <outline>
    <contour>
      <point x="220" y="-12" type="curve" smooth="yes"/>
      <point x="288" y="-12"/>
      <point x="349" y="20"/>
      <point x="412" y="96" type="curve"/>
      <point x="397" y="163" type="line"/>
      <point x="340" y="95"/>
      <point x="300" y="66"/>
      <point x="240" y="66" type="curve" smooth="yes"/>
      <point x="184" y="66"/>
      <point x="161" y="109"/>
      <point x="172" y="188" type="curve" smooth="yes"/>
      <point x="243" y="689" type="line"/>
      <point x="149" y="689" type="line"/>
      <point x="79" y="192" type="line" smooth="yes"/>
      <point x="63" y="75"/>
      <point x="111" y="-12"/>
    </contour>
    <contour>
      <point x="541" y="-12" type="curve" smooth="yes"/>
      <point x="609" y="-12"/>
      <point x="668" y="20"/>
      <point x="727" y="96" type="curve"/>
      <point x="718" y="164" type="line"/>
      <point x="661" y="95"/>
      <point x="621" y="66"/>
      <point x="561" y="66" type="curve" smooth="yes"/>
      <point x="505" y="66"/>
      <point x="482" y="109"/>
      <point x="493" y="188" type="curve" smooth="yes"/>
      <point x="564" y="689" type="line"/>
      <point x="469" y="689" type="line"/>
      <point x="399" y="192" type="line" smooth="yes"/>
      <point x="383" y="75"/>
      <point x="433" y="-12"/>
    </contour>
    <contour>
      <point x="706" y="0" type="line"/>
      <point x="787" y="0" type="line"/>
      <point x="884" y="689" type="line"/>
      <point x="790" y="689" type="line"/>
      <point x="711" y="129" type="line"/>
    </contour>
  </outline>
</glyph>
<glyph name="Yhook" format="2">
  <advance width="582"/>
  <unicode hex="01B3"/>
  <anchor x="253.967" y="0" name="bottom"/>
  <anchor x="350.8" y="689" name="top"/>
  <anchor x="66" y="689" name="topleft"/>
  <outline>
    <contour>
      <point x="431" y="598" type="curve" smooth="yes"/>
      <point x="283" y="348" type="line"/>
      <point x="165" y="689" type="line"/>
      <point x="65" y="689" type="line"/>
      <point x="225" y="264" type="line"/>
      <point x="187" y="0" type="line"/>
      <point x="282" y="0" type="line"/>
      <point x="320" y="265" type="line"/>
      <point x="510" y="568" type="line" smooth="yes"/>
      <point x="537" y="611"/>
      <point x="554" y="627"/>
      <point x="586" y="627" type="curve" smooth="yes"/>
      <point x="610" y="627"/>
      <point x="629" y="618"/>
      <point x="646" y="606" type="curve"/>
      <point x="687" y="658" type="line"/>
      <point x="663" y="682"/>
      <point x="629" y="701"/>
      <point x="581" y="701" type="curve" smooth="yes"/>
      <point x="513" y="701"/>
      <point x="477" y="676"/>
    </contour>
  </outline>
</glyph>
<glyph name="Zstroke" format="2">
  <advance width="516"/>
  <unicode hex="01B5"/>
  <anchor x="220.967" y="0" name="bottom"/>
  <anchor x="317.8" y="689" name="top"/>
  <outline>
    <contour>
      <point x="-8" y="0" type="line"/>
      <point x="424" y="0" type="line"/>
      <point x="446" y="81" type="line"/>
      <point x="109" y="80" type="line"/>
      <point x="522" y="612" type="line"/>
      <point x="532" y="689" type="line"/>
      <point x="125" y="689" type="line"/>
      <point x="114" y="609" type="line"/>
      <point x="418" y="609" type="line"/>
      <point x="2" y="76" type="line"/>
    </contour>
    <component base="hyphen" xScale="1.2" yScale="0.95" xOffset="18" yOffset="50"/>
  </outline>
</glyph>
<glyph name="zstroke" format="2">
  <advance width="431"/>
  <unicode hex="01B6"/>
  <anchor x="178.467" y="0" name="bottom"/>
  <anchor x="252.533" y="527" name="top"/>
  <outline>
    <contour>
      <point x="436" y="527" type="line"/>
      <point x="84" y="527" type="line"/>
      <point x="73" y="449" type="line"/>
      <point x="318" y="449" type="line"/>
      <point x="-4" y="69" type="line"/>
      <point x="-13" y="0" type="line"/>
      <point x="355" y="0" type="line"/>
      <point x="376" y="77" type="line"/>
      <point x="104" y="77" type="line"/>
      <point x="427" y="457" type="line"/>
    </contour>
    <component base="hyphen" xScale="1.1" yScale="0.9" xOffset="-13" yOffset="-18"/>
  </outline>
</glyph>
<glyph name="Ezhreversed" format="2">
  <advance width="515"/>
  <unicode hex="01B8"/>
  <anchor x="220.467" y="0" name="bottom"/>
  <anchor x="317.3" y="689" name="top"/>
  <outline>
    <contour>
      <point x="245" y="-12" type="curve" smooth="yes"/>
      <point x="346" y="-12"/>
      <point x="417" y="19"/>
      <point x="476" y="76" type="curve"/>
      <point x="426" y="132" type="line"/>
      <point x="376" y="89"/>
      <point x="328" y="66"/>
      <point x="251" y="66" type="curve" smooth="yes"/>
      <point x="171" y="66"/>
      <point x="130" y="105"/>
      <point x="130" y="174" type="curve" smooth="yes"/>
      <point x="130" y="268"/>
      <point x="196" y="328"/>
      <point x="309" y="328" type="curve" smooth="yes"/>
      <point x="393" y="328" type="line"/>
      <point x="324" y="397" type="line"/>
      <point x="295" y="397" type="line"/>
      <point x="141" y="397"/>
      <point x="33" y="309"/>
      <point x="33" y="173" type="curve" smooth="yes"/>
      <point x="33" y="62"/>
      <point x="113" y="-12"/>
    </contour>
    <contour>
      <point x="402" y="395" type="line"/>
      <point x="222" y="611" type="line"/>
      <point x="519" y="611" type="line"/>
      <point x="530" y="689" type="line"/>
      <point x="128" y="689" type="line"/>
      <point x="118" y="612" type="line"/>
      <point x="334" y="360" type="line"/>
      <point x="394" y="328" type="line"/>
    </contour>
  </outline>
</glyph>
<glyph name="glottalinvertedstroke" format="2">
  <advance width="505"/>
  <unicode hex="01BE"/>
  <anchor x="188" y="0" name="bottom"/>
  <anchor x="269" y="739" name="top"/>
  <outline>
    <contour>
      <point x="130" y="615" type="line"/>
      <point x="120" y="545" type="line"/>
      <point x="198" y="545" type="line"/>
      <point x="398" y="545" type="line"/>
      <point x="408" y="615" type="line"/>
    </contour>
    <component base="glottalstopinverted"/>
  </outline>
</glyph>
<glyph name="clickdental" format="2">
  <advance width="283"/>
  <unicode hex="01C0"/>
  <outline>
    <contour>
      <point x="252" y="749" type="line"/>
      <point x="166" y="739" type="line"/>
      <point x="62" y="0" type="line"/>
      <point x="147" y="0" type="line"/>
    </contour>
  </outline>
</glyph>
<glyph name="clickalveolar" format="2">
  <advance width="313"/>
  <unicode hex="01C2"/>
  <outline>
    <contour>
      <point x="36" y="408" type="line"/>
      <point x="133" y="408" type="line"/>
      <point x="317" y="408" type="line"/>
      <point x="326" y="471" type="line"/>
      <point x="45" y="471" type="line"/>
    </contour>
    <contour>
      <point x="15" y="259" type="line"/>
      <point x="113" y="259" type="line"/>
      <point x="296" y="259" type="line"/>
      <point x="305" y="322" type="line"/>
      <point x="24" y="322" type="line"/>
    </contour>
    <component base="clickdental" xOffset="14"/>
  </outline>
</glyph>
<glyph name="clickretroflex" format="2">
  <advance width="335"/>
  <unicode hex="01C3"/>
  <outline>
    <contour>
      <point x="278" y="749" type="line"/>
      <point x="192" y="739" type="line"/>
      <point x="118" y="210" type="line"/>
      <point x="202" y="210" type="line"/>
    </contour>
    <component base="period" xOffset="47"/>
  </outline>
</glyph>
<glyph name="lcurl" format="2">
  <advance width="417"/>
  <unicode hex="0234"/>
  <anchor x="275.327" y="739" name="top"/>
  <outline>
    <contour>
      <point x="227" y="-12" type="curve"/>
      <point x="240" y="66" type="line"/>
      <point x="174" y="66"/>
      <point x="154" y="72"/>
      <point x="162" y="130" type="curve" smooth="yes"/>
      <point x="249" y="750" type="line"/>
      <point x="157" y="739" type="line"/>
      <point x="73" y="147" type="line" smooth="yes"/>
      <point x="60" y="56"/>
      <point x="104" y="-12"/>
    </contour>
    <contour>
      <point x="122" y="-75" type="line"/>
      <point x="172" y="10" type="line"/>
      <point x="194" y="44" type="line"/>
      <point x="249" y="131"/>
      <point x="272" y="157"/>
      <point x="308" y="157" type="curve" smooth="yes"/>
      <point x="328" y="157"/>
      <point x="338" y="146"/>
      <point x="338" y="128" type="curve" smooth="yes"/>
      <point x="338" y="89"/>
      <point x="297" y="66"/>
      <point x="240" y="66" type="curve"/>
      <point x="227" y="-12" type="line"/>
      <point x="331" y="-12"/>
      <point x="417" y="39"/>
      <point x="417" y="131" type="curve" smooth="yes"/>
      <point x="417" y="188"/>
      <point x="374" y="224"/>
      <point x="316" y="224" type="curve" smooth="yes"/>
      <point x="244" y="224"/>
      <point x="198" y="174"/>
      <point x="154" y="94" type="curve"/>
      <point x="112" y="26" type="line"/>
      <point x="66" y="-49" type="line"/>
    </contour>
  </outline>
</glyph>
<glyph name="dotlessj" format="2">
  <advance width="279"/>
  <unicode hex="0237"/>
  <anchor x="67" y="-202" name="bottom"/>
  <anchor x="177" y="527" name="top"/>
  <outline>
    <contour>
      <point x="-45" y="-213" type="line"/>
      <point x="72" y="-163"/>
      <point x="131" y="-120"/>
      <point x="152" y="29" type="curve" smooth="yes"/>
      <point x="222" y="527" type="line"/>
      <point x="131" y="527" type="line"/>
      <point x="61" y="29" type="line" smooth="yes"/>
      <point x="45" y="-84"/>
      <point x="1" y="-112"/>
      <point x="-71" y="-144" type="curve"/>
    </contour>
  </outline>
</glyph>
<glyph name="Astroke" format="2">
  <advance width="567"/>
  <unicode hex="023A"/>
  <anchor x="246.467" y="0" name="bottom"/>
  <anchor x="343.3" y="689" name="top"/>
  <outline>
    <contour>
      <point x="455" y="750" type="line"/>
      <point x="126" y="-59" type="line"/>
      <point x="171" y="-70" type="line"/>
      <point x="500" y="739" type="line"/>
    </contour>
    <contour>
      <point x="403" y="689" type="line"/>
      <point x="284" y="689" type="line"/>
      <point x="-32" y="0" type="line"/>
      <point x="61" y="0" type="line"/>
      <point x="333" y="614" type="line"/>
      <point x="432" y="0" type="line"/>
      <point x="524" y="0" type="line"/>
    </contour>
    <contour>
      <point x="400" y="247" type="line"/>
      <point x="158" y="247" type="line"/>
      <point x="124" y="173" type="line"/>
      <point x="412" y="173" type="line"/>
    </contour>
  </outline>
</glyph>
<glyph name="Cstroke" format="2">
  <advance width="555"/>
  <unicode hex="023B"/>
  <anchor x="240.467" y="0" name="bottom"/>
  <anchor x="337.3" y="689" name="top"/>
  <outline>
    <contour>
      <point x="475" y="750" type="line"/>
      <point x="146" y="-59" type="line"/>
      <point x="191" y="-70" type="line"/>
      <point x="520" y="739" type="line"/>
    </contour>
    <component base="C"/>
  </outline>
</glyph>
<glyph name="cstroke" format="2">
  <advance width="472"/>
  <unicode hex="023C"/>
  <anchor x="244" y="0" name="bottom"/>
  <anchor x="323" y="527" name="top"/>
  <outline>
    <contour>
      <point x="390" y="595" type="line"/>
      <point x="119" y="-59" type="line"/>
      <point x="160" y="-70" type="line"/>
      <point x="431" y="584" type="line"/>
    </contour>
    <component base="c"/>
  </outline>
</glyph>
<glyph name="Tdiagonalstroke" format="2">
  <advance width="511"/>
  <unicode hex="023E"/>
  <anchor x="218.467" y="0" name="bottom"/>
  <anchor x="315.3" y="689" name="top"/>
  <outline>
    <contour>
      <point x="465" y="750" type="line"/>
      <point x="63" y="-54" type="line"/>
      <point x="101" y="-70" type="line"/>
      <point x="503" y="734" type="line"/>
    </contour>
    <contour>
      <point x="562" y="689" type="line"/>
      <point x="74" y="689" type="line"/>
      <point x="62" y="608" type="line"/>
      <point x="257" y="608" type="line"/>
      <point x="172" y="0" type="line"/>
      <point x="264" y="0" type="line"/>
      <point x="349" y="608" type="line"/>
      <point x="540" y="608" type="line"/>
    </contour>
  </outline>
</glyph>
<glyph name="Bstroke" format="2">
  <advance width="614"/>
  <unicode hex="0243"/>
  <anchor x="350" y="689" name="top"/>
  <outline>
    <contour>
      <point x="359" y="238" type="line"/>
      <point x="110" y="238" type="line"/>
      <point x="19" y="238" type="line"/>
      <point x="8" y="168" type="line"/>
      <point x="348" y="168" type="line"/>
    </contour>
    <component base="B" xOffset="12"/>
  </outline>
</glyph>
<glyph name="Ubar" format="2">
  <advance width="685"/>
  <unicode hex="0244"/>
  <anchor x="305" y="0" name="bottom"/>
  <anchor x="401" y="0" name="ogonek"/>
  <anchor x="402" y="689" name="top"/>
  <anchor x="651" y="689" name="topright"/>
  <outline>
    <contour>
      <point x="694" y="577" type="line"/>
      <point x="625" y="577" type="line"/>
      <point x="79" y="577" type="line"/>
      <point x="69" y="508" type="line"/>
      <point x="138" y="508" type="line"/>
      <point x="684" y="508" type="line"/>
    </contour>
    <component base="U" xOffset="14"/>
  </outline>
</glyph>
<glyph name="Estroke" format="2">
  <advance width="529"/>
  <unicode hex="0246"/>
  <anchor x="227.467" y="0" name="bottom"/>
  <anchor x="409" y="0" name="ogonek"/>
  <anchor x="324.3" y="689" name="top"/>
  <anchor x="139" y="689" name="topleft"/>
  <outline>
    <contour>
      <point x="455" y="750" type="line"/>
      <point x="126" y="-59" type="line"/>
      <point x="171" y="-70" type="line"/>
      <point x="500" y="739" type="line"/>
    </contour>
    <component base="E"/>
  </outline>
</glyph>
<glyph name="Rstroke" format="2">
  <advance width="612"/>
  <unicode hex="024C"/>
  <anchor x="282" y="0" name="bottom"/>
  <anchor x="369" y="689" name="top"/>
  <outline>
    <contour>
      <point x="256" y="292" type="line"/>
      <point x="248" y="365" type="line"/>
      <point x="127" y="365" type="line"/>
      <point x="35" y="365" type="line"/>
      <point x="25" y="292" type="line"/>
    </contour>
    <component base="R" xOffset="13"/>
  </outline>
</glyph>
<glyph name="ystroke" format="2">
  <advance width="497"/>
  <unicode hex="024F"/>
  <anchor x="197" y="-202" name="bottom"/>
  <anchor x="285" y="527" name="top"/>
  <outline>
    <contour>
      <point x="24" y="317" type="line"/>
      <point x="489" y="317" type="line"/>
      <point x="499" y="387" type="line"/>
      <point x="454" y="387" type="line"/>
      <point x="79" y="387" type="line"/>
      <point x="34" y="387" type="line"/>
    </contour>
    <component base="y" xOffset="5"/>
  </outline>
</glyph>
<glyph name="jdotlessstroke" format="2">
  <advance width="314"/>
  <unicode hex="025F"/>
  <anchor x="90" y="-202" name="bottom"/>
  <anchor x="200" y="527" name="top"/>
  <outline>
    <contour>
      <point x="10" y="217" type="line"/>
      <point x="106" y="217" type="line"/>
      <point x="291" y="217" type="line"/>
      <point x="302" y="287" type="line"/>
      <point x="21" y="287" type="line"/>
    </contour>
    <component base="dotlessj" xOffset="23"/>
  </outline>
</glyph>
<glyph name="iota-latin" format="2">
  <advance width="288"/>
  <unicode hex="0269"/>
  <anchor x="107" y="0" name="bottom"/>
  <anchor x="181" y="527" name="top"/>
  <outline>
    <contour>
      <point x="164" y="-12" type="curve" smooth="yes"/>
      <point x="187" y="-12"/>
      <point x="210" y="-7"/>
      <point x="237" y="5" type="curve"/>
      <point x="218" y="72" type="line"/>
      <point x="206" y="67"/>
      <point x="194" y="64"/>
      <point x="182" y="64" type="curve" smooth="yes"/>
      <point x="160" y="64"/>
      <point x="155" y="75"/>
      <point x="158" y="103" type="curve" smooth="yes"/>
      <point x="218" y="527" type="line"/>
      <point x="126" y="527" type="line"/>
      <point x="69" y="118" type="line" smooth="yes"/>
      <point x="57" y="31"/>
      <point x="94" y="-12"/>
    </contour>
  </outline>
</glyph>
<glyph name="lbelt" format="2">
  <advance width="363"/>
  <unicode hex="026C"/>
  <anchor x="214" y="0" name="bottom"/>
  <anchor x="366" y="380" name="center"/>
  <anchor x="257" y="739" name="top"/>
  <anchor x="312" y="739" name="topright"/>
  <outline>
    <contour>
      <point x="142" y="254" type="curve"/>
      <point x="233" y="256" type="line"/>
      <point x="260" y="258"/>
      <point x="294" y="263"/>
      <point x="324" y="270" type="curve"/>
      <point x="321" y="327" type="line"/>
      <point x="295" y="322"/>
      <point x="269" y="317"/>
      <point x="241" y="316" type="curve"/>
      <point x="151" y="316" type="line"/>
      <point x="113" y="316"/>
      <point x="90" y="328"/>
      <point x="90" y="357" type="curve" smooth="yes"/>
      <point x="90" y="390"/>
      <point x="112" y="407"/>
      <point x="139" y="407" type="curve" smooth="yes"/>
      <point x="149" y="407"/>
      <point x="157" y="406"/>
      <point x="165" y="404" type="curve"/>
      <point x="178" y="459" type="line"/>
      <point x="167" y="462"/>
      <point x="155" y="464"/>
      <point x="136" y="464" type="curve" smooth="yes"/>
      <point x="69" y="464"/>
      <point x="17" y="420"/>
      <point x="17" y="356" type="curve" smooth="yes"/>
      <point x="17" y="297"/>
      <point x="59" y="258"/>
    </contour>
    <component base="l" xOffset="55"/>
  </outline>
</glyph>
<glyph name="lhookretroflex" format="2">
  <advance width="279"/>
  <unicode hex="026D"/>
  <anchor x="176" y="-202" name="bottom"/>
  <anchor x="207" y="739" name="top"/>
  <outline>
    <contour>
      <point x="254" y="750" type="line"/>
      <point x="162" y="739" type="line"/>
      <point x="57" y="0" type="line"/>
      <point x="148" y="0" type="line"/>
    </contour>
    <component base="hookHELPERright" xOffset="63"/>
  </outline>
</glyph>
<glyph name="lezh" format="2">
  <advance width="656"/>
  <unicode hex="026E"/>
  <anchor x="326" y="-202" name="bottom"/>
  <anchor x="311" y="380" name="center"/>
  <anchor x="429" y="739" name="top"/>
  <anchor x="257" y="739" name="topright"/>
  <outline>
    <contour>
      <point x="326" y="-213" type="curve" smooth="yes"/>
      <point x="480" y="-213"/>
      <point x="592" y="-114"/>
      <point x="592" y="35" type="curve" smooth="yes"/>
      <point x="592" y="139"/>
      <point x="525" y="206"/>
      <point x="383" y="206" type="curve"/>
      <point x="361" y="206" type="line"/>
      <point x="277" y="138" type="line"/>
      <point x="358" y="138" type="line" smooth="yes"/>
      <point x="455" y="138"/>
      <point x="496" y="113"/>
      <point x="496" y="35" type="curve" smooth="yes"/>
      <point x="496" y="-62"/>
      <point x="435" y="-138"/>
      <point x="326" y="-138" type="curve" smooth="yes"/>
      <point x="267" y="-138"/>
      <point x="229" y="-122"/>
      <point x="187" y="-78" type="curve"/>
      <point x="132" y="-127" type="line"/>
      <point x="177" y="-183"/>
      <point x="236" y="-213"/>
    </contour>
    <contour>
      <point x="278" y="138" type="line"/>
      <point x="349" y="169" type="line"/>
      <point x="631" y="457" type="line"/>
      <point x="640" y="527" type="line"/>
      <point x="217" y="527" type="line"/>
      <point x="206" y="451" type="line"/>
      <point x="524" y="451" type="line"/>
      <point x="287" y="205" type="line"/>
    </contour>
    <component base="l"/>
  </outline>
</glyph>
<glyph name="OEsmall" format="2">
  <advance width="746"/>
  <unicode hex="0276"/>
  <anchor x="376" y="0" name="bottom"/>
  <anchor x="450" y="527" name="top"/>
  <outline>
    <contour>
      <point x="252" y="-12" type="curve" smooth="yes"/>
      <point x="282" y="-12"/>
      <point x="309" y="-6"/>
      <point x="330" y="1" type="curve"/>
      <point x="341" y="14"/>
      <point x="355" y="24"/>
      <point x="377" y="41" type="curve"/>
      <point x="471" y="88"/>
      <point x="521" y="189"/>
      <point x="525" y="293" type="curve" smooth="yes"/>
      <point x="528" y="376"/>
      <point x="498" y="452"/>
      <point x="452" y="477" type="curve"/>
      <point x="429" y="502"/>
      <point x="415" y="513"/>
      <point x="410" y="525" type="curve"/>
      <point x="378" y="535"/>
      <point x="356" y="539"/>
      <point x="325" y="539" type="curve"/>
      <point x="119" y="539"/>
      <point x="52" y="336"/>
      <point x="52" y="206" type="curve" smooth="yes"/>
      <point x="52" y="72"/>
      <point x="123" y="-12"/>
    </contour>
    <contour>
      <point x="312" y="0" type="line"/>
      <point x="679" y="0" type="line"/>
      <point x="689" y="71" type="line"/>
      <point x="398" y="71" type="line"/>
    </contour>
    <contour>
      <point x="466" y="232" type="line"/>
      <point x="667" y="232" type="line"/>
      <point x="677" y="303" type="line"/>
      <point x="476" y="303" type="line"/>
    </contour>
    <contour>
      <point x="462" y="456" type="line"/>
      <point x="728" y="456" type="line"/>
      <point x="748" y="527" type="line"/>
      <point x="388" y="527" type="line"/>
    </contour>
    <contour>
      <point x="257" y="62" type="curve" smooth="yes"/>
      <point x="186" y="62"/>
      <point x="148" y="104"/>
      <point x="148" y="196" type="curve" smooth="yes"/>
      <point x="148" y="297"/>
      <point x="185" y="465"/>
      <point x="322" y="465" type="curve" smooth="yes"/>
      <point x="392" y="465"/>
      <point x="430" y="423"/>
      <point x="430" y="331" type="curve" smooth="yes"/>
      <point x="430" y="230"/>
      <point x="394" y="62"/>
    </contour>
  </outline>
</glyph>
<glyph name="rlonglegturned" format="2">
  <advance width="381"/>
  <unicode hex="027A"/>
  <anchor x="308" y="739" name="top"/>
  <anchor x="103" y="0" name="bottom"/>
  <outline>
    <contour>
      <point x="233" y="527" type="line"/>
      <point x="324" y="527" type="line"/>
      <point x="354" y="738" type="line"/>
      <point x="264" y="748" type="line"/>
    </contour>
    <component base="rturned"/>
  </outline>
</glyph>
<glyph name="rhookturned" format="2">
  <advance width="381"/>
  <unicode hex="027B"/>
  <anchor x="134" y="-202" name="bottom"/>
  <anchor x="279" y="527" name="top"/>
  <outline>
    <contour>
      <point x="25" y="-12" type="curve" smooth="yes"/>
      <point x="83" y="-12"/>
      <point x="136" y="23"/>
      <point x="174" y="94" type="curve"/>
      <point x="159" y="0" type="line"/>
      <point x="250" y="0" type="line"/>
      <point x="324" y="527" type="line"/>
      <point x="233" y="527" type="line"/>
      <point x="193" y="248" type="line"/>
      <point x="156" y="141"/>
      <point x="110" y="79"/>
      <point x="42" y="79" type="curve" smooth="yes"/>
      <point x="25" y="79"/>
      <point x="14" y="80"/>
      <point x="-1" y="84" type="curve"/>
      <point x="-28" y="-5" type="line"/>
      <point x="-12" y="-9"/>
      <point x="6" y="-12"/>
    </contour>
    <component base="hookHELPERright" xOffset="165"/>
  </outline>
</glyph>
<glyph name="rfishhook" format="2">
  <advance width="365"/>
  <unicode hex="027E"/>
  <anchor x="98" y="0" name="bottom"/>
  <anchor x="276" y="527" name="top"/>
  <outline>
    <contour>
      <point x="189" y="328" type="line"/>
      <point x="98" y="328" type="line"/>
      <point x="52" y="0" type="line"/>
      <point x="143" y="0" type="line"/>
    </contour>
    <component base="hookHELPER" xScale="-1" yScale="-1" xOffset="356" yOffset="328"/>
  </outline>
</glyph>
<glyph name="rfishhookreversed" format="2">
  <advance width="371"/>
  <unicode hex="027F"/>
  <anchor x="198" y="0" name="bottom"/>
  <anchor x="168" y="527" name="top"/>
  <outline>
    <contour>
      <point x="290" y="326" type="line"/>
      <point x="199" y="326" type="line"/>
      <point x="152" y="0" type="line"/>
      <point x="244" y="0" type="line"/>
    </contour>
    <component base="hookHELPERright" xScale="-1" yScale="-1" xOffset="284" yOffset="326"/>
  </outline>
</glyph>
<glyph name="esh" format="2">
  <advance width="299"/>
  <unicode hex="0283"/>
  <anchor x="-12" y="-202" name="bottom"/>
  <anchor x="318" y="739" name="top"/>
  <outline>
    <contour>
      <point x="232" y="527" type="line"/>
      <point x="141" y="527" type="line"/>
      <point x="67" y="0" type="line"/>
      <point x="158" y="0" type="line"/>
    </contour>
    <component base="hookHELPER" xOffset="-100"/>
    <component base="hookaboveHELPER2" xOffset="73"/>
  </outline>
</glyph>
<glyph name="jdotlessstrokehook" format="2">
  <advance width="314"/>
  <unicode hex="0284"/>
  <anchor x="92" y="-202" name="bottom"/>
  <anchor x="328" y="739" name="top"/>
  <outline>
    <contour>
      <point x="-26" y="-213" type="line"/>
      <point x="91" y="-163"/>
      <point x="150" y="-120"/>
      <point x="171" y="29" type="curve" smooth="yes"/>
      <point x="241" y="527" type="line"/>
      <point x="150" y="527" type="line"/>
      <point x="79" y="19" type="line" smooth="yes"/>
      <point x="64" y="-84"/>
      <point x="20" y="-112"/>
      <point x="-52" y="-144" type="curve"/>
    </contour>
    <contour>
      <point x="-22" y="0" type="line"/>
      <point x="259" y="0" type="line"/>
      <point x="269" y="70" type="line"/>
      <point x="-12" y="70" type="line"/>
    </contour>
    <component base="hookaboveHELPER2" xOffset="82"/>
  </outline>
</glyph>
<glyph name="eshsquatreversed" format="2">
  <advance width="445"/>
  <unicode hex="0285"/>
  <anchor x="196" y="0" name="bottom"/>
  <anchor x="270" y="527" name="top"/>
  <outline>
    <contour>
      <point x="277" y="326" type="line"/>
      <point x="186" y="326" type="line"/>
      <point x="168" y="201" type="line"/>
      <point x="259" y="201" type="line"/>
    </contour>
    <component base="hookHELPERright" xScale="-1" yScale="-1" xOffset="271" yOffset="326"/>
    <component base="hookHELPERright" xOffset="174" yOffset="201"/>
  </outline>
</glyph>
<glyph name="tretroflexhook" format="2">
  <advance width="355"/>
  <unicode hex="0288"/>
  <anchor x="184" y="-202" name="bottom"/>
  <anchor x="208" y="648" name="top"/>
  <outline>
    <contour>
      <point x="245" y="657" type="line"/>
      <point x="173" y="649" type="line"/>
      <point x="132" y="497" type="line"/>
      <point x="63" y="0" type="line"/>
      <point x="154" y="0" type="line"/>
    </contour>
    <contour>
      <point x="351" y="527" type="line"/>
      <point x="45" y="527" type="line"/>
      <point x="35" y="456" type="line"/>
      <point x="331" y="456" type="line"/>
    </contour>
    <component base="hookHELPERright" xOffset="69"/>
  </outline>
</glyph>
<glyph name="ubar" format="2">
  <advance width="598"/>
  <unicode hex="0289"/>
  <anchor x="262" y="0" name="bottom"/>
  <anchor x="465" y="0" name="bottomright"/>
  <anchor x="464" y="0" name="ogonek"/>
  <anchor x="336" y="527" name="top"/>
  <anchor x="539" y="527" name="topright"/>
  <outline>
    <contour>
      <point x="22" y="317" type="line"/>
      <point x="107" y="317" type="line"/>
      <point x="585" y="317" type="line"/>
      <point x="595" y="387" type="line"/>
      <point x="510" y="387" type="line"/>
      <point x="32" y="387" type="line"/>
    </contour>
    <component base="u" xOffset="10"/>
  </outline>
</glyph>
<glyph name="yturned" format="2">
  <advance width="486"/>
  <unicode hex="028E"/>
  <anchor x="215" y="0" name="bottom"/>
  <anchor x="307" y="739" name="top"/>
  <outline>
    <contour>
      <point x="-28" y="0" type="line"/>
      <point x="67" y="0" type="line"/>
      <point x="269" y="457" type="line"/>
      <point x="343" y="0" type="line"/>
      <point x="439" y="0" type="line"/>
      <point x="338" y="527" type="line"/>
      <point x="304" y="525" type="line"/>
      <point x="351" y="619"/>
      <point x="391" y="662"/>
      <point x="500" y="680" type="curve"/>
      <point x="496" y="752" type="line"/>
      <point x="350" y="736"/>
      <point x="273" y="656"/>
      <point x="216" y="532" type="curve" smooth="yes"/>
    </contour>
  </outline>
</glyph>
<glyph name="bilabialclick" format="2">
  <advance width="785"/>
  <unicode hex="0298"/>
  <anchor x="408" y="348" name="_center"/>
  <anchor x="452.3" y="689" name="top"/>
  <anchor x="355.467" y="0" name="bottom"/>
  <outline>
    <contour>
      <point x="450" y="701" type="curve" smooth="yes"/>
      <point x="218" y="701"/>
      <point x="62" y="515"/>
      <point x="62" y="280" type="curve" smooth="yes"/>
      <point x="62" y="93"/>
      <point x="180" y="-12"/>
      <point x="358" y="-12" type="curve" smooth="yes"/>
      <point x="591" y="-12"/>
      <point x="747" y="173"/>
      <point x="746" y="408" type="curve" smooth="yes"/>
      <point x="746" y="595"/>
      <point x="627" y="701"/>
    </contour>
    <contour>
      <point x="448" y="627" type="curve" smooth="yes"/>
      <point x="577" y="627"/>
      <point x="659" y="561"/>
      <point x="660" y="408" type="curve" smooth="yes"/>
      <point x="660" y="219"/>
      <point x="557" y="62"/>
      <point x="360" y="62" type="curve" smooth="yes"/>
      <point x="236" y="62"/>
      <point x="149" y="126"/>
      <point x="149" y="280" type="curve" smooth="yes"/>
      <point x="149" y="468"/>
      <point x="253" y="627"/>
    </contour>
    <component base="dotaccentcomb" xOffset="247" yOffset="-372"/>
  </outline>
</glyph>
<glyph name="kturned" format="2">
  <advance width="505"/>
  <unicode hex="029E"/>
  <anchor x="136" y="-202" name="bottom"/>
  <anchor x="252" y="527" name="top"/>
  <outline>
    <contour>
      <point x="-13" y="0" type="line"/>
      <point x="100" y="0" type="line"/>
      <point x="316" y="239" type="line"/>
      <point x="142" y="527" type="line"/>
      <point x="41" y="527" type="line"/>
      <point x="218" y="244" type="line"/>
    </contour>
    <contour>
      <point x="258" y="-216" type="line"/>
      <point x="350" y="-205" type="line"/>
      <point x="453" y="527" type="line"/>
      <point x="362" y="527" type="line"/>
    </contour>
  </outline>
</glyph>
<glyph name="Lsmall" format="2">
  <advance width="433"/>
  <unicode hex="029F"/>
  <anchor x="213" y="0" name="bottom"/>
  <anchor x="177" y="527" name="top"/>
  <outline>
    <contour>
      <point x="222" y="527" type="line"/>
      <point x="131" y="527" type="line"/>
      <point x="57" y="0" type="line"/>
      <point x="369" y="0" type="line"/>
      <point x="391" y="78" type="line"/>
      <point x="159" y="78" type="line"/>
    </contour>
  </outline>
</glyph>
<glyph name="glottalstopstroke" format="2">
  <advance width="440"/>
  <unicode hex="02A1"/>
  <anchor x="142" y="0" name="bottom"/>
  <anchor x="260" y="739" name="top"/>
  <outline>
    <contour>
      <point x="59" y="215" type="line"/>
      <point x="49" y="145" type="line"/>
      <point x="117" y="145" type="line"/>
      <point x="317" y="145" type="line"/>
      <point x="327" y="215" type="line"/>
    </contour>
    <component base="glottalstop"/>
  </outline>
</glyph>
<glyph name="glottalstopstrokereversed" format="2">
  <advance width="437"/>
  <unicode hex="02A2"/>
  <anchor x="223" y="0" name="bottom"/>
  <anchor x="316" y="739" name="top"/>
  <outline>
    <contour>
      <point x="366" y="215" type="line"/>
      <point x="98" y="215" type="line"/>
      <point x="88" y="145" type="line"/>
      <point x="288" y="145" type="line"/>
      <point x="356" y="145" type="line"/>
    </contour>
    <component base="glottalstopreversed"/>
  </outline>
</glyph>
<glyph name="dzaltone" format="2">
  <advance width="905"/>
  <unicode hex="02A3"/>
  <anchor x="415.467" y="0" name="bottom"/>
  <anchor x="295" y="264" name="center"/>
  <anchor x="519.327" y="739" name="top"/>
  <anchor x="570" y="739" name="topright"/>
  <outline>
    <contour>
      <point x="910" y="527" type="line"/>
      <point x="518" y="527" type="line"/>
      <point x="507" y="449" type="line"/>
      <point x="787" y="449" type="line"/>
      <point x="470" y="69" type="line"/>
      <point x="461" y="0" type="line"/>
      <point x="829" y="0" type="line"/>
      <point x="850" y="77" type="line"/>
      <point x="574" y="77" type="line"/>
      <point x="901" y="457" type="line"/>
    </contour>
    <component base="d"/>
  </outline>
</glyph>
<glyph name="fengdigraph" format="2">
  <advance width="858"/>
  <unicode hex="02A9"/>
  <anchor x="348" y="-202" name="bottom"/>
  <anchor x="492" y="739" name="top"/>
  <anchor x="399" y="527" name="topleft"/>
  <outline>
    <contour>
      <point x="314" y="750" type="curve" smooth="yes"/>
      <point x="210" y="750"/>
      <point x="147" y="690"/>
      <point x="135" y="602" type="curve" smooth="yes"/>
      <point x="50" y="0" type="line"/>
      <point x="141" y="0" type="line"/>
      <point x="225" y="597" type="line" smooth="yes"/>
      <point x="232" y="648"/>
      <point x="258" y="676"/>
      <point x="317" y="676" type="curve" smooth="yes"/>
      <point x="342" y="676"/>
      <point x="372" y="672"/>
      <point x="403" y="651" type="curve"/>
      <point x="438" y="712" type="line"/>
      <point x="399" y="736"/>
      <point x="365" y="750"/>
    </contour>
    <contour>
      <point x="422" y="527" type="line"/>
      <point x="31" y="527" type="line"/>
      <point x="21" y="456" type="line"/>
      <point x="402" y="456" type="line"/>
    </contour>
    <component base="eng" xOffset="278"/>
  </outline>
</glyph>
<glyph name="turnedhfishhook" format="2">
  <advance width="676"/>
  <unicode hex="02AE"/>
  <anchor x="278" y="-202" name="bottom"/>
  <anchor x="400" y="527" name="top"/>
  <outline>
    <contour>
      <point x="300" y="-12" type="curve" smooth="yes"/>
      <point x="373" y="-12"/>
      <point x="430" y="33"/>
      <point x="474" y="99" type="curve"/>
      <point x="458" y="0" type="line"/>
      <point x="549" y="0" type="line"/>
      <point x="624" y="527" type="line"/>
      <point x="533" y="527" type="line"/>
      <point x="490" y="211" type="line"/>
      <point x="448" y="136"/>
      <point x="389" y="65"/>
      <point x="319" y="65" type="curve" smooth="yes"/>
      <point x="281" y="65"/>
      <point x="255" y="85"/>
      <point x="266" y="159" type="curve" smooth="yes"/>
      <point x="290" y="326" type="line"/>
      <point x="199" y="326" type="line"/>
      <point x="174" y="154" type="line" smooth="yes"/>
      <point x="159" y="52"/>
      <point x="208" y="-12"/>
    </contour>
    <component base="hookHELPERright" xScale="-1" yScale="-1" xOffset="284" yOffset="326"/>
    <component base="hookHELPERright" xOffset="464"/>
  </outline>
</glyph>
<glyph name="turnedhfishhookandtail" format="2">
  <advance width="676"/>
  <unicode hex="02AF"/>
  <anchor x="278" y="-202" name="bottom"/>
  <anchor x="400" y="527" name="top"/>
  <outline>
    <contour>
      <point x="429" y="-216" type="line"/>
      <point x="521" y="-205" type="line"/>
      <point x="624" y="527" type="line"/>
      <point x="533" y="527" type="line"/>
      <point x="490" y="211" type="line"/>
      <point x="448" y="136"/>
      <point x="389" y="65"/>
      <point x="319" y="65" type="curve" smooth="yes"/>
      <point x="281" y="65"/>
      <point x="255" y="85"/>
      <point x="266" y="159" type="curve" smooth="yes"/>
      <point x="290" y="326" type="line"/>
      <point x="199" y="326" type="line"/>
      <point x="174" y="154" type="line" smooth="yes"/>
      <point x="159" y="52"/>
      <point x="208" y="-12"/>
      <point x="300" y="-12" type="curve" smooth="yes"/>
      <point x="373" y="-12"/>
      <point x="430" y="33"/>
      <point x="474" y="99" type="curve"/>
    </contour>
    <component base="hookHELPERright" xScale="-1" yScale="-1" xOffset="284" yOffset="326"/>
  </outline>
</glyph>
<glyph name="primemod" format="2">
  <advance width="301"/>
  <unicode hex="02B9"/>
  <outline>
    <contour>
      <point x="81" y="427" type="line"/>
      <point x="152" y="427" type="line"/>
      <point x="304" y="689" type="line"/>
      <point x="203" y="689" type="line"/>
    </contour>
  </outline>
</glyph>
<glyph name="colontriangularhalfmod" format="2">
  <advance width="247"/>
  <unicode hex="02D1"/>
  <outline>
    <contour>
      <point x="121" y="333" type="line"/>
      <point x="146" y="333" type="line"/>
      <point x="227" y="487" type="line"/>
      <point x="83" y="487" type="line"/>
    </contour>
  </outline>
</glyph>
<glyph name="gammasuperior" format="2">
  <advance width="349"/>
  <unicode hex="02E0"/>
  <outline>
    <contour>
      <point x="181" y="290" type="curve" smooth="yes"/>
      <point x="232" y="290"/>
      <point x="260" y="319"/>
      <point x="260" y="362" type="curve" smooth="yes"/>
      <point x="260" y="385"/>
      <point x="250" y="407"/>
      <point x="235" y="435" type="curve"/>
      <point x="204" y="480" type="line"/>
      <point x="169" y="665" type="line"/>
      <point x="88" y="665" type="line"/>
      <point x="164" y="438" type="line"/>
      <point x="195" y="402" type="line"/>
      <point x="199" y="389"/>
      <point x="202" y="379"/>
      <point x="202" y="367" type="curve" smooth="yes"/>
      <point x="202" y="353"/>
      <point x="197" y="340"/>
      <point x="184" y="340" type="curve" smooth="yes"/>
      <point x="176" y="340"/>
      <point x="173" y="344"/>
      <point x="173" y="353" type="curve" smooth="yes"/>
      <point x="173" y="366"/>
      <point x="182" y="384"/>
      <point x="195" y="402" type="curve"/>
      <point x="235" y="435" type="line"/>
      <point x="373" y="665" type="line"/>
      <point x="291" y="665" type="line"/>
      <point x="204" y="480" type="line"/>
      <point x="164" y="438" type="line"/>
      <point x="129" y="401"/>
      <point x="114" y="372"/>
      <point x="114" y="345" type="curve" smooth="yes"/>
      <point x="114" y="311"/>
      <point x="138" y="290"/>
    </contour>
  </outline>
</glyph>
<glyph name="glottalstopreversedsuperior" format="2">
  <advance width="327"/>
  <unicode hex="02E4"/>
  <outline>
    <contour>
      <point x="236" y="400" type="line"/>
      <point x="261" y="578" type="line"/>
      <point x="226" y="586" type="line" smooth="yes"/>
      <point x="190" y="595"/>
      <point x="171" y="608"/>
      <point x="171" y="638" type="curve" smooth="yes"/>
      <point x="171" y="686"/>
      <point x="199" y="713"/>
      <point x="243" y="713" type="curve" smooth="yes"/>
      <point x="270" y="713"/>
      <point x="293" y="703"/>
      <point x="315" y="686" type="curve"/>
      <point x="359" y="734" type="line"/>
      <point x="326" y="763"/>
      <point x="290" y="779"/>
      <point x="242" y="779" type="curve" smooth="yes"/>
      <point x="151" y="779"/>
      <point x="86" y="726"/>
      <point x="86" y="636" type="curve" smooth="yes"/>
      <point x="86" y="590"/>
      <point x="110" y="564"/>
      <point x="156" y="549" type="curve" smooth="yes"/>
      <point x="170" y="544" type="line"/>
      <point x="150" y="400" type="line"/>
    </contour>
  </outline>
</glyph>
<glyph name="tonebarextralowmod" format="2">
  <advance width="344"/>
  <unicode hex="02E9"/>
  <outline>
    <contour>
      <point x="299" y="689" type="line"/>
      <point x="211" y="67" type="line"/>
      <point x="3" y="67" type="line"/>
      <point x="-6" y="0" type="line"/>
      <point x="276" y="0" type="line"/>
      <point x="373" y="689" type="line"/>
    </contour>
  </outline>
</glyph>
<glyph name="gravecomb" format="2">
  <unicode hex="0300"/>
  <anchor x="174" y="527" name="_top"/>
  <anchor x="213" y="801" name="top"/>
  <outline>
    <contour>
      <point x="140" y="801" type="line"/>
      <point x="95" y="724" type="line"/>
      <point x="294" y="638" type="line"/>
      <point x="323" y="687" type="line"/>
    </contour>
  </outline>
</glyph>
<glyph name="acutecomb" format="2">
  <unicode hex="0301"/>
  <anchor x="183" y="527" name="_top"/>
  <anchor x="213" y="801" name="top"/>
  <outline>
    <contour>
      <point x="301" y="801" type="line"/>
      <point x="90" y="687" type="line"/>
      <point x="111" y="638" type="line"/>
      <point x="331" y="724" type="line"/>
    </contour>
  </outline>
</glyph>
<glyph name="circumflexcomb" format="2">
  <unicode hex="0302"/>
  <anchor x="233" y="527" name="_top"/>
  <anchor x="266" y="792" name="top"/>
  <outline>
    <contour>
      <point x="125" y="634" type="line"/>
      <point x="259" y="718" type="line"/>
      <point x="372" y="634" type="line"/>
      <point x="416" y="679" type="line"/>
      <point x="297" y="792" type="line"/>
      <point x="237" y="792" type="line"/>
      <point x="88" y="679" type="line"/>
    </contour>
  </outline>
</glyph>
<glyph name="macroncomb" format="2">
  <unicode hex="0304"/>
  <anchor x="202" y="527" name="_top"/>
  <anchor x="229" y="736" name="top"/>
  <outline>
    <contour>
      <point x="358" y="667" type="line"/>
      <point x="367" y="736" type="line"/>
      <point x="96" y="736" type="line"/>
      <point x="87" y="667" type="line"/>
    </contour>
  </outline>
</glyph>
<glyph name="brevecomb" format="2">
  <unicode hex="0306"/>
  <anchor x="222" y="527" name="_top"/>
  <anchor x="254" y="791" name="top"/>
  <outline>
    <contour>
      <point x="235" y="643" type="curve" smooth="yes"/>
      <point x="313" y="643"/>
      <point x="382" y="689"/>
      <point x="402" y="773" type="curve"/>
      <point x="342" y="791" type="line"/>
      <point x="322" y="741"/>
      <point x="285" y="713"/>
      <point x="237" y="713" type="curve" smooth="yes"/>
      <point x="192" y="713"/>
      <point x="171" y="737"/>
      <point x="164" y="787" type="curve"/>
      <point x="102" y="779" type="line"/>
      <point x="99" y="695"/>
      <point x="154" y="643"/>
    </contour>
  </outline>
</glyph>
<glyph name="dotaccentcomb" format="2">
  <unicode hex="0307"/>
  <anchor x="161" y="720" name="_center"/>
  <anchor x="131" y="527" name="_top"/>
  <anchor x="167" y="780" name="top"/>
  <outline>
    <contour>
      <point x="153" y="655" type="curve"/>
      <point x="192" y="655"/>
      <point x="222" y="684"/>
      <point x="222" y="723" type="curve" smooth="yes"/>
      <point x="222" y="755"/>
      <point x="199" y="780"/>
      <point x="163" y="780" type="curve"/>
      <point x="124" y="780"/>
      <point x="94" y="751"/>
      <point x="94" y="712" type="curve" smooth="yes"/>
      <point x="94" y="680"/>
      <point x="117" y="655"/>
    </contour>
  </outline>
</glyph>
<glyph name="dieresiscomb" format="2">
  <unicode hex="0308"/>
  <anchor x="230" y="527" name="_top"/>
  <anchor x="258" y="768" name="top"/>
  <outline>
    <contour>
      <point x="146" y="654" type="curve"/>
      <point x="182" y="654"/>
      <point x="209" y="680"/>
      <point x="209" y="716" type="curve" smooth="yes"/>
      <point x="209" y="745"/>
      <point x="187" y="767"/>
      <point x="156" y="767" type="curve"/>
      <point x="120" y="767"/>
      <point x="93" y="741"/>
      <point x="93" y="705" type="curve" smooth="yes"/>
      <point x="93" y="676"/>
      <point x="115" y="654"/>
    </contour>
    <contour>
      <point x="354" y="654" type="curve"/>
      <point x="390" y="654"/>
      <point x="417" y="680"/>
      <point x="417" y="716" type="curve" smooth="yes"/>
      <point x="417" y="745"/>
      <point x="395" y="767"/>
      <point x="364" y="767" type="curve"/>
      <point x="328" y="767"/>
      <point x="301" y="741"/>
      <point x="301" y="705" type="curve" smooth="yes"/>
      <point x="301" y="676"/>
      <point x="323" y="654"/>
    </contour>
  </outline>
</glyph>
<glyph name="ringcomb" format="2">
  <unicode hex="030A"/>
  <anchor x="180" y="527" name="_top"/>
  <anchor x="221" y="836" name="top"/>
  <outline>
    <contour>
      <point x="219" y="836" type="curve" smooth="yes"/>
      <point x="150" y="836"/>
      <point x="95" y="784"/>
      <point x="95" y="720" type="curve" smooth="yes"/>
      <point x="95" y="666"/>
      <point x="136" y="624"/>
      <point x="198" y="624" type="curve" smooth="yes"/>
      <point x="267" y="624"/>
      <point x="322" y="676"/>
      <point x="322" y="740" type="curve" smooth="yes"/>
      <point x="322" y="794"/>
      <point x="281" y="836"/>
    </contour>
    <contour>
      <point x="217" y="786" type="curve" smooth="yes"/>
      <point x="245" y="786"/>
      <point x="262" y="770"/>
      <point x="262" y="740" type="curve" smooth="yes"/>
      <point x="262" y="708"/>
      <point x="241" y="674"/>
      <point x="200" y="674" type="curve" smooth="yes"/>
      <point x="171" y="674"/>
      <point x="156" y="692"/>
      <point x="156" y="721" type="curve" smooth="yes"/>
      <point x="156" y="755"/>
      <point x="177" y="786"/>
    </contour>
  </outline>
</glyph>
<glyph name="hungarumlautcomb" format="2">
  <unicode hex="030B"/>
  <anchor x="171" y="527" name="_top"/>
  <outline>
    <contour>
      <point x="335" y="832" type="line"/>
      <point x="227" y="659" type="line"/>
      <point x="282" y="634" type="line"/>
      <point x="408" y="791" type="line"/>
    </contour>
    <contour>
      <point x="185" y="832" type="line"/>
      <point x="86" y="664" type="line"/>
      <point x="142" y="639" type="line"/>
      <point x="257" y="791" type="line"/>
    </contour>
  </outline>
</glyph>
<glyph name="caroncomb" format="2">
  <unicode hex="030C"/>
  <anchor x="236" y="527" name="_top"/>
  <anchor x="263" y="785" name="top"/>
  <outline>
    <contour>
      <point x="391" y="785" type="line"/>
      <point x="251" y="701" type="line"/>
      <point x="138" y="785" type="line"/>
      <point x="97" y="740" type="line"/>
      <point x="216" y="627" type="line"/>
      <point x="276" y="627" type="line"/>
      <point x="425" y="740" type="line"/>
    </contour>
  </outline>
</glyph>
<glyph name="verticallineabovecomb" format="2">
  <unicode hex="030D"/>
  <anchor x="111" y="527" name="_top"/>
  <anchor x="143" y="859" name="top"/>
  <outline>
    <contour>
      <point x="81" y="627" type="line"/>
      <point x="168" y="627" type="line"/>
      <point x="201" y="859" type="line"/>
      <point x="114" y="859" type="line"/>
    </contour>
  </outline>
</glyph>
<glyph name="dblgravecomb" format="2">
  <unicode hex="030F"/>
  <anchor x="257" y="527" name="_top"/>
  <anchor x="248" y="832" name="top"/>
  <outline>
    <contour>
      <point x="186" y="832" type="line"/>
      <point x="104" y="791" type="line"/>
      <point x="188" y="634" type="line"/>
      <point x="247" y="659" type="line"/>
    </contour>
    <contour>
      <point x="336" y="832" type="line"/>
      <point x="254" y="791" type="line"/>
      <point x="329" y="639" type="line"/>
      <point x="388" y="664" type="line"/>
    </contour>
  </outline>
</glyph>
<glyph name="lefttackbelowcomb" format="2">
  <unicode hex="0318"/>
  <anchor x="113" y="0" name="_bottom"/>
  <anchor x="76" y="-353" name="bottom"/>
  <outline>
    <contour>
      <point x="124" y="-63" type="line"/>
      <point x="108" y="-180" type="line"/>
      <point x="-31" y="-180" type="line"/>
      <point x="-39" y="-237" type="line"/>
      <point x="100" y="-237" type="line"/>
      <point x="83" y="-353" type="line"/>
      <point x="146" y="-353" type="line"/>
      <point x="187" y="-63" type="line"/>
    </contour>
  </outline>
</glyph>
<glyph name="righttackbelowcomb" format="2">
  <unicode hex="0319"/>
  <anchor x="76" y="0" name="_bottom"/>
  <anchor x="39" y="-353" name="bottom"/>
  <outline>
    <contour>
      <point x="47" y="-63" type="line"/>
      <point x="-16" y="-63" type="line"/>
      <point x="-56" y="-353" type="line"/>
      <point x="7" y="-353" type="line"/>
      <point x="23" y="-237" type="line"/>
      <point x="162" y="-237" type="line"/>
      <point x="170" y="-180" type="line"/>
      <point x="31" y="-180" type="line"/>
    </contour>
  </outline>
</glyph>
<glyph name="leftangleabovecomb" format="2">
  <unicode hex="031A"/>
  <anchor x="167" y="527" name="_top"/>
  <anchor x="192" y="779" name="top"/>
  <outline>
    <contour>
      <point x="103" y="779" type="line"/>
      <point x="95" y="720" type="line"/>
      <point x="214" y="720" type="line"/>
      <point x="196" y="594" type="line"/>
      <point x="258" y="594" type="line"/>
      <point x="284" y="779" type="line"/>
    </contour>
  </outline>
</glyph>
<glyph name="horncomb" format="2">
  <unicode hex="031B"/>
  <anchor x="93" y="527" name="_topright"/>
  <anchor x="144" y="527" name="topright"/>
  <outline>
    <contour>
      <point x="66" y="417" type="line"/>
      <point x="155" y="422"/>
      <point x="203" y="468"/>
      <point x="203" y="549" type="curve" smooth="yes"/>
      <point x="203" y="572"/>
      <point x="199" y="595"/>
      <point x="194" y="609" type="curve"/>
      <point x="122" y="598" type="line"/>
      <point x="126" y="585"/>
      <point x="128" y="568"/>
      <point x="128" y="551" type="curve" smooth="yes"/>
      <point x="128" y="504"/>
      <point x="108" y="476"/>
      <point x="60" y="473" type="curve"/>
    </contour>
  </outline>
</glyph>
<glyph name="downtackbelowcomb" format="2">
  <unicode hex="031E"/>
  <anchor x="143" y="0" name="_bottom"/>
  <anchor x="99" y="-310" name="bottom"/>
  <outline>
    <contour>
      <point x="272" y="-150" type="line"/>
      <point x="280" y="-91" type="line"/>
      <point x="-20" y="-91" type="line"/>
      <point x="-28" y="-150" type="line"/>
      <point x="90" y="-150" type="line"/>
      <point x="67" y="-310" type="line"/>
      <point x="130" y="-310" type="line"/>
      <point x="153" y="-150" type="line"/>
    </contour>
  </outline>
</glyph>
<glyph name="commaaccentcomb" format="2">
  <unicode hex="0326"/>
  <anchor x="53" y="0" name="_bottom"/>
  <outline>
    <contour>
      <point x="41" y="-77" type="curve" smooth="yes"/>
      <point x="8" y="-77"/>
      <point x="-20" y="-102"/>
      <point x="-20" y="-136" type="curve" smooth="yes"/>
      <point x="-20" y="-153"/>
      <point x="-11" y="-168"/>
      <point x="-1" y="-178" type="curve"/>
      <point x="-49" y="-296" type="line"/>
      <point x="5" y="-296" type="line"/>
      <point x="57" y="-214" type="line" smooth="yes"/>
      <point x="84" y="-171"/>
      <point x="93" y="-153"/>
      <point x="93" y="-129" type="curve" smooth="yes"/>
      <point x="93" y="-104"/>
      <point x="75" y="-77"/>
    </contour>
  </outline>
</glyph>
<glyph name="cedillacomb" format="2">
  <unicode hex="0327"/>
  <anchor x="89" y="0" name="_bottom"/>
  <anchor x="76" y="-241" name="bottom"/>
  <outline>
    <contour>
      <point x="115" y="16" type="line"/>
      <point x="56" y="16" type="line"/>
      <point x="28" y="-99" type="line"/>
      <point x="92" y="-99"/>
      <point x="110" y="-109"/>
      <point x="110" y="-138" type="curve" smooth="yes"/>
      <point x="110" y="-166"/>
      <point x="87" y="-181"/>
      <point x="56" y="-181" type="curve" smooth="yes"/>
      <point x="26" y="-181"/>
      <point x="10" y="-174"/>
      <point x="-6" y="-165" type="curve"/>
      <point x="-37" y="-214" type="line"/>
      <point x="-17" y="-229"/>
      <point x="13" y="-241"/>
      <point x="56" y="-241" type="curve" smooth="yes"/>
      <point x="139" y="-241"/>
      <point x="185" y="-193"/>
      <point x="185" y="-137" type="curve" smooth="yes"/>
      <point x="185" y="-95"/>
      <point x="159" y="-61"/>
      <point x="103" y="-56" type="curve"/>
    </contour>
  </outline>
</glyph>
<glyph name="bridgebelowcomb" format="2">
  <unicode hex="032A"/>
  <anchor x="133" y="0" name="_bottom"/>
  <anchor x="112" y="-240" name="bottom"/>
  <outline>
    <contour>
      <point x="-40" y="-240" type="line"/>
      <point x="23" y="-240" type="line"/>
      <point x="36" y="-150" type="line"/>
      <point x="188" y="-150" type="line"/>
      <point x="175" y="-240" type="line"/>
      <point x="238" y="-240" type="line"/>
      <point x="259" y="-91" type="line"/>
      <point x="-19" y="-91" type="line"/>
    </contour>
  </outline>
</glyph>
<glyph name="dblarchinvertedbelowcomb" format="2">
  <unicode hex="032B"/>
  <anchor x="191" y="0" name="_bottom"/>
  <anchor x="175" y="-197" name="bottom"/>
  <outline>
    <contour>
      <point x="247" y="-197" type="curve" smooth="yes"/>
      <point x="299" y="-197"/>
      <point x="344" y="-151"/>
      <point x="362" y="-67" type="curve"/>
      <point x="317" y="-58" type="line"/>
      <point x="308" y="-98"/>
      <point x="282" y="-127"/>
      <point x="249" y="-127" type="curve" smooth="yes"/>
      <point x="219" y="-127"/>
      <point x="206" y="-104"/>
      <point x="205" y="-64" type="curve"/>
      <point x="163" y="-58" type="line"/>
      <point x="156" y="-145"/>
      <point x="192" y="-197"/>
    </contour>
    <contour>
      <point x="69" y="-197" type="curve" smooth="yes"/>
      <point x="120" y="-197"/>
      <point x="166" y="-151"/>
      <point x="184" y="-64" type="curve"/>
      <point x="140" y="-58" type="line"/>
      <point x="130" y="-98"/>
      <point x="104" y="-127"/>
      <point x="71" y="-127" type="curve" smooth="yes"/>
      <point x="41" y="-127"/>
      <point x="28" y="-104"/>
      <point x="27" y="-64" type="curve"/>
      <point x="-15" y="-61" type="line"/>
      <point x="-22" y="-145"/>
      <point x="14" y="-197"/>
    </contour>
  </outline>
</glyph>
<glyph name="circumflexbelowcomb" format="2">
  <unicode hex="032D"/>
  <anchor x="158" y="0" name="_bottom"/>
  <anchor x="129" y="-226" name="bottom"/>
  <outline>
    <contour>
      <point x="5" y="-226" type="line"/>
      <point x="139" y="-142" type="line"/>
      <point x="252" y="-226" type="line"/>
      <point x="296" y="-181" type="line"/>
      <point x="177" y="-68" type="line"/>
      <point x="117" y="-68" type="line"/>
      <point x="-32" y="-181" type="line"/>
    </contour>
  </outline>
</glyph>
<glyph name="lowlinecomb" format="2">
  <unicode hex="0332"/>
  <anchor x="196" y="0" name="_bottom"/>
  <anchor x="179" y="-173" name="bottom"/>
  <outline>
    <contour>
      <point x="375" y="-173" type="line"/>
      <point x="385" y="-104" type="line"/>
      <point x="-22" y="-104" type="line"/>
      <point x="-32" y="-173" type="line"/>
    </contour>
  </outline>
</glyph>
<glyph name="ringhalfrightbelowcomb" format="2">
  <unicode hex="0339"/>
  <anchor x="44" y="0" name="_bottom"/>
  <anchor x="23" y="-275" name="bottom"/>
  <outline>
    <contour>
      <point x="-45" y="-275" type="curve"/>
      <point x="-33" y="-225" type="line"/>
      <point x="1" y="-225"/>
      <point x="25" y="-201"/>
      <point x="25" y="-161" type="curve" smooth="yes"/>
      <point x="25" y="-130"/>
      <point x="6" y="-113"/>
      <point x="-23" y="-113" type="curve"/>
      <point x="-11" y="-63" type="line"/>
      <point x="44" y="-63"/>
      <point x="86" y="-100"/>
      <point x="86" y="-159" type="curve" smooth="yes"/>
      <point x="86" y="-234"/>
      <point x="26" y="-275"/>
    </contour>
  </outline>
</glyph>
<glyph name="bridgeinvertedbelowcomb" format="2">
  <unicode hex="033A"/>
  <anchor x="132" y="0" name="_bottom"/>
  <anchor x="111" y="-241" name="bottom"/>
  <outline>
    <contour>
      <point x="-20" y="-92" type="line"/>
      <point x="-41" y="-241" type="line"/>
      <point x="237" y="-241" type="line"/>
      <point x="258" y="-92" type="line"/>
      <point x="195" y="-92" type="line"/>
      <point x="182" y="-182" type="line"/>
      <point x="30" y="-182" type="line"/>
      <point x="43" y="-92" type="line"/>
    </contour>
  </outline>
</glyph>
<glyph name="squarebelowcomb" format="2">
  <unicode hex="033B"/>
  <anchor x="133" y="0" name="_bottom"/>
  <anchor x="113" y="-240" name="bottom"/>
  <outline>
    <contour>
      <point x="-40" y="-240" type="line"/>
      <point x="238" y="-240" type="line"/>
      <point x="262" y="-68" type="line"/>
      <point x="-16" y="-68" type="line"/>
    </contour>
    <contour>
      <point x="28" y="-186" type="line"/>
      <point x="37" y="-122" type="line"/>
      <point x="195" y="-122" type="line"/>
      <point x="186" y="-186" type="line"/>
    </contour>
  </outline>
</glyph>
<glyph name="seagullbelowcomb" format="2">
  <unicode hex="033C"/>
  <anchor x="175" y="0" name="_bottom"/>
  <anchor x="159" y="-199" name="bottom"/>
  <outline>
    <contour>
      <point x="260" y="-60" type="curve" smooth="yes"/>
      <point x="209" y="-60"/>
      <point x="163" y="-106"/>
      <point x="146" y="-199" type="curve"/>
      <point x="189" y="-199" type="line"/>
      <point x="201" y="-159"/>
      <point x="225" y="-130"/>
      <point x="258" y="-130" type="curve" smooth="yes"/>
      <point x="287" y="-130"/>
      <point x="302" y="-153"/>
      <point x="301" y="-196" type="curve"/>
      <point x="345" y="-199" type="line"/>
      <point x="351" y="-112"/>
      <point x="316" y="-60"/>
    </contour>
    <contour>
      <point x="82" y="-60" type="curve" smooth="yes"/>
      <point x="30" y="-60"/>
      <point x="-15" y="-106"/>
      <point x="-32" y="-190" type="curve"/>
      <point x="11" y="-199" type="line"/>
      <point x="23" y="-159"/>
      <point x="46" y="-130"/>
      <point x="80" y="-130" type="curve" smooth="yes"/>
      <point x="109" y="-130"/>
      <point x="124" y="-153"/>
      <point x="124" y="-199" type="curve"/>
      <point x="167" y="-199" type="line"/>
      <point x="173" y="-112"/>
      <point x="137" y="-60"/>
    </contour>
  </outline>
</glyph>
<glyph name="Heta" format="2">
  <advance width="515"/>
  <unicode hex="0370"/>
  <anchor x="220.467" y="0" name="bottom"/>
  <anchor x="317.3" y="689" name="top"/>
  <outline>
    <contour>
      <point x="499" y="323" type="line"/>
      <point x="510" y="401" type="line"/>
      <point x="212" y="401" type="line"/>
      <point x="253" y="689" type="line"/>
      <point x="159" y="689" type="line"/>
      <point x="62" y="0" type="line"/>
      <point x="156" y="0" type="line"/>
      <point x="201" y="323" type="line"/>
    </contour>
  </outline>
</glyph>
<glyph name="Archaicsampi" format="2">
  <advance width="575"/>
  <unicode hex="0372"/>
  <anchor x="250.467" y="0" name="bottom"/>
  <anchor x="347.3" y="689" name="top"/>
  <outline>
    <contour>
      <point x="142" y="608" type="line"/>
      <point x="62" y="608" type="line"/>
      <point x="33" y="400" type="line"/>
      <point x="113" y="400" type="line"/>
    </contour>
    <contour>
      <point x="621" y="689" type="line"/>
      <point x="74" y="689" type="line"/>
      <point x="62" y="608" type="line"/>
      <point x="288" y="608" type="line"/>
      <point x="203" y="0" type="line"/>
      <point x="298" y="0" type="line"/>
      <point x="383" y="608" type="line"/>
      <point x="609" y="608" type="line"/>
    </contour>
    <contour>
      <point x="609" y="608" type="line"/>
      <point x="529" y="608" type="line"/>
      <point x="499" y="401" type="line"/>
      <point x="579" y="401" type="line"/>
    </contour>
  </outline>
</glyph>
<glyph name="archaicsampi" format="2">
  <advance width="490"/>
  <unicode hex="0373"/>
  <anchor x="282.033" y="527" name="top"/>
  <outline>
    <contour>
      <point x="320" y="484" type="line"/>
      <point x="229" y="484" type="line"/>
      <point x="131" y="-213" type="line"/>
      <point x="225" y="-202" type="line"/>
    </contour>
    <contour>
      <point x="28" y="439" type="line"/>
      <point x="60" y="449"/>
      <point x="72" y="451"/>
      <point x="115" y="451" type="curve" smooth="yes"/>
      <point x="513" y="452" type="line"/>
      <point x="524" y="527" type="line"/>
      <point x="123" y="527" type="line" smooth="yes"/>
      <point x="75" y="527"/>
      <point x="53" y="523"/>
      <point x="16" y="512" type="curve"/>
    </contour>
  </outline>
</glyph>
<glyph name="tonos" format="2">
  <advance width="193"/>
  <unicode hex="0384"/>
  <anchor x="99" y="527" name="_top"/>
  <outline>
    <contour>
      <point x="144" y="812" type="line"/>
      <point x="78" y="606" type="line"/>
      <point x="143" y="595" type="line"/>
      <point x="239" y="794" type="line"/>
    </contour>
  </outline>
</glyph>
<glyph name="Lambda" format="2">
  <advance width="567"/>
  <unicode hex="039B"/>
  <anchor x="246" y="0" name="bottom"/>
  <anchor x="344" y="689" name="top"/>
  <outline>
    <contour>
      <point x="403" y="689" type="line"/>
      <point x="284" y="689" type="line"/>
      <point x="-32" y="0" type="line"/>
      <point x="65" y="0" type="line"/>
      <point x="332" y="610" type="line"/>
      <point x="427" y="0" type="line"/>
      <point x="524" y="0" type="line"/>
    </contour>
  </outline>
</glyph>
<glyph name="Xi" format="2">
  <advance width="505"/>
  <unicode hex="039E"/>
  <anchor x="215.467" y="0" name="bottom"/>
  <anchor x="312.3" y="689" name="top"/>
  <outline>
    <contour>
      <point x="436" y="88" type="line"/>
      <point x="19" y="88" type="line"/>
      <point x="7" y="0" type="line"/>
      <point x="424" y="0" type="line"/>
    </contour>
    <contour>
      <point x="411" y="392" type="line"/>
      <point x="122" y="392" type="line"/>
      <point x="110" y="307" type="line"/>
      <point x="399" y="307" type="line"/>
    </contour>
    <contour>
      <point x="513" y="689" type="line"/>
      <point x="104" y="689" type="line"/>
      <point x="92" y="603" type="line"/>
      <point x="488" y="603" type="line"/>
    </contour>
  </outline>
</glyph>
<glyph name="Sigma" format="2">
  <advance width="497"/>
  <unicode hex="03A3"/>
  <anchor x="211.467" y="0" name="bottom"/>
  <anchor x="308.3" y="689" name="top"/>
  <outline>
    <contour>
      <point x="518" y="689" type="line"/>
      <point x="99" y="689" type="line"/>
      <point x="89" y="611" type="line"/>
      <point x="270" y="340" type="line"/>
      <point x="12" y="78" type="line"/>
      <point x="2" y="0" type="line"/>
      <point x="421" y="0" type="line"/>
      <point x="432" y="78" type="line"/>
      <point x="120" y="78" type="line"/>
      <point x="351" y="304" type="line"/>
      <point x="357" y="366" type="line"/>
      <point x="193" y="611" type="line"/>
      <point x="507" y="611" type="line"/>
    </contour>
  </outline>
</glyph>
<glyph name="iota" format="2">
  <advance width="271"/>
  <unicode hex="03B9"/>
  <anchor x="98.4675" y="0" name="bottom"/>
  <anchor x="172" y="527" name="top"/>
  <outline>
    <contour>
      <point x="217" y="527" type="line"/>
      <point x="126" y="527" type="line"/>
      <point x="71" y="134" type="line" smooth="yes"/>
      <point x="60" y="52"/>
      <point x="83" y="10"/>
      <point x="160" y="-11" type="curve"/>
      <point x="198" y="55" type="line"/>
      <point x="164" y="70"/>
      <point x="155" y="86"/>
      <point x="162" y="138" type="curve" smooth="yes"/>
    </contour>
  </outline>
</glyph>
<glyph name="mu" format="2">
  <advance width="582"/>
  <unicode hex="03BC"/>
  <anchor x="328.033" y="527" name="top"/>
  <outline>
    <contour>
      <point x="470" y="177" type="curve" smooth="yes"/>
      <point x="519" y="527" type="line"/>
      <point x="428" y="527" type="line"/>
      <point x="377.885" y="163.435" type="line"/>
      <point x="332" y="88"/>
      <point x="280" y="64"/>
      <point x="233" y="64" type="curve" smooth="yes"/>
      <point x="191" y="64"/>
      <point x="159" y="84"/>
      <point x="169" y="153" type="curve" smooth="yes"/>
      <point x="222" y="527" type="line"/>
      <point x="131" y="527" type="line"/>
      <point x="27" y="-213" type="line"/>
      <point x="119" y="-202" type="line"/>
      <point x="133" y="-99" type="line" smooth="yes"/>
      <point x="142" y="-36"/>
      <point x="144" y="-1"/>
      <point x="138" y="22" type="curve"/>
      <point x="157" y="-1"/>
      <point x="184" y="-12"/>
      <point x="218" y="-12" type="curve" smooth="yes"/>
      <point x="288" y="-12"/>
      <point x="341.336" y="36.735"/>
      <point x="374.912" y="84.931" type="curve"/>
      <point x="374.011" y="52.413"/>
      <point x="374.364" y="26.849"/>
      <point x="386" y="-10" type="curve"/>
      <point x="470" y="-2" type="line"/>
      <point x="462" y="41"/>
      <point x="459" y="98"/>
    </contour>
  </outline>
</glyph>
<glyph name="nu" format="2">
  <advance width="476.124"/>
  <unicode hex="03BD"/>
  <anchor x="201.029" y="0" name="bottom"/>
  <anchor x="275.095" y="527" name="top"/>
  <outline>
    <contour>
      <point x="117" y="536" type="curve"/>
      <point x="29" y="507" type="line"/>
      <point x="87" y="430"/>
      <point x="111" y="271"/>
      <point x="141" y="0" type="curve"/>
      <point x="253" y="0" type="line"/>
      <point x="503" y="519" type="line"/>
      <point x="414" y="538" type="line"/>
      <point x="209" y="79" type="line"/>
      <point x="192" y="332"/>
      <point x="160" y="471"/>
    </contour>
  </outline>
</glyph>
<glyph name="pi" format="2">
  <advance width="589"/>
  <unicode hex="03C0"/>
  <anchor x="257.467" y="0" name="bottom"/>
  <anchor x="331.533" y="527" name="top"/>
  <outline>
    <contour>
      <point x="603" y="527" type="line"/>
      <point x="181" y="527" type="line" smooth="yes"/>
      <point x="124" y="528"/>
      <point x="85" y="523"/>
      <point x="52" y="511" type="curve"/>
      <point x="64" y="439" type="line"/>
      <point x="91.3" y="446.445"/>
      <point x="105.597" y="450.469"/>
      <point x="139.727" y="451.637" type="curve"/>
      <point x="77" y="0" type="line"/>
      <point x="168" y="0" type="line"/>
      <point x="230.778" y="452" type="line"/>
      <point x="408.748" y="452" type="line"/>
      <point x="364" y="134" type="line" smooth="yes"/>
      <point x="353" y="52"/>
      <point x="375" y="9"/>
      <point x="453" y="-11" type="curve"/>
      <point x="491" y="55" type="line"/>
      <point x="457" y="70"/>
      <point x="448" y="86"/>
      <point x="455" y="138" type="curve" smooth="yes"/>
      <point x="499.721" y="452" type="line"/>
      <point x="592" y="452" type="line"/>
    </contour>
  </outline>
</glyph>
<glyph name="rho" format="2">
  <advance width="577"/>
  <unicode hex="03C1"/>
  <anchor x="329" y="527" name="top"/>
  <outline>
    <contour>
      <point x="17" y="-216" type="line"/>
      <point x="110" y="-204" type="line"/>
      <point x="173" y="255" type="line" smooth="yes"/>
      <point x="191" y="389"/>
      <point x="237" y="467"/>
      <point x="327" y="467" type="curve" smooth="yes"/>
      <point x="392" y="467"/>
      <point x="425" y="426"/>
      <point x="425" y="337" type="curve" smooth="yes"/>
      <point x="425" y="230"/>
      <point x="387" y="63"/>
      <point x="258" y="63" type="curve" smooth="yes"/>
      <point x="207" y="63"/>
      <point x="167" y="90"/>
      <point x="149" y="136" type="curve"/>
      <point x="136" y="59" type="line"/>
      <point x="160" y="15"/>
      <point x="202" y="-12"/>
      <point x="267" y="-12" type="curve" smooth="yes"/>
      <point x="459" y="-12"/>
      <point x="522" y="202"/>
      <point x="522" y="337" type="curve" smooth="yes"/>
      <point x="522" y="460"/>
      <point x="454" y="539"/>
      <point x="329" y="539" type="curve" smooth="yes"/>
      <point x="195" y="539"/>
      <point x="109" y="447"/>
      <point x="85" y="274" type="curve" smooth="yes"/>
    </contour>
  </outline>
</glyph>
<glyph name="psi" format="2">
  <advance width="748"/>
  <unicode hex="03C8"/>
  <anchor x="411.033" y="527" name="top"/>
  <outline>
    <contour>
      <point x="690" y="444" type="curve" smooth="yes"/>
      <point x="690" y="472"/>
      <point x="688" y="499"/>
      <point x="686" y="527" type="curve"/>
      <point x="598" y="527" type="line"/>
      <point x="599" y="503"/>
      <point x="600" y="477"/>
      <point x="600" y="446" type="curve" smooth="yes"/>
      <point x="600" y="270.73"/>
      <point x="592.581" y="83.404"/>
      <point x="391.082" y="61.752" type="curve"/>
      <point x="456" y="527" type="line"/>
      <point x="368" y="527" type="line"/>
      <point x="303.399" y="60.991" type="line"/>
      <point x="183.439" y="69.778"/>
      <point x="150.698" y="125.784"/>
      <point x="164" y="217" type="curve" smooth="yes"/>
      <point x="208" y="527" type="line"/>
      <point x="117" y="527" type="line"/>
      <point x="73" y="216" type="line" smooth="yes"/>
      <point x="54.8" y="89.56"/>
      <point x="119.179" y="-2.014"/>
      <point x="293.382" y="-11.261" type="curve"/>
      <point x="265" y="-216" type="line"/>
      <point x="354" y="-204" type="line"/>
      <point x="380.911" y="-11.139" type="line"/>
      <point x="650.815" y="5.105"/>
      <point x="690" y="182.979"/>
    </contour>
  </outline>
</glyph>
<glyph name="KaiSymbol" format="2">
  <advance width="605"/>
  <unicode hex="03CF"/>
  <anchor x="275" y="0" name="bottom"/>
  <anchor x="385" y="689" name="top"/>
  <outline>
    <contour>
      <point x="455" y="78" type="line"/>
      <point x="444" y="0" type="line"/>
      <point x="558" y="0" type="line"/>
      <point x="565" y="78" type="line"/>
    </contour>
    <component base="Kappa"/>
    <component base="hookHELPER.case" xOffset="300"/>
  </outline>
</glyph>
<glyph name="KoppaArchaic" format="2">
  <advance width="686"/>
  <unicode hex="03D8"/>
  <anchor x="303" y="0" name="bottom"/>
  <anchor x="407" y="689" name="top"/>
  <anchor x="169" y="689" name="topleft"/>
  <anchor x="603" y="689" name="topright"/>
  <outline>
    <contour>
      <point x="224" y="-202" type="line"/>
      <point x="321" y="-202" type="line"/>
      <point x="349" y="0" type="line"/>
      <point x="252" y="0" type="line"/>
    </contour>
    <component base="O"/>
  </outline>
</glyph>
<glyph name="koppaArchaic" format="2">
  <advance width="578"/>
  <unicode hex="03D9"/>
  <anchor x="254" y="0" name="bottom"/>
  <anchor x="326" y="527" name="top"/>
  <anchor x="512" y="527" name="topright"/>
  <outline>
    <contour>
      <point x="290" y="0" type="line"/>
      <point x="204" y="0" type="line"/>
      <point x="174" y="-213" type="line"/>
      <point x="262" y="-202" type="line"/>
    </contour>
    <component base="o"/>
  </outline>
</glyph>
<glyph name="Digamma" format="2">
  <advance width="518"/>
  <unicode hex="03DC"/>
  <anchor x="214.467" y="0.0" name="bottom"/>
  <anchor x="167" y="0" name="bottomright"/>
  <anchor x="374" y="689" name="top"/>
  <outline>
    <contour>
      <point x="427" y="294" type="curve"/>
      <point x="458" y="362" type="line"/>
      <point x="429" y="377"/>
      <point x="404" y="385"/>
      <point x="356" y="385" type="curve" smooth="yes"/>
      <point x="171" y="385" type="line"/>
      <point x="160" y="307" type="line"/>
      <point x="341" y="307" type="line" smooth="yes"/>
      <point x="383" y="307"/>
      <point x="405" y="302"/>
    </contour>
    <component base="Gamma"/>
  </outline>
</glyph>
<glyph name="Koppa" format="2">
  <advance width="454"/>
  <unicode hex="03DE"/>
  <anchor x="189.967" y="0" name="bottom"/>
  <anchor x="286.8" y="689" name="top"/>
  <outline>
    <contour>
      <point x="108" y="0" type="line"/>
      <point x="215" y="0" type="line"/>
      <point x="450" y="307" type="line"/>
      <point x="375" y="340" type="line"/>
    </contour>
    <contour>
      <point x="58" y="307" type="line"/>
      <point x="450" y="307" type="line"/>
      <point x="430" y="392" type="line"/>
      <point x="38" y="392" type="line"/>
    </contour>
    <contour>
      <point x="112" y="359" type="line"/>
      <point x="377" y="689" type="line"/>
      <point x="270" y="689" type="line"/>
      <point x="38" y="392" type="line"/>
    </contour>
  </outline>
</glyph>
<glyph name="Sampi" format="2">
  <advance width="580"/>
  <unicode hex="03E0"/>
  <anchor x="252.967" y="0" name="bottom"/>
  <anchor x="349.8" y="689" name="top"/>
  <outline>
    <contour>
      <point x="445" y="0" type="line"/>
      <point x="537" y="0" type="line"/>
      <point x="362" y="689" type="line"/>
      <point x="276" y="689" type="line"/>
      <point x="317" y="542" type="line"/>
    </contour>
    <contour>
      <point x="-32" y="0" type="line"/>
      <point x="65" y="0" type="line"/>
      <point x="377" y="599" type="line"/>
      <point x="310" y="621" type="line"/>
    </contour>
    <contour>
      <point x="166" y="2" type="line"/>
      <point x="252" y="0" type="line"/>
      <point x="438" y="386" type="line"/>
      <point x="375" y="405" type="line"/>
    </contour>
  </outline>
</glyph>
<glyph name="rhoStrokeSymbol" format="2">
  <advance width="581"/>
  <unicode hex="03FC"/>
  <anchor x="328" y="527" name="top"/>
  <outline>
    <contour>
      <point x="-35" y="-64" type="line"/>
      <point x="-45" y="-134" type="line"/>
      <point x="33" y="-134" type="line"/>
      <point x="280" y="-134" type="line"/>
      <point x="290" y="-64" type="line"/>
    </contour>
    <component base="rho" xOffset="-1"/>
  </outline>
</glyph>
<glyph name="Tshe-cy" format="2">
  <advance width="704"/>
  <unicode hex="040B"/>
  <anchor x="366.967" y="0.0" name="bottom"/>
  <anchor x="643" y="0" name="bottomright"/>
  <anchor x="463.8" y="689.0" name="top"/>
  <outline>
    <contour>
      <point x="562" y="689" type="line"/>
      <point x="74" y="689" type="line"/>
      <point x="62" y="608" type="line"/>
      <point x="540" y="608" type="line"/>
    </contour>
    <component base="Shha-cy" xOffset="104"/>
  </outline>
</glyph>
<glyph name="Ge-cy" format="2">
  <advance width="503"/>
  <unicode hex="0413"/>
  <anchor x="214.467" y="0" name="bottom"/>
  <anchor x="167" y="0" name="bottomright"/>
  <anchor x="374" y="689" name="top"/>
  <outline>
    <contour>
      <point x="159" y="689" type="line"/>
      <point x="63" y="0" type="line"/>
      <point x="157" y="0" type="line"/>
      <point x="244" y="623" type="line"/>
    </contour>
    <contour>
      <point x="554" y="689" type="line"/>
      <point x="161" y="689" type="line"/>
      <point x="227" y="607" type="line"/>
      <point x="529" y="607" type="line"/>
    </contour>
  </outline>
</glyph>
<glyph name="De-cy" format="2">
  <advance width="605"/>
  <unicode hex="0414"/>
  <anchor x="479" y="0" name="_bottom"/>
  <anchor x="362.3" y="689" name="top"/>
  <outline>
    <contour>
      <point x="566" y="689" type="line"/>
      <point x="219" y="689" type="line"/>
      <point x="166" y="492" type="line" smooth="yes"/>
      <point x="90" y="204"/>
      <point x="69" y="131"/>
      <point x="8" y="78" type="curve"/>
      <point x="-1" y="0" type="line"/>
      <point x="469" y="0" type="line"/>
    </contour>
    <contour>
      <point x="461" y="611" type="line"/>
      <point x="386" y="78" type="line"/>
      <point x="91" y="78" type="line"/>
      <point x="168" y="133"/>
      <point x="189" y="210"/>
      <point x="259" y="482" type="curve" smooth="yes"/>
      <point x="291" y="611" type="line"/>
    </contour>
    <component base="descStraight-cy.case" xOffset="405"/>
    <component base="descStraightleft-cy.case" xOffset="-67"/>
  </outline>
</glyph>
<glyph name="Ka-cy" format="2">
  <advance width="595"/>
  <unicode hex="041A"/>
  <anchor x="260.467" y="0" name="bottom"/>
  <anchor x="524" y="0" name="bottomright"/>
  <anchor x="359" y="689" name="top"/>
  <outline>
    <contour>
      <point x="596" y="701" type="line"/>
      <point x="524" y="678"/>
      <point x="496" y="663"/>
      <point x="430" y="569" type="curve" smooth="yes"/>
      <point x="313" y="401" type="line"/>
      <point x="212.454" y="401" type="line"/>
      <point x="253" y="689" type="line"/>
      <point x="159" y="689" type="line"/>
      <point x="62" y="0" type="line"/>
      <point x="156" y="0" type="line"/>
      <point x="201.473" y="323" type="line"/>
      <point x="307" y="323" type="line"/>
      <point x="450" y="0" type="line"/>
      <point x="548" y="0" type="line"/>
      <point x="387" y="361" type="line"/>
      <point x="499" y="519" type="line" smooth="yes"/>
      <point x="559" y="604"/>
      <point x="577" y="614"/>
      <point x="623" y="628" type="curve"/>
    </contour>
  </outline>
</glyph>
<glyph name="Pe-cy" format="2">
  <advance width="669"/>
  <unicode hex="041F"/>
  <anchor x="297.467" y="0" name="bottom"/>
  <anchor x="543" y="0" name="bottomright"/>
  <anchor x="394.3" y="689" name="top"/>
  <outline>
    <contour>
      <point x="630" y="689" type="line"/>
      <point x="159" y="689" type="line"/>
      <point x="62" y="0" type="line"/>
      <point x="156" y="0" type="line"/>
      <point x="241" y="608" type="line"/>
      <point x="524" y="608" type="line"/>
      <point x="439" y="0" type="line"/>
      <point x="533" y="0" type="line"/>
    </contour>
  </outline>
</glyph>
<glyph name="U-cy" format="2">
  <advance width="534"/>
  <unicode hex="0423"/>
  <anchor x="229.967" y="0" name="bottom"/>
  <anchor x="327" y="689" name="top"/>
  <outline>
    <contour>
      <point x="600" y="689" type="line"/>
      <point x="502" y="689" type="line"/>
      <point x="276" y="247" type="line"/>
      <point x="155" y="689" type="line"/>
      <point x="60" y="689" type="line"/>
      <point x="209" y="189" type="line"/>
      <point x="242" y="191" type="line"/>
      <point x="201" y="106"/>
      <point x="158" y="75"/>
      <point x="64" y="57" type="curve"/>
      <point x="72" y="-12" type="line"/>
      <point x="199" y="7"/>
      <point x="260" y="51"/>
      <point x="331" y="184" type="curve" smooth="yes"/>
    </contour>
  </outline>
</glyph>
<glyph name="Che-cy" format="2">
  <advance width="606"/>
  <unicode hex="0427"/>
  <anchor x="265.967" y="0" name="bottom"/>
  <anchor x="356" y="0" name="bottomleft"/>
  <anchor x="480" y="0" name="bottomright"/>
  <anchor x="333" y="689" name="top"/>
  <outline>
    <contour>
      <point x="193" y="689" type="line"/>
      <point x="99" y="689" type="line"/>
      <point x="62" y="427" type="line" smooth="yes"/>
      <point x="44" y="300"/>
      <point x="116" y="217"/>
      <point x="236" y="217" type="curve" smooth="yes"/>
      <point x="313" y="217"/>
      <point x="364" y="238"/>
      <point x="437" y="290" type="curve"/>
      <point x="435" y="367" type="line"/>
      <point x="396" y="331"/>
      <point x="342" y="298"/>
      <point x="264" y="298" type="curve" smooth="yes"/>
      <point x="183" y="298"/>
      <point x="143" y="336"/>
      <point x="156" y="428" type="curve" smooth="yes"/>
    </contour>
    <contour>
      <point x="567" y="689" type="line"/>
      <point x="473" y="689" type="line"/>
      <point x="376" y="0" type="line"/>
      <point x="470" y="0" type="line"/>
    </contour>
  </outline>
</glyph>
<glyph name="Sha-cy" format="2">
  <advance width="915"/>
  <unicode hex="0428"/>
  <anchor x="420.467" y="0" name="bottom"/>
  <anchor x="789" y="0" name="bottomright"/>
  <anchor x="517.3" y="689" name="top"/>
  <outline>
    <contour>
      <point x="876" y="689" type="line"/>
      <point x="784" y="689" type="line"/>
      <point x="698" y="78" type="line"/>
      <point x="476" y="78" type="line"/>
      <point x="562" y="689" type="line"/>
      <point x="473" y="689" type="line"/>
      <point x="387" y="78" type="line"/>
      <point x="165" y="78" type="line"/>
      <point x="251" y="689" type="line"/>
      <point x="159" y="689" type="line"/>
      <point x="62" y="0" type="line"/>
      <point x="779" y="0" type="line"/>
    </contour>
  </outline>
</glyph>
<glyph name="Hardsign-cy" format="2">
  <advance width="636"/>
  <unicode hex="042A"/>
  <anchor x="314.967" y="0.0" name="bottom"/>
  <anchor x="411.8" y="689.0" name="top"/>
  <outline>
    <contour>
      <point x="215" y="608" type="line"/>
      <point x="321" y="689" type="line"/>
      <point x="60" y="689" type="line"/>
      <point x="48" y="608" type="line"/>
    </contour>
    <component base="Softsign-cy" xOffset="68"/>
  </outline>
</glyph>
<glyph name="Ia-cy" format="2">
  <advance width="606"/>
  <unicode hex="042F"/>
  <anchor x="273" y="0" name="bottom"/>
  <anchor x="370" y="689" name="top"/>
  <outline>
    <contour>
      <point x="277" y="287" type="line"/>
      <point x="189" y="308" type="line"/>
      <point x="-2" y="0" type="line"/>
      <point x="106" y="0" type="line"/>
    </contour>
    <contour>
      <point x="189" y="289" type="curve"/>
      <point x="241" y="273" type="line"/>
      <point x="429" y="271" type="line"/>
      <point x="440" y="346" type="line"/>
      <point x="300" y="346" type="line" smooth="yes"/>
      <point x="228" y="346"/>
      <point x="180" y="382"/>
      <point x="180" y="447" type="curve" smooth="yes"/>
      <point x="180" y="520"/>
      <point x="210" y="615"/>
      <point x="368" y="615" type="curve" smooth="yes"/>
      <point x="462" y="615" type="line"/>
      <point x="376" y="0" type="line"/>
      <point x="470" y="0" type="line"/>
      <point x="567" y="689" type="line"/>
      <point x="373" y="689" type="line" smooth="yes"/>
      <point x="139" y="689"/>
      <point x="81" y="550"/>
      <point x="81" y="448" type="curve" smooth="yes"/>
      <point x="81" y="378"/>
      <point x="119" y="316"/>
    </contour>
  </outline>
</glyph>
<glyph name="ve-cy" format="2">
  <advance width="536"/>
  <unicode hex="0432"/>
  <outline>
    <contour>
      <point x="338" y="539" type="curve" smooth="yes"/>
      <point x="138" y="539"/>
      <point x="52" y="357"/>
      <point x="52" y="211" type="curve" smooth="yes"/>
      <point x="52" y="65"/>
      <point x="147" y="-12"/>
      <point x="276" y="-12" type="curve" smooth="yes"/>
      <point x="382" y="-12"/>
      <point x="487" y="48"/>
      <point x="487" y="168" type="curve" smooth="yes"/>
      <point x="487" y="222.83"/>
      <point x="449.744" y="265.031"/>
      <point x="393.798" y="283.564" type="curve"/>
      <point x="458.998" y="315.856"/>
      <point x="493" y="358"/>
      <point x="493" y="416" type="curve" smooth="yes"/>
      <point x="493" y="495"/>
      <point x="427" y="539"/>
    </contour>
    <contour>
      <point x="328.366" y="258.498" type="curve"/>
      <point x="361.369" y="242.683"/>
      <point x="391" y="217.386"/>
      <point x="391" y="169" type="curve" smooth="yes"/>
      <point x="391" y="101"/>
      <point x="349" y="60"/>
      <point x="272" y="60" type="curve" smooth="yes"/>
      <point x="175" y="60"/>
      <point x="148" y="141"/>
      <point x="148" y="213" type="curve" smooth="yes"/>
      <point x="148" y="219"/>
      <point x="148" y="224"/>
      <point x="148.197" y="229.751" type="curve"/>
      <point x="218.598" y="234.129"/>
      <point x="278.851" y="243.907"/>
    </contour>
    <contour>
      <point x="329" y="470" type="curve" smooth="yes"/>
      <point x="375" y="470"/>
      <point x="404" y="451"/>
      <point x="404" y="410" type="curve" smooth="yes"/>
      <point x="404" y="336.248"/>
      <point x="300" y="305"/>
      <point x="155" y="295" type="curve"/>
      <point x="175" y="391"/>
      <point x="233.861" y="470"/>
    </contour>
  </outline>
</glyph>
<glyph name="ka-cy" format="2">
  <advance width="534"/>
  <unicode hex="043A"/>
  <anchor x="229.967" y="0" name="bottom"/>
  <anchor x="423" y="0" name="bottomright"/>
  <anchor x="310" y="527" name="top"/>
  <outline>
    <contour>
      <point x="478" y="539" type="line"/>
      <point x="411" y="518"/>
      <point x="386" y="495"/>
      <point x="332" y="419" type="curve" smooth="yes"/>
      <point x="256" y="311" type="line"/>
      <point x="192" y="311" type="line"/>
      <point x="222" y="527" type="line"/>
      <point x="131" y="527" type="line"/>
      <point x="57" y="0" type="line"/>
      <point x="148" y="0" type="line"/>
      <point x="182" y="239" type="line"/>
      <point x="250" y="239" type="line"/>
      <point x="357" y="0" type="line"/>
      <point x="457" y="0" type="line"/>
      <point x="330" y="274" type="line"/>
      <point x="394" y="364" type="line" smooth="yes"/>
      <point x="439" y="428"/>
      <point x="455" y="450"/>
      <point x="507" y="470" type="curve"/>
    </contour>
  </outline>
</glyph>
<glyph name="pe-cy" format="2">
  <advance width="584"/>
  <unicode hex="043F"/>
  <anchor x="254.967" y="0" name="bottom"/>
  <anchor x="463" y="0" name="bottomright"/>
  <anchor x="329.033" y="527" name="top"/>
  <outline>
    <contour>
      <point x="362" y="0" type="line"/>
      <point x="453" y="0" type="line"/>
      <point x="527" y="527" type="line"/>
      <point x="131" y="527" type="line"/>
      <point x="57" y="0" type="line"/>
      <point x="148" y="0" type="line"/>
      <point x="211" y="452" type="line"/>
      <point x="425" y="452" type="line"/>
    </contour>
  </outline>
</glyph>
<glyph name="che-cy" format="2">
  <advance width="546"/>
  <unicode hex="0447"/>
  <anchor x="235.967" y="0" name="bottom"/>
  <anchor x="352" y="0" name="bottomleft"/>
  <anchor x="425" y="0" name="bottomright"/>
  <anchor x="290" y="527" name="top"/>
  <outline>
    <contour>
      <point x="489" y="527" type="line"/>
      <point x="398" y="527" type="line"/>
      <point x="368.776" y="318.874" type="line"/>
      <point x="332.787" y="270.664"/>
      <point x="275.66" y="234"/>
      <point x="220" y="234" type="curve" smooth="yes"/>
      <point x="166" y="234"/>
      <point x="144" y="265"/>
      <point x="154" y="333" type="curve" smooth="yes"/>
      <point x="182" y="527" type="line"/>
      <point x="91" y="527" type="line"/>
      <point x="62" y="328" type="line" smooth="yes"/>
      <point x="48" y="230"/>
      <point x="92" y="162"/>
      <point x="194" y="162" type="curve" smooth="yes"/>
      <point x="253.699" y="162"/>
      <point x="310.403" y="185.206"/>
      <point x="356.341" y="230.322" type="curve"/>
      <point x="324" y="0" type="line"/>
      <point x="415" y="0" type="line"/>
    </contour>
  </outline>
</glyph>
<glyph name="hardsign-cy" format="2">
  <advance width="563"/>
  <unicode hex="044A"/>
  <anchor x="270.967" y="0.0" name="bottom"/>
  <anchor x="345.033" y="527.0" name="top"/>
  <outline>
    <contour>
      <point x="174" y="457" type="line"/>
      <point x="275" y="527" type="line"/>
      <point x="37" y="527" type="line"/>
      <point x="27" y="457" type="line"/>
    </contour>
    <component base="softsign-cy" xOffset="53"/>
  </outline>
</glyph>
<glyph name="ereversed-cy" format="2">
  <advance width="475"/>
  <unicode hex="044D"/>
  <anchor x="199.967" y="0" name="bottom"/>
  <anchor x="248" y="527" name="top"/>
  <outline>
    <contour>
      <point x="158" y="-12" type="curve" smooth="yes"/>
      <point x="335" y="-12"/>
      <point x="422" y="139"/>
      <point x="422" y="327" type="curve" smooth="yes"/>
      <point x="422" y="462"/>
      <point x="357" y="539"/>
      <point x="233" y="539" type="curve" smooth="yes"/>
      <point x="168" y="539"/>
      <point x="111" y="519"/>
      <point x="59" y="482" type="curve"/>
      <point x="97" y="424" type="line"/>
      <point x="140" y="453"/>
      <point x="181" y="466"/>
      <point x="225" y="466" type="curve" smooth="yes"/>
      <point x="298" y="466"/>
      <point x="329" y="427"/>
      <point x="329" y="338" type="curve" smooth="yes"/>
      <point x="329" y="323"/>
      <point x="329" y="306"/>
      <point x="327" y="287" type="curve"/>
      <point x="324" y="259" type="line"/>
      <point x="308" y="119"/>
      <point x="240" y="63"/>
      <point x="160" y="63" type="curve" smooth="yes"/>
      <point x="111" y="63"/>
      <point x="80" y="77"/>
      <point x="46" y="105" type="curve"/>
      <point x="-3" y="50" type="line"/>
      <point x="37" y="14"/>
      <point x="88" y="-12"/>
    </contour>
    <contour>
      <point x="105" y="235" type="line"/>
      <point x="336" y="235" type="line"/>
      <point x="344" y="305" type="line"/>
      <point x="115" y="305" type="line"/>
    </contour>
  </outline>
</glyph>
<glyph name="dzhe-cy" format="2">
  <advance width="576"/>
  <unicode hex="045F"/>
  <anchor x="251" y="0" name="bottom"/>
  <anchor x="455" y="0" name="bottomright"/>
  <anchor x="454" y="0" name="ogonek"/>
  <anchor x="323" y="527" name="top"/>
  <anchor x="529" y="527" name="topright"/>
  <outline>
    <contour>
      <point x="162" y="52" type="line"/>
      <point x="152" y="-150" type="line"/>
      <point x="222" y="-150" type="line"/>
      <point x="247" y="38" type="line"/>
    </contour>
    <component base="u"/>
  </outline>
</glyph>
<glyph name="yat-cy" format="2">
  <advance width="522"/>
  <unicode hex="0463"/>
  <anchor x="223.967" y="0" name="bottom"/>
  <anchor x="205" y="649" name="top"/>
  <outline>
    <contour>
      <point x="53" y="467" type="line"/>
      <point x="349" y="467" type="line"/>
      <point x="369" y="537" type="line"/>
      <point x="145" y="537" type="line"/>
      <point x="62" y="537" type="line"/>
    </contour>
    <contour>
      <point x="277" y="357" type="curve" smooth="yes"/>
      <point x="210" y="357" type="line"/>
      <point x="251" y="656" type="line"/>
      <point x="160" y="646" type="line"/>
      <point x="71" y="14" type="line"/>
      <point x="120" y="-1"/>
      <point x="177" y="-12"/>
      <point x="242" y="-12" type="curve" smooth="yes"/>
      <point x="408" y="-12"/>
      <point x="479" y="100"/>
      <point x="479" y="200" type="curve" smooth="yes"/>
      <point x="479" y="289"/>
      <point x="423" y="357"/>
    </contour>
    <contour>
      <point x="239" y="60" type="curve" smooth="yes"/>
      <point x="214" y="60"/>
      <point x="195" y="63"/>
      <point x="170" y="68" type="curve"/>
      <point x="200" y="287" type="line"/>
      <point x="270" y="287" type="line" smooth="yes"/>
      <point x="353" y="287"/>
      <point x="384" y="252"/>
      <point x="384" y="201" type="curve" smooth="yes"/>
      <point x="384" y="131"/>
      <point x="346" y="60"/>
    </contour>
  </outline>
</glyph>
<glyph name="Eiotified-cy" format="2">
  <advance width="786"/>
  <unicode hex="0464"/>
  <anchor x="355.967" y="0" name="bottom"/>
  <anchor x="452.8" y="689" name="top"/>
  <outline>
    <contour>
      <point x="253" y="689" type="line"/>
      <point x="159" y="689" type="line"/>
      <point x="62" y="0" type="line"/>
      <point x="156" y="0" type="line"/>
      <point x="201" y="316" type="line"/>
      <point x="329" y="316" type="line"/>
      <point x="340" y="394" type="line"/>
      <point x="212" y="394" type="line"/>
    </contour>
    <component base="E-cy" xOffset="226"/>
  </outline>
</glyph>
<glyph name="eiotified-cy" format="2">
  <advance width="700"/>
  <unicode hex="0465"/>
  <anchor x="312.967" y="0" name="bottom"/>
  <anchor x="387.033" y="527" name="top"/>
  <outline>
    <contour>
      <point x="223" y="527" type="line"/>
      <point x="132" y="527" type="line"/>
      <point x="57" y="0" type="line"/>
      <point x="148" y="0" type="line"/>
      <point x="182" y="233" type="line"/>
      <point x="298" y="233" type="line"/>
      <point x="299" y="307" type="line"/>
      <point x="192" y="307" type="line"/>
    </contour>
    <component base="e-cy" xOffset="224"/>
  </outline>
</glyph>
<glyph name="Yuslittle-cy" format="2">
  <advance width="577"/>
  <unicode hex="0466"/>
  <anchor x="251.467" y="0" name="bottom"/>
  <anchor x="348.3" y="689" name="top"/>
  <outline>
    <contour>
      <point x="408" y="689" type="line"/>
      <point x="289" y="689" type="line"/>
      <point x="-32" y="0" type="line"/>
      <point x="64" y="0" type="line"/>
      <point x="337" y="610" type="line"/>
      <point x="436" y="0" type="line"/>
      <point x="534" y="0" type="line"/>
    </contour>
    <contour>
      <point x="421" y="363" type="line"/>
      <point x="179" y="363" type="line"/>
      <point x="145" y="285" type="line"/>
      <point x="433" y="285" type="line"/>
    </contour>
    <contour>
      <point x="335" y="306" type="line"/>
      <point x="249" y="306" type="line"/>
      <point x="206" y="0" type="line"/>
      <point x="292" y="0" type="line"/>
    </contour>
  </outline>
</glyph>
<glyph name="yuslittle-cy" format="2">
  <advance width="507"/>
  <unicode hex="0467"/>
  <anchor x="216.467" y="0" name="bottom"/>
  <anchor x="290.533" y="527" name="top"/>
  <outline>
    <contour>
      <point x="345" y="527" type="line"/>
      <point x="238" y="527" type="line"/>
      <point x="-27" y="0" type="line"/>
      <point x="67" y="0" type="line"/>
      <point x="283" y="458" type="line"/>
      <point x="370" y="0" type="line"/>
      <point x="461" y="0" type="line"/>
    </contour>
    <contour>
      <point x="377" y="273" type="line"/>
      <point x="134" y="273" type="line"/>
      <point x="124" y="202" type="line"/>
      <point x="367" y="202" type="line"/>
    </contour>
    <contour>
      <point x="213" y="245" type="line"/>
      <point x="179" y="0" type="line"/>
      <point x="255" y="0" type="line"/>
      <point x="289" y="245" type="line"/>
    </contour>
  </outline>
</glyph>
<glyph name="Yuslittleiotified-cy" format="2">
  <advance width="800"/>
  <unicode hex="0468"/>
  <anchor x="362.967" y="0" name="bottom"/>
  <anchor x="459.8" y="689" name="top"/>
  <outline>
    <contour>
      <point x="381" y="285" type="line"/>
      <point x="392" y="363" type="line"/>
      <point x="207" y="363" type="line"/>
      <point x="253" y="689" type="line"/>
      <point x="159" y="689" type="line"/>
      <point x="62" y="0" type="line"/>
      <point x="156" y="0" type="line"/>
      <point x="196" y="285" type="line"/>
    </contour>
    <component base="Yuslittle-cy" xOffset="223"/>
  </outline>
</glyph>
<glyph name="Yusbig-cy" format="2">
  <advance width="754"/>
  <unicode hex="046A"/>
  <anchor x="339.967" y="0" name="bottom"/>
  <anchor x="436.8" y="689" name="top"/>
  <outline>
    <contour>
      <point x="-32" y="0" type="line"/>
      <point x="74" y="0" type="line"/>
      <point x="259" y="311" type="line"/>
      <point x="339" y="311" type="line"/>
      <point x="295" y="0" type="line"/>
      <point x="386" y="0" type="line"/>
      <point x="430" y="311" type="line"/>
      <point x="512" y="311" type="line"/>
      <point x="608" y="0" type="line"/>
      <point x="712" y="0" type="line"/>
      <point x="578" y="389" type="line"/>
      <point x="211" y="389" type="line"/>
    </contour>
    <contour>
      <point x="334" y="325" type="line"/>
      <point x="438" y="325" type="line"/>
      <point x="684" y="622" type="line"/>
      <point x="693" y="689" type="line"/>
      <point x="632" y="689" type="line"/>
      <point x="396" y="389" type="line"/>
      <point x="239" y="689" type="line"/>
      <point x="180" y="689" type="line"/>
      <point x="170" y="622" type="line"/>
    </contour>
    <contour>
      <point x="204" y="617" type="line"/>
      <point x="664" y="617" type="line"/>
      <point x="674" y="689" type="line"/>
      <point x="214" y="689" type="line"/>
    </contour>
  </outline>
</glyph>
<glyph name="semisoftsign-cy" format="2">
  <advance width="525"/>
  <unicode hex="048D"/>
  <anchor x="225.467" y="0" name="bottom"/>
  <anchor x="299.533" y="527" name="top"/>
  <outline>
    <contour>
      <point x="278" y="336" type="curve" smooth="yes"/>
      <point x="211" y="336" type="line"/>
      <point x="235" y="527" type="line"/>
      <point x="144" y="527" type="line"/>
      <point x="72" y="14" type="line"/>
      <point x="121" y="-1"/>
      <point x="178" y="-12"/>
      <point x="243" y="-12" type="curve" smooth="yes"/>
      <point x="409" y="-12"/>
      <point x="480" y="84"/>
      <point x="480" y="185" type="curve" smooth="yes"/>
      <point x="480" y="271"/>
      <point x="424" y="336"/>
    </contour>
    <contour>
      <point x="240" y="60" type="curve" smooth="yes"/>
      <point x="215" y="60"/>
      <point x="196" y="63"/>
      <point x="171" y="68" type="curve"/>
      <point x="201" y="266" type="line"/>
      <point x="271" y="266" type="line" smooth="yes"/>
      <point x="354" y="266"/>
      <point x="385" y="236"/>
      <point x="385" y="185" type="curve" smooth="yes"/>
      <point x="385" y="115"/>
      <point x="347" y="60"/>
    </contour>
    <contour>
      <point x="45" y="397" type="line"/>
      <point x="340" y="397" type="line"/>
      <point x="358" y="467" type="line"/>
      <point x="137" y="467" type="line"/>
      <point x="54" y="467" type="line"/>
    </contour>
  </outline>
</glyph>
<glyph name="Gheupturn-cy" format="2">
  <advance width="503"/>
  <unicode hex="0490"/>
  <anchor x="214.467" y="0.0" name="bottom"/>
  <anchor x="167" y="0" name="bottomright"/>
  <anchor x="374" y="689" name="top"/>
  <outline>
    <contour>
      <point x="460" y="679" type="line"/>
      <point x="553" y="689" type="line"/>
      <point x="571" y="816" type="line"/>
      <point x="480" y="816" type="line"/>
    </contour>
    <component base="Ge-cy"/>
  </outline>
</glyph>
<glyph name="gheupturn-cy" format="2">
  <advance width="442"/>
  <unicode hex="0491"/>
  <anchor x="158" y="0" name="bottomright"/>
  <outline>
    <contour>
      <point x="365" y="517" type="line"/>
      <point x="457" y="527" type="line"/>
      <point x="476" y="662" type="line"/>
      <point x="385" y="662" type="line"/>
    </contour>
    <contour>
      <point x="148" y="0" type="line"/>
      <point x="211" y="451" type="line"/>
      <point x="434" y="451" type="line"/>
      <point x="457" y="527" type="line"/>
      <point x="131" y="527" type="line"/>
      <point x="57" y="0" type="line"/>
    </contour>
  </outline>
</glyph>
<glyph name="Ghestroke-cy" format="2">
  <advance width="508"/>
  <unicode hex="0492"/>
  <anchor x="219.467" y="0.0" name="bottom"/>
  <anchor x="171" y="0" name="bottomright"/>
  <anchor x="379" y="689" name="top"/>
  <outline>
    <contour>
      <point x="376" y="413" type="line"/>
      <point x="30" y="413" type="line"/>
      <point x="20" y="343" type="line"/>
      <point x="117" y="343" type="line"/>
      <point x="366" y="343" type="line"/>
    </contour>
    <component base="Ge-cy" xOffset="5"/>
  </outline>
</glyph>
<glyph name="Kaverticalstroke-cy" format="2">
  <advance width="600"/>
  <unicode hex="049C"/>
  <anchor x="254.467" y="0" name="bottom"/>
  <anchor x="351.3" y="689" name="top"/>
  <outline>
    <contour>
      <point x="596" y="701" type="line"/>
      <point x="524" y="678"/>
      <point x="491" y="666"/>
      <point x="430" y="569" type="curve" smooth="yes"/>
      <point x="325" y="401" type="line"/>
      <point x="302.26" y="401" type="line"/>
      <point x="326" y="570" type="line"/>
      <point x="272" y="570" type="line"/>
      <point x="248.26" y="401" type="line"/>
      <point x="212" y="401" type="line"/>
      <point x="253" y="689" type="line"/>
      <point x="159" y="689" type="line"/>
      <point x="62" y="0" type="line"/>
      <point x="156" y="0" type="line"/>
      <point x="201" y="323" type="line"/>
      <point x="237.302" y="323" type="line"/>
      <point x="213" y="150" type="line"/>
      <point x="267" y="150" type="line"/>
      <point x="291.302" y="323" type="line"/>
      <point x="319" y="323" type="line"/>
      <point x="450" y="0" type="line"/>
      <point x="548" y="0" type="line"/>
      <point x="399" y="361" type="line"/>
      <point x="499" y="519" type="line" smooth="yes"/>
      <point x="554" y="606"/>
      <point x="577" y="614"/>
      <point x="623" y="628" type="curve"/>
    </contour>
  </outline>
</glyph>
<glyph name="Kastroke-cy" format="2">
  <advance width="608"/>
  <unicode hex="049E"/>
  <anchor x="273.467" y="0.0" name="bottom"/>
  <anchor x="537" y="0" name="bottomright"/>
  <anchor x="372" y="689" name="top"/>
  <outline>
    <contour>
      <point x="338" y="597" type="line"/>
      <point x="159" y="597" type="line"/>
      <point x="68" y="597" type="line"/>
      <point x="59" y="527" type="line"/>
      <point x="329" y="527" type="line"/>
    </contour>
    <component base="Ka-cy" xOffset="13"/>
  </outline>
</glyph>
<glyph name="Kabashkir-cy" format="2">
  <advance width="644"/>
  <unicode hex="04A0"/>
  <anchor x="309.467" y="0.0" name="bottom"/>
  <anchor x="573" y="0" name="bottomright"/>
  <anchor x="408" y="689" name="top"/>
  <outline>
    <contour>
      <point x="302" y="689" type="line"/>
      <point x="60" y="689" type="line"/>
      <point x="48" y="608" type="line"/>
      <point x="235" y="608" type="line"/>
    </contour>
    <component base="Ka-cy" xOffset="49"/>
  </outline>
</glyph>
<glyph name="kabashkir-cy" format="2">
  <advance width="587"/>
  <unicode hex="04A1"/>
  <anchor x="282.967" y="0.0" name="bottom"/>
  <anchor x="476" y="0" name="bottomright"/>
  <anchor x="363" y="527" name="top"/>
  <outline>
    <contour>
      <point x="174" y="457" type="line"/>
      <point x="275" y="527" type="line"/>
      <point x="37" y="527" type="line"/>
      <point x="27" y="457" type="line"/>
    </contour>
    <component base="ka-cy" xOffset="53"/>
  </outline>
</glyph>
<glyph name="Enghe-cy" format="2">
  <advance width="734"/>
  <unicode hex="04A4"/>
  <anchor x="308" y="0" name="bottom"/>
  <anchor x="548" y="0" name="bottomright"/>
  <anchor x="348" y="345" name="center"/>
  <anchor x="397" y="689" name="top"/>
  <anchor x="139" y="689" name="topleft"/>
  <outline>
    <contour>
      <point x="541" y="689" type="line"/>
      <point x="579" y="608" type="line"/>
      <point x="781" y="608" type="line"/>
      <point x="794" y="689" type="line"/>
    </contour>
    <component base="H"/>
  </outline>
</glyph>
<glyph name="enghe-cy" format="2">
  <advance width="613"/>
  <unicode hex="04A5"/>
  <anchor x="257" y="0" name="bottom"/>
  <anchor x="466" y="0" name="bottomright"/>
  <anchor x="325" y="527" name="top"/>
  <outline>
    <contour>
      <point x="498" y="457" type="line"/>
      <point x="638" y="457" type="line"/>
      <point x="650" y="527" type="line"/>
      <point x="498" y="527" type="line"/>
    </contour>
    <component base="en-cy"/>
  </outline>
</glyph>
<glyph name="Pemiddlehook-cy" format="2">
  <advance width="967"/>
  <unicode hex="04A6"/>
  <anchor x="297.467" y="0.0" name="bottom"/>
  <anchor x="543" y="0" name="bottomright"/>
  <anchor x="543.3" y="689" name="top"/>
  <outline>
    <contour>
      <point x="753" y="452" type="curve" smooth="yes"/>
      <point x="670" y="452"/>
      <point x="612" y="423"/>
      <point x="565" y="374" type="curve"/>
      <point x="555" y="282" type="line"/>
      <point x="600" y="336"/>
      <point x="652" y="371"/>
      <point x="728" y="371" type="curve" smooth="yes"/>
      <point x="816" y="371"/>
      <point x="848" y="326"/>
      <point x="835" y="237" type="curve" smooth="yes"/>
      <point x="802" y="0" type="line"/>
      <point x="896" y="0" type="line"/>
      <point x="929" y="232" type="line" smooth="yes"/>
      <point x="948" y="368"/>
      <point x="883" y="452"/>
    </contour>
    <component base="Pe-cy"/>
    <component base="hookHELPER.case" xOffset="638"/>
  </outline>
</glyph>
<glyph name="pemiddlehook-cy" format="2">
  <advance width="842"/>
  <unicode hex="04A7"/>
  <anchor x="254.967" y="0.0" name="bottom"/>
  <anchor x="463" y="0" name="bottomright"/>
  <anchor x="458.033" y="527" name="top"/>
  <outline>
    <contour>
      <point x="664" y="0" type="line"/>
      <point x="755" y="0" type="line"/>
      <point x="781" y="185" type="line" smooth="yes"/>
      <point x="796" y="295"/>
      <point x="747" y="349"/>
      <point x="648" y="349" type="curve" smooth="yes"/>
      <point x="575" y="349"/>
      <point x="511" y="307"/>
      <point x="466" y="244" type="curve"/>
      <point x="477" y="182" type="line"/>
      <point x="518" y="238"/>
      <point x="564" y="277"/>
      <point x="625" y="277" type="curve" smooth="yes"/>
      <point x="673" y="277"/>
      <point x="700" y="257"/>
      <point x="689" y="178" type="curve" smooth="yes"/>
    </contour>
    <component base="pe-cy"/>
    <component base="hookHELPER" xOffset="497"/>
  </outline>
</glyph>
<glyph name="Ustraitstroke-cy" format="2">
  <advance width="544"/>
  <unicode hex="04B0"/>
  <anchor x="235" y="0" name="bottom"/>
  <anchor x="335" y="689" name="top"/>
  <anchor x="66" y="689" name="topleft"/>
  <outline>
    <contour>
      <point x="445" y="306" type="line"/>
      <point x="327" y="306" type="line"/>
      <point x="113" y="306" type="line"/>
      <point x="103" y="236" type="line"/>
      <point x="221" y="236" type="line"/>
      <point x="435" y="236" type="line"/>
    </contour>
    <component base="Y"/>
  </outline>
</glyph>
<glyph name="Tetse-cy" format="2">
  <advance width="785"/>
  <unicode hex="04B4"/>
  <anchor x="400" y="0" name="bottom"/>
  <anchor x="646" y="0" name="bottomright"/>
  <anchor x="452.3" y="689" name="top"/>
  <outline>
    <contour>
      <point x="536" y="689" type="line"/>
      <point x="74" y="689" type="line"/>
      <point x="63" y="608" type="line"/>
      <point x="260" y="608" type="line"/>
      <point x="355" y="608" type="line"/>
      <point x="513" y="608" type="line"/>
    </contour>
    <component base="Tse-cy" xOffset="113"/>
  </outline>
</glyph>
<glyph name="tetse-cy" format="2">
  <advance width="657"/>
  <unicode hex="04B5"/>
  <anchor x="546" y="0" name="_bottom"/>
  <anchor x="312" y="0" name="bottom"/>
  <anchor x="516" y="0" name="bottomright"/>
  <anchor x="515" y="0" name="ogonek"/>
  <anchor x="365.533" y="527" name="top"/>
  <anchor x="590" y="527" name="topright"/>
  <outline>
    <contour>
      <point x="416" y="527" type="line"/>
      <point x="18" y="527" type="line"/>
      <point x="8" y="457" type="line"/>
      <point x="176" y="457" type="line"/>
      <point x="267" y="457" type="line"/>
      <point x="394" y="457" type="line"/>
    </contour>
    <component base="tse-cy" xOffset="61"/>
  </outline>
</glyph>
<glyph name="Cheverticalstroke-cy" format="2">
  <advance width="606"/>
  <unicode hex="04B8"/>
  <anchor x="265.967" y="0.0" name="bottom"/>
  <anchor x="356" y="0" name="bottomleft"/>
  <anchor x="480" y="0" name="bottomright"/>
  <anchor x="333" y="689" name="top"/>
  <outline>
    <contour>
      <point x="346" y="540" type="line"/>
      <point x="287" y="540" type="line"/>
      <point x="228" y="120" type="line"/>
      <point x="287" y="120" type="line"/>
    </contour>
    <component base="Che-cy"/>
  </outline>
</glyph>
<glyph name="cheverticalstroke-cy" format="2">
  <advance width="546"/>
  <unicode hex="04B9"/>
  <anchor x="235.967" y="0.0" name="bottom"/>
  <anchor x="352" y="0" name="bottomleft"/>
  <anchor x="425" y="0" name="bottomright"/>
  <anchor x="290" y="527" name="top"/>
  <outline>
    <contour>
      <point x="288" y="390" type="line"/>
      <point x="233" y="390" type="line"/>
      <point x="191" y="90" type="line"/>
      <point x="246" y="90" type="line"/>
    </contour>
    <component base="che-cy"/>
  </outline>
</glyph>
<glyph name="Shha-cy" format="2">
  <advance width="600"/>
  <unicode hex="04BA"/>
  <anchor x="262.967" y="0" name="bottom"/>
  <anchor x="539" y="0" name="bottomright"/>
  <anchor x="359.8" y="689" name="top"/>
  <outline>
    <contour>
      <point x="386" y="452" type="curve" smooth="yes"/>
      <point x="303" y="452"/>
      <point x="245" y="423"/>
      <point x="198" y="374" type="curve"/>
      <point x="188" y="282" type="line"/>
      <point x="233" y="336"/>
      <point x="285" y="371"/>
      <point x="361" y="371" type="curve" smooth="yes"/>
      <point x="449" y="371"/>
      <point x="481" y="326"/>
      <point x="468" y="237" type="curve" smooth="yes"/>
      <point x="435" y="0" type="line"/>
      <point x="529" y="0" type="line"/>
      <point x="562" y="232" type="line" smooth="yes"/>
      <point x="581" y="368"/>
      <point x="516" y="452"/>
    </contour>
    <contour>
      <point x="253" y="689" type="line"/>
      <point x="159" y="689" type="line"/>
      <point x="62" y="0" type="line"/>
      <point x="156" y="0" type="line"/>
    </contour>
  </outline>
</glyph>
<glyph name="chekhakassian-cy" format="2">
  <advance width="546"/>
  <unicode hex="04CC"/>
  <anchor x="235.967" y="0" name="bottom"/>
  <anchor x="352" y="0" name="bottomleft"/>
  <anchor x="425" y="0" name="bottomright"/>
  <anchor x="310.033" y="527" name="top"/>
  <outline>
    <contour>
      <point x="489" y="527" type="line"/>
      <point x="398" y="527" type="line"/>
      <point x="368.776" y="318.874" type="line"/>
      <point x="332.787" y="270.664"/>
      <point x="275.66" y="234"/>
      <point x="220" y="234" type="curve" smooth="yes"/>
      <point x="166" y="234"/>
      <point x="144" y="265"/>
      <point x="154" y="333" type="curve" smooth="yes"/>
      <point x="182" y="527" type="line"/>
      <point x="91" y="527" type="line"/>
      <point x="62" y="328" type="line" smooth="yes"/>
      <point x="48" y="230"/>
      <point x="92" y="162"/>
      <point x="194" y="162" type="curve" smooth="yes"/>
      <point x="253.699" y="162"/>
      <point x="310.403" y="185.206"/>
      <point x="356.341" y="230.322" type="curve"/>
      <point x="324" y="0" type="line"/>
      <point x="415" y="0" type="line"/>
    </contour>
    <contour>
      <point x="210" y="-150" type="line"/>
      <point x="284" y="-150" type="line"/>
      <point x="327" y="0" type="line"/>
      <point x="362" y="0" type="line"/>
      <point x="372" y="74" type="line"/>
      <point x="241" y="74" type="line"/>
    </contour>
  </outline>
</glyph>
<glyph name="gedescender-cy" format="2">
  <advance width="461"/>
  <unicode hex="04F7"/>
  <anchor x="193.467" y="0.0" name="bottom"/>
  <anchor x="279" y="527" name="top"/>
  <outline>
    <contour>
      <point x="164" y="52" type="line"/>
      <point x="154" y="-150" type="line"/>
      <point x="224" y="-150" type="line"/>
      <point x="249" y="38" type="line"/>
    </contour>
    <component base="ge-cy"/>
  </outline>
</glyph>
<glyph name="Gestrokehook-cy" format="2">
  <advance width="508"/>
  <unicode hex="04FA"/>
  <anchor x="219.467" y="0.0" name="bottom"/>
  <anchor x="171" y="0" name="bottomright"/>
  <anchor x="379" y="689" name="top"/>
  <outline>
    <contour>
      <point x="98" y="78" type="line"/>
      <point x="88" y="0" type="line"/>
      <point x="257" y="0" type="line"/>
      <point x="267" y="78" type="line"/>
    </contour>
    <component base="Ghestroke-cy"/>
    <component base="hookHELPER.case" xOffset="-1"/>
  </outline>
</glyph>
<glyph name="Hahook-cy" format="2">
  <advance width="559"/>
  <unicode hex="04FC"/>
  <anchor x="229.967" y="0.0" name="bottom"/>
  <anchor x="454" y="0" name="bottomright"/>
  <anchor x="326.8" y="689.0" name="top"/>
  <outline>
    <contour>
      <point x="526" y="78" type="line"/>
      <point x="397" y="78" type="line"/>
      <point x="397" y="0" type="line"/>
      <point x="517" y="0" type="line"/>
    </contour>
    <component base="hookHELPER.case" xOffset="259"/>
    <component base="X"/>
  </outline>
</glyph>
<glyph name="hahook-cy" format="2">
  <advance width="510"/>
  <unicode hex="04FD"/>
  <anchor x="204" y="0" name="bottom"/>
  <anchor x="395" y="0" name="bottomright"/>
  <anchor x="292.033" y="527" name="top"/>
  <outline>
    <contour>
      <point x="349" y="74" type="line"/>
      <point x="339" y="0" type="line"/>
      <point x="463" y="0" type="line"/>
      <point x="470" y="74" type="line"/>
    </contour>
    <component base="hookHELPER" xOffset="205"/>
    <component base="x"/>
  </outline>
</glyph>
<glyph name="Hastroke-cy" format="2">
  <advance width="534"/>
  <unicode hex="04FE"/>
  <anchor x="229.967" y="0" name="bottom"/>
  <anchor x="454" y="0" name="bottomright"/>
  <anchor x="326.8" y="689" name="top"/>
  <outline>
    <contour>
      <point x="186" y="689" type="line"/>
      <point x="83" y="689" type="line"/>
      <point x="226" y="367" type="line"/>
      <point x="276" y="317" type="line"/>
      <point x="389" y="0" type="line"/>
      <point x="492" y="0" type="line"/>
      <point x="335" y="372" type="line"/>
      <point x="285" y="419" type="line"/>
    </contour>
    <contour>
      <point x="567" y="689" type="line"/>
      <point x="463" y="689" type="line"/>
      <point x="285" y="419" type="line"/>
      <point x="223" y="367" type="line"/>
      <point x="-33" y="0" type="line"/>
      <point x="72" y="0" type="line"/>
      <point x="276" y="317" type="line"/>
      <point x="338" y="372" type="line"/>
    </contour>
    <component base="hyphen" xScale="1.5" yScale="0.9" xOffset="-32" yOffset="86"/>
  </outline>
</glyph>
<glyph name="hastroke-cy" format="2">
  <advance width="480"/>
  <unicode hex="04FF"/>
  <anchor x="202.967" y="0" name="bottom"/>
  <anchor x="395" y="0" name="bottomright"/>
  <anchor x="277.033" y="527" name="top"/>
  <outline>
    <contour>
      <point x="166" y="527" type="line"/>
      <point x="64" y="527" type="line"/>
      <point x="189" y="283" type="line"/>
      <point x="237" y="232" type="line"/>
      <point x="335" y="0" type="line"/>
      <point x="438" y="0" type="line"/>
      <point x="297" y="275" type="line"/>
      <point x="248" y="324" type="line"/>
    </contour>
    <contour>
      <point x="493" y="527" type="line"/>
      <point x="388" y="527" type="line"/>
      <point x="248" y="324" type="line"/>
      <point x="189" y="283" type="line"/>
      <point x="-32" y="0" type="line"/>
      <point x="72" y="0" type="line"/>
      <point x="237" y="232" type="line"/>
      <point x="297" y="275" type="line"/>
    </contour>
    <component base="hyphen" xScale="1.3" yScale="0.85" xOffset="-26" yOffset="9"/>
  </outline>
</glyph>
<glyph name="Komidzje-cy" format="2">
  <advance width="466"/>
  <unicode hex="0506"/>
  <anchor x="410" y="0" name="_bottom"/>
  <anchor x="292.8" y="689" name="top"/>
  <outline>
    <contour>
      <point x="228" y="689" type="curve" smooth="yes"/>
      <point x="100" y="689" type="line"/>
      <point x="89" y="615" type="line"/>
      <point x="220" y="615" type="line" smooth="yes"/>
      <point x="319" y="615"/>
      <point x="363" y="590"/>
      <point x="363" y="512" type="curve" smooth="yes"/>
      <point x="363" y="422"/>
      <point x="304" y="365"/>
      <point x="192" y="365" type="curve" smooth="yes"/>
      <point x="93" y="365" type="line"/>
      <point x="83" y="292" type="line"/>
      <point x="204" y="292" type="line"/>
      <point x="359" y="312"/>
      <point x="462" y="373"/>
      <point x="462" y="510" type="curve" smooth="yes"/>
      <point x="462" y="632"/>
      <point x="382" y="689"/>
    </contour>
    <contour>
      <point x="284" y="317" type="line"/>
      <point x="189" y="306" type="line"/>
      <point x="318" y="0" type="line"/>
      <point x="428" y="0" type="line"/>
    </contour>
    <component base="descStraight-cy.case" xOffset="336"/>
  </outline>
</glyph>
<glyph name="komidzje-cy" format="2">
  <advance width="449"/>
  <unicode hex="0507"/>
  <anchor x="359" y="0" name="_bottom"/>
  <anchor x="261.533" y="527" name="top"/>
  <outline>
    <contour>
      <point x="69" y="202" type="line"/>
      <point x="185" y="202" type="line"/>
      <point x="311" y="220"/>
      <point x="395" y="276"/>
      <point x="395" y="383" type="curve" smooth="yes"/>
      <point x="395" y="481"/>
      <point x="324" y="527"/>
      <point x="197" y="527" type="curve" smooth="yes"/>
      <point x="77" y="527" type="line"/>
      <point x="67" y="457" type="line"/>
      <point x="190" y="457" type="line" smooth="yes"/>
      <point x="268" y="457"/>
      <point x="300" y="438"/>
      <point x="300" y="383" type="curve" smooth="yes"/>
      <point x="300" y="317"/>
      <point x="253" y="272"/>
      <point x="172" y="272" type="curve" smooth="yes"/>
      <point x="79" y="272" type="line"/>
    </contour>
    <contour>
      <point x="251" y="238" type="line"/>
      <point x="165" y="225" type="line"/>
      <point x="274" y="0" type="line"/>
      <point x="375" y="0" type="line"/>
    </contour>
    <component base="descStraight-cy" xOffset="285"/>
  </outline>
</glyph>
<glyph name="Komitje-cy" format="2">
  <advance width="669"/>
  <unicode hex="050E"/>
  <anchor x="297.467" y="0" name="bottom"/>
  <anchor x="394.3" y="689" name="top"/>
  <outline>
    <contour>
      <point x="357" y="-12" type="curve" smooth="yes"/>
      <point x="526" y="-12"/>
      <point x="611" y="127"/>
      <point x="627" y="379" type="curve"/>
      <point x="538" y="379" type="line"/>
      <point x="525" y="198"/>
      <point x="482" y="62"/>
      <point x="364" y="62" type="curve" smooth="yes"/>
      <point x="291" y="62"/>
      <point x="279" y="109"/>
      <point x="287" y="168" type="curve" smooth="yes"/>
      <point x="350" y="608" type="line"/>
      <point x="536" y="608" type="line"/>
      <point x="561" y="689" type="line"/>
      <point x="75" y="689" type="line"/>
      <point x="62" y="608" type="line"/>
      <point x="256" y="608" type="line"/>
      <point x="195" y="175" type="line" smooth="yes"/>
      <point x="179" y="62"/>
      <point x="240" y="-12"/>
    </contour>
  </outline>
</glyph>
<glyph name="Lha-cy" format="2">
  <advance width="813"/>
  <unicode hex="0514"/>
  <anchor x="369.467" y="0" name="bottom"/>
  <anchor x="738" y="0" name="bottomright"/>
  <anchor x="466.3" y="689" name="top"/>
  <outline>
    <contour>
      <point x="214" y="689" type="line"/>
      <point x="129" y="308" type="line" smooth="yes"/>
      <point x="89" y="129"/>
      <point x="66" y="91"/>
      <point x="-12" y="63" type="curve"/>
      <point x="4" y="-13" type="line"/>
      <point x="119" y="23"/>
      <point x="169" y="57"/>
      <point x="223" y="309" type="curve" smooth="yes"/>
      <point x="288" y="613" type="line"/>
    </contour>
    <contour>
      <point x="464" y="689" type="line"/>
      <point x="214" y="689" type="line"/>
      <point x="271" y="611" type="line"/>
      <point x="464" y="611" type="line"/>
    </contour>
    <component base="X" xOffset="284"/>
  </outline>
</glyph>
<glyph name="lha-cy" format="2">
  <advance width="696"/>
  <unicode hex="0515"/>
  <anchor x="310.967" y="0" name="bottom"/>
  <anchor x="616" y="0" name="bottomright"/>
  <anchor x="385.033" y="527" name="top"/>
  <outline>
    <contour>
      <point x="172" y="527" type="line"/>
      <point x="228" y="454" type="line"/>
      <point x="358" y="454" type="line"/>
      <point x="358" y="527" type="line"/>
    </contour>
    <contour>
      <point x="243" y="456" type="line"/>
      <point x="171" y="527" type="line"/>
      <point x="124" y="289" type="line" smooth="yes"/>
      <point x="90" y="115"/>
      <point x="75" y="86"/>
      <point x="7" y="62" type="curve"/>
      <point x="24" y="-13" type="line"/>
      <point x="141" y="22"/>
      <point x="174" y="72"/>
      <point x="211" y="273" type="curve" smooth="yes"/>
    </contour>
    <component base="x" xOffset="221"/>
  </outline>
</glyph>
<glyph name="Aleutka-cy" format="2">
  <advance width="601"/>
  <unicode hex="051E"/>
  <anchor x="262.467" y="0.0" name="bottom"/>
  <anchor x="526" y="0" name="bottomright"/>
  <anchor x="361" y="689" name="top"/>
  <outline>
    <contour>
      <point x="303" y="584" type="line"/>
      <point x="596" y="436" type="line"/>
      <point x="632" y="498" type="line"/>
      <point x="339" y="648" type="line"/>
    </contour>
    <component base="Ka-cy" xOffset="2"/>
  </outline>
</glyph>
<glyph name="aleutka-cy" format="2">
  <advance width="534"/>
  <unicode hex="051F"/>
  <anchor x="229.967" y="0" name="bottom"/>
  <anchor x="423" y="0" name="bottomright"/>
  <anchor x="304.033" y="527" name="top"/>
  <outline>
    <contour>
      <point x="237" y="431" type="line"/>
      <point x="468" y="301" type="line"/>
      <point x="504" y="357" type="line"/>
      <point x="273" y="487" type="line"/>
    </contour>
    <component base="ka-cy"/>
  </outline>
</glyph>
<glyph name="Elmiddlehook-cy" format="2">
  <advance width="960"/>
  <unicode hex="0520"/>
  <anchor x="288.967" y="0.0" name="bottom"/>
  <anchor x="526" y="0" name="bottomright"/>
  <anchor x="539.8" y="689" name="top"/>
  <outline>
    <contour>
      <point x="746" y="452" type="curve" smooth="yes"/>
      <point x="663" y="452"/>
      <point x="605" y="423"/>
      <point x="558" y="374" type="curve"/>
      <point x="548" y="282" type="line"/>
      <point x="593" y="336"/>
      <point x="645" y="371"/>
      <point x="721" y="371" type="curve" smooth="yes"/>
      <point x="809" y="371"/>
      <point x="841" y="326"/>
      <point x="828" y="237" type="curve" smooth="yes"/>
      <point x="795" y="0" type="line"/>
      <point x="888" y="0" type="line"/>
      <point x="922" y="232" type="line" smooth="yes"/>
      <point x="942" y="368"/>
      <point x="876" y="452"/>
    </contour>
    <component base="El-cy"/>
    <component base="hookHELPER.case" xOffset="633" yOffset="3"/>
  </outline>
</glyph>
<glyph name="elmiddlehook-cy" format="2">
  <advance width="823"/>
  <unicode hex="0521"/>
  <anchor x="247.967" y="0.0" name="bottom"/>
  <anchor x="449" y="0" name="bottomright"/>
  <anchor x="448.533" y="527" name="top"/>
  <outline>
    <contour>
      <point x="645" y="-3" type="line"/>
      <point x="734" y="-10" type="line"/>
      <point x="762" y="185" type="line" smooth="yes"/>
      <point x="778" y="295"/>
      <point x="728" y="349"/>
      <point x="630" y="349" type="curve" smooth="yes"/>
      <point x="556" y="349"/>
      <point x="492" y="307"/>
      <point x="447" y="244" type="curve"/>
      <point x="458" y="182" type="line"/>
      <point x="499" y="238"/>
      <point x="546" y="277"/>
      <point x="606" y="277" type="curve" smooth="yes"/>
      <point x="654" y="277"/>
      <point x="681" y="257"/>
      <point x="670" y="178" type="curve" smooth="yes"/>
    </contour>
    <component base="el-cy"/>
    <component base="hookHELPER" xOffset="480"/>
  </outline>
</glyph>
<glyph name="Enmiddlehook-cy" format="2">
  <advance width="982"/>
  <unicode hex="0522"/>
  <anchor x="309" y="0" name="bottom"/>
  <anchor x="549" y="0" name="bottomright"/>
  <anchor x="349" y="345" name="center"/>
  <anchor x="550.8" y="689" name="top"/>
  <anchor x="140" y="689" name="topleft"/>
  <outline>
    <contour>
      <point x="768" y="452" type="curve" smooth="yes"/>
      <point x="685" y="452"/>
      <point x="627" y="423"/>
      <point x="580" y="374" type="curve"/>
      <point x="570" y="282" type="line"/>
      <point x="615" y="336"/>
      <point x="667" y="371"/>
      <point x="743" y="371" type="curve" smooth="yes"/>
      <point x="831" y="371"/>
      <point x="863" y="326"/>
      <point x="850" y="237" type="curve" smooth="yes"/>
      <point x="817" y="0" type="line"/>
      <point x="910" y="0" type="line"/>
      <point x="944" y="232" type="line" smooth="yes"/>
      <point x="964" y="368"/>
      <point x="898" y="452"/>
    </contour>
    <component base="H" xOffset="1"/>
    <component base="hookHELPER.case" xOffset="655" yOffset="2"/>
  </outline>
</glyph>
<glyph name="enmiddlehook-cy" format="2">
  <advance width="841"/>
  <unicode hex="0523"/>
  <anchor x="258" y="0" name="bottom"/>
  <anchor x="467" y="0" name="bottomright"/>
  <anchor x="457.533" y="527" name="top"/>
  <outline>
    <contour>
      <point x="662" y="-9" type="line"/>
      <point x="752" y="-10" type="line"/>
      <point x="780" y="185" type="line" smooth="yes"/>
      <point x="796" y="295"/>
      <point x="746" y="349"/>
      <point x="648" y="349" type="curve" smooth="yes"/>
      <point x="574" y="349"/>
      <point x="510" y="307"/>
      <point x="466" y="244" type="curve"/>
      <point x="476" y="182" type="line"/>
      <point x="517" y="238"/>
      <point x="564" y="277"/>
      <point x="624" y="277" type="curve" smooth="yes"/>
      <point x="673" y="277"/>
      <point x="699" y="257"/>
      <point x="688" y="178" type="curve" smooth="yes"/>
    </contour>
    <component base="en-cy" xOffset="1"/>
    <component base="hookHELPER" xOffset="498"/>
  </outline>
</glyph>
<glyph name="uni1D6C" format="2">
  <advance width="673"/>
  <unicode hex="1D6C"/>
  <anchor x="346" y="0" name="bottom"/>
  <anchor x="462" y="739" name="top"/>
  <outline>
    <contour>
      <point x="355" y="563" type="curve" smooth="yes"/>
      <point x="426" y="563"/>
      <point x="472" y="611"/>
      <point x="499" y="652" type="curve"/>
      <point x="446" y="686" type="line"/>
      <point x="427" y="660"/>
      <point x="398" y="636"/>
      <point x="363" y="636" type="curve" smooth="yes"/>
      <point x="313" y="636"/>
      <point x="288" y="697"/>
      <point x="219" y="697" type="curve" smooth="yes"/>
      <point x="146" y="697"/>
      <point x="98" y="643"/>
      <point x="72" y="602" type="curve"/>
      <point x="126" y="569" type="line"/>
      <point x="145" y="595"/>
      <point x="173" y="625"/>
      <point x="211" y="625" type="curve" smooth="yes"/>
      <point x="258" y="625"/>
      <point x="283" y="563"/>
    </contour>
    <component base="b" xOffset="94"/>
  </outline>
</glyph>
<glyph name="uni1D74" format="2">
  <advance width="467"/>
  <unicode hex="1D74"/>
  <anchor x="195" y="0" name="bottom"/>
  <anchor x="275" y="527" name="top"/>
  <outline>
    <contour>
      <point x="87" y="204" type="line"/>
      <point x="103" y="232"/>
      <point x="121" y="260"/>
      <point x="167" y="260" type="curve"/>
      <point x="173" y="322" type="line"/>
      <point x="88" y="332"/>
      <point x="47" y="276"/>
      <point x="26" y="235" type="curve"/>
    </contour>
    <contour>
      <point x="310" y="228" type="line"/>
      <point x="393" y="218"/>
      <point x="433" y="268"/>
      <point x="454" y="309" type="curve"/>
      <point x="393" y="341" type="line"/>
      <point x="377" y="313"/>
      <point x="359" y="291"/>
      <point x="316" y="291" type="curve"/>
    </contour>
    <component base="s"/>
  </outline>
</glyph>
<glyph name="macronacute" format="2">
  <unicode hex="1DC4"/>
  <outline>
    <contour>
      <point x="279" y="608" type="line"/>
      <point x="441" y="720" type="line"/>
      <point x="394" y="782" type="line"/>
      <point x="243" y="657" type="line"/>
    </contour>
    <contour>
      <point x="280" y="609" type="line"/>
      <point x="349" y="678" type="line"/>
      <point x="88" y="678" type="line"/>
      <point x="79" y="609" type="line"/>
    </contour>
  </outline>
</glyph>
<glyph name="macrongrave" format="2">
  <unicode hex="1DC6"/>
  <anchor x="239" y="527" name="_top"/>
  <anchor x="261" y="746" name="top"/>
  <outline>
    <contour>
      <point x="389" y="589" type="line"/>
      <point x="429" y="635" type="line"/>
      <point x="296" y="746" type="line"/>
      <point x="236" y="685" type="line"/>
    </contour>
    <contour>
      <point x="347" y="677" type="line"/>
      <point x="297" y="746" type="line"/>
      <point x="98" y="746" type="line"/>
      <point x="88" y="677" type="line"/>
    </contour>
  </outline>
</glyph>
<glyph name="acutemacron" format="2">
  <unicode hex="1DC7"/>
  <anchor x="244" y="527" name="_top"/>
  <anchor x="266" y="746" name="top"/>
  <outline>
    <contour>
      <point x="113" y="589" type="line"/>
      <point x="289" y="685" type="line"/>
      <point x="244" y="746" type="line"/>
      <point x="83" y="635" type="line"/>
    </contour>
    <contour>
      <point x="175" y="677" type="line"/>
      <point x="436" y="677" type="line"/>
      <point x="445" y="746" type="line"/>
      <point x="244" y="746" type="line"/>
    </contour>
  </outline>
</glyph>
<glyph name="graveacutegrave" format="2">
  <unicode hex="1DC8"/>
  <anchor x="269" y="527" name="_top"/>
  <anchor x="299" y="795" name="top"/>
  <outline>
    <contour>
      <point x="244" y="653" type="line"/>
      <point x="369" y="715" type="line"/>
      <point x="463" y="653" type="line"/>
      <point x="496" y="698" type="line"/>
      <point x="375" y="795" type="line"/>
      <point x="246" y="717" type="line"/>
      <point x="140" y="795" type="line"/>
      <point x="98" y="738" type="line"/>
    </contour>
  </outline>
</glyph>
<glyph name="acutegraveacute" format="2">
  <unicode hex="1DC9"/>
  <anchor x="270" y="527" name="_top"/>
  <anchor x="300" y="795" name="top"/>
  <outline>
    <contour>
      <point x="336" y="653" type="line"/>
      <point x="504" y="738" type="line"/>
      <point x="470" y="795" type="line"/>
      <point x="343" y="717" type="line"/>
      <point x="238" y="795" type="line"/>
      <point x="91" y="698" type="line"/>
      <point x="114" y="653" type="line"/>
      <point x="229" y="715" type="line"/>
    </contour>
  </outline>
</glyph>
<glyph name="psilivaria" format="2">
  <advance width="342"/>
  <unicode hex="1FCD"/>
  <anchor x="192" y="527" name="_top"/>
  <outline>
    <contour>
      <point x="320" y="799" type="line"/>
      <point x="238" y="783" type="line"/>
      <point x="281" y="582" type="line"/>
      <point x="339" y="593" type="line"/>
    </contour>
    <component base="psili" xOffset="33"/>
  </outline>
</glyph>
<glyph name="psilioxia" format="2">
  <advance width="343"/>
  <unicode hex="1FCE"/>
  <anchor x="173" y="527" name="_top"/>
  <outline>
    <contour>
      <point x="288" y="799" type="line"/>
      <point x="214" y="593" type="line"/>
      <point x="268" y="577" type="line"/>
      <point x="365" y="778" type="line"/>
    </contour>
    <component base="psili" xOffset="33"/>
  </outline>
</glyph>
